<mxfile host="65bd71144e">
    <diagram id="cqcNR7s39dmxIb1heBJJ" name="sol1">
        <mxGraphModel dx="2391" dy="2311" grid="1" gridSize="10" guides="1" tooltips="1" connect="1" arrows="1" fold="1" page="1" pageScale="1" pageWidth="827" pageHeight="1169" background="#FFFFFF" math="0" shadow="0">
            <root>
                <mxCell id="0"/>
                <mxCell id="1" parent="0"/>
                <mxCell id="65" value="" style="rounded=0;whiteSpace=wrap;html=1;dashed=1;" vertex="1" parent="1">
                    <mxGeometry x="1026" y="220" width="214" height="480" as="geometry"/>
                </mxCell>
                <mxCell id="60" value="" style="strokeColor=#dddddd;shadow=1;strokeWidth=1;rounded=1;absoluteArcSize=1;arcSize=2;" vertex="1" parent="1">
                    <mxGeometry x="-20" y="160" width="1010" height="500" as="geometry"/>
                </mxCell>
                <mxCell id="61" value="&lt;font color=&quot;#000000&quot;&gt;Ethereum block indexer service&lt;/font&gt;&lt;br&gt;Kubernetes" style="dashed=0;connectable=0;html=1;fillColor=#5184F3;strokeColor=none;shape=mxgraph.gcp2.kubernetes_logo;part=1;labelPosition=right;verticalLabelPosition=middle;align=left;verticalAlign=middle;spacingLeft=5;fontColor=#999999;fontSize=12;" vertex="1" parent="60">
                    <mxGeometry width="45" height="43.65" relative="1" as="geometry">
                        <mxPoint x="5" y="7.675000000000001" as="offset"/>
                    </mxGeometry>
                </mxCell>
                <mxCell id="40" value="" style="strokeColor=#dddddd;shadow=1;strokeWidth=1;rounded=1;absoluteArcSize=1;arcSize=2;" vertex="1" parent="60">
                    <mxGeometry x="160" y="297" width="170" height="130" as="geometry"/>
                </mxCell>
                <mxCell id="41" value="&lt;font color=&quot;#000000&quot;&gt;API&amp;nbsp;service&lt;/font&gt;&lt;br&gt;&lt;hr&gt;&lt;span style=&quot;font-size: 11px&quot;&gt;先從 Redis 讀取&lt;br&gt;讀不到再從 DB。&lt;br&gt;為了 availability&amp;nbsp;&lt;br&gt;如果有問題，直接從&lt;br&gt;ethereum web3 API &lt;br&gt;讀取&lt;br&gt;&lt;/span&gt;" style="dashed=0;connectable=0;html=1;fillColor=#5184F3;strokeColor=none;shape=mxgraph.gcp2.container_engine;part=1;labelPosition=right;verticalLabelPosition=middle;align=left;verticalAlign=top;spacingLeft=5;fontColor=#999999;fontSize=12;spacingTop=-8;" vertex="1" parent="40">
                    <mxGeometry width="44" height="39" relative="1" as="geometry">
                        <mxPoint x="5" y="7" as="offset"/>
                    </mxGeometry>
                </mxCell>
                <mxCell id="82" value="" style="shape=image;imageAspect=0;aspect=fixed;verticalLabelPosition=bottom;verticalAlign=top;dashed=1;image=data:image/png,iVBORw0KGgoAAAANSUhEUgAAARIAAADcCAYAAAC8oi5TAAAMa2lDQ1BJQ0MgUHJvZmlsZQAASImVVwdYU8kWnluSkJDQAhGQEnpHepUSQosgIB1shCSQUGJMCCp2ZVHBtYsoVnRVRMHVFZBFRexlUex9saCirIu6KIrKm5CArvvK9873zZ0/Z878p2Tm3hkANPu4EkkeqgVAvrhAGh8RwkxNS2eSOgEZjAR6QB04cHkyCSsuLhpAGer/Lu9uAETRX3VScP1z/L+KDl8g4wGATIA4ky/j5UPcAgC+kSeRFgBAVOgtphVIFHgexLpSGCDEaxQ4W4l3K3CmEjcP2iTGsyG+DIAalcuVZgOgcQ/qmYW8bMij8QliFzFfJAZA0xHiQJ6Qy4dYEbtjfv4UBa6A2BbaSyCG8QCfzG84s//GnznMz+VmD2NlXoOiFiqSSfK4M/7P0vxvyc+TD/mwho0qlEbGK/KHNbyVOyVKgakQd4szY2IVtYa4T8RX1h0AlCKURyYp7VEjnowN6wcYELvwuaFREBtBHC7Oi4lW6TOzROEciOFqQaeLCjiJEOtDvFggC0tQ2WyVTolX+ULrs6Rslkp/lisd9Kvw9UCem8RS8b8RCjgqfkyjSJiYAjEFYstCUXIMxBoQO8tyE6JUNqOLhOyYIRupPF4RvyXE8QJxRIiSHyvMkobHq+xL82VD+WJbhSJOjAofKBAmRirrg53kcQfjh7lglwViVtIQj0CWGj2UC18QGqbMHXsuECclqHj6JAUh8cq5OEWSF6eyx80FeREKvTnEHrLCBNVcPLkALk4lP54lKYhLVMaJF+Vwx8Qp48FXgGjABqGACeSwZYIpIAeI2robuuEv5Ug44AIpyAYC4KTSDM1IGRwRw2cCKAJ/QCQAsuF5IYOjAlAI9Z+HtcqnE8gaHC0cnJELnkKcD6JAHvwtH5wlHvaWDJ5Ajegf3rmw8WC8ebApxv+9fkj7VcOCmmiVRj7kkak5ZEkMI4YSI4nhRDvcEA/E/fFo+AyGzQ33wX2H8vhqT3hKaCc8IlwndBBuTxYtkH4X5VjQAfnDVbXI/LYWuDXk9MRD8ADIDplxBm4InHAP6IeFB0HPnlDLVsWtqArzO+6/ZfDNv6GyI7uQUfIIcjDZ9vuZGvYansMsilp/Wx9lrJnD9WYPj3zvn/1N9fmwj/reEluMHcTOYMexc1gz1gCY2DGsEbuIHVHg4dX1ZHB1DXmLH4wnF/KI/uGPq/KpqKTMpcaly+WTcqxAML1AsfHYUyQzpKJsYQGTBb8OAiZHzHN2ZLq5uLkCoPjWKF9fbxmD3xCEcf6rbqEZAAEzBgYGmr/qouA79+ARuP3vfNXZdMLXxHkAzq7jyaWFSh2ueBDgW0IT7jQDYAIsgC3Mxw14AX8QDMLAGBALEkEamASrLITrXAqmgVlgPigBZWAFWAs2gC1gO9gN9oEDoAE0g+PgNLgALoPr4C5cPZ3gJegB70A/giAkhIbQEQPEFLFCHBA3xAcJRMKQaCQeSUMykGxEjMiRWchCpAxZhWxAtiHVyM/IYeQ4cg5pR24jD5Eu5A3yEcVQKqqLGqPW6CjUB2WhUWgiOhHNRqeiRWgxugytQKvQvWg9ehy9gF5HO9CXaC8GMHWMgZlhTpgPxsZisXQsC5Nic7BSrByrwmqxJvg/X8U6sG7sA07E6TgTd4IrOBJPwnn4VHwOvhTfgO/G6/GT+FX8Id6DfyHQCEYEB4IfgUNIJWQTphFKCOWEnYRDhFNwL3US3hGJRAbRhugN92IaMYc4k7iUuIlYR2whthMfE3tJJJIByYEUQIolcUkFpBLSetJe0jHSFVInqU9NXc1UzU0tXC1dTay2QK1cbY/aUbUras/U+slaZCuyHzmWzCfPIC8n7yA3kS+RO8n9FG2KDSWAkkjJocynVFBqKaco9yhv1dXVzdV91cepi9TnqVeo71c/q/5Q/QNVh2pPZVMnUOXUZdRd1BbqbepbGo1mTQumpdMKaMto1bQTtAe0Pg26hrMGR4OvMVejUqNe44rGK02yppUmS3OSZpFmueZBzUua3VpkLWstthZXa45WpdZhrZtavdp0bVftWO187aXae7TPaT/XIelY64Tp8HWKdbbrnNB5TMfoFnQ2nUdfSN9BP0Xv1CXq2uhydHN0y3T36bbp9ujp6HnoJetN16vUO6LXwcAY1gwOI4+xnHGAcYPxcYTxCNYIwYglI2pHXBnxXn+kfrC+QL9Uv07/uv5HA6ZBmEGuwUqDBoP7hrihveE4w2mGmw1PGXaP1B3pP5I3snTkgZF3jFAje6N4o5lG240uGvUamxhHGEuM1xufMO42YZgEm+SYrDE5atJlSjcNNBWZrjE9ZvqCqcdkMfOYFcyTzB4zI7NIM7nZNrM2s35zG/Mk8wXmdeb3LSgWPhZZFmssWi16LE0tx1rOsqyxvGNFtvKxElqtszpj9d7axjrFepF1g/VzG30bjk2RTY3NPVuabZDtVNsq22t2RDsfu1y7TXaX7VF7T3uhfaX9JQfUwctB5LDJod2R4OjrKHascrzpRHViORU61Tg9dGY4RzsvcG5wfjXKclT6qJWjzoz64uLpkueyw+Wuq47rGNcFrk2ub9zs3XhulW7X3Gnu4e5z3RvdX3s4eAg8Nnvc8qR7jvVc5Nnq+dnL20vqVevV5W3pneG90fumj65PnM9Sn7O+BN8Q37m+zb4f/Lz8CvwO+P3p7+Sf67/H//lom9GC0TtGPw4wD+AGbAvoCGQGZgRuDewIMgviBlUFPQq2COYH7wx+xrJj5bD2sl6FuIRIQw6FvGf7sWezW0Kx0IjQ0tC2MJ2wpLANYQ/CzcOzw2vCeyI8I2ZGtEQSIqMiV0be5BhzeJxqTs8Y7zGzx5yMokYlRG2IehRtHy2NbhqLjh0zdvXYezFWMeKYhlgQy4ldHXs/ziZuatyv44jj4sZVjnsa7xo/K/5MAj1hcsKehHeJIYnLE+8m2SbJk1qTNZMnJFcnv08JTVmV0pE6KnV26oU0wzRRWmM6KT05fWd67/iw8WvHd07wnFAy4cZEm4nTJ56bZDgpb9KRyZqTuZMPZhAyUjL2ZHzixnKruL2ZnMyNmT08Nm8d7yU/mL+G3yUIEKwSPMsKyFqV9Tw7IHt1dpcwSFgu7BaxRRtEr3Mic7bkvM+Nzd2VO5CXkleXr5afkX9YrCPOFZ+cYjJl+pR2iYOkRNIx1W/q2qk90ijpThkimyhrLNCFh/qLclv5D/KHhYGFlYV905KnHZyuPV08/eIM+xlLZjwrCi/6aSY+kzezdZbZrPmzHs5mzd42B5mTOad1rsXc4rmd8yLm7Z5PmZ87/7cFLgtWLfhrYcrCpmLj4nnFj3+I+KGmRKNEWnJzkf+iLYvxxaLFbUvcl6xf8qWUX3q+zKWsvOzTUt7S8z+6/ljx48CyrGVty72Wb15BXCFecWNl0Mrdq7RXFa16vHrs6vo1zDWla/5aO3ntuXKP8i3rKOvk6zoqoisa11uuX7H+0wbhhuuVIZV1G402Ltn4fhN/05XNwZtrtxhvKdvycato661tEdvqq6yryrcTtxduf7ojeceZn3x+qt5puLNs5+dd4l0du+N3n6z2rq7eY7RneQ1aI6/p2jth7+V9ofsaa51qt9Ux6sr2g/3y/S9+zvj5xoGoA60HfQ7W/mL1y8ZD9EOl9Uj9jPqeBmFDR2NaY/vhMYdbm/ybDv3q/OuuZrPmyiN6R5YfpRwtPjpwrOhYb4ukpft49vHHrZNb755IPXHt5LiTbaeiTp09HX76xBnWmWNnA842n/M7d/i8z/mGC14X6i96Xjz0m+dvh9q82uoveV9qvOx7ual9dPvRK0FXjl8NvXr6Gufahesx19tvJN24dXPCzY5b/FvPb+fdfn2n8E7/3Xn3CPdK72vdL39g9KDqd7vf6zq8Oo48DH148VHCo7uPeY9fPpE9+dRZ/JT2tPyZ6bPq527Pm7vCuy6/GP+i86XkZX93yR/af2x8Zfvqlz+D/7zYk9rT+Vr6euDN0rcGb3f95fFXa29c74N3+e/635f2GfTt/uDz4czHlI/P+qd9In2q+Gz3uelL1Jd7A/kDAxKulDt4FMBgQ7OyAHizCwBaGgB0eIagjFfeBQcFUd5fBxH4T1h5XxwULwBqYac4xrNbANgPm/U8yA17xRE+MRig7u7DTSWyLHc3JRcV3oQIfQMDb40BIDUB8Fk6MNC/aWDg8w4Y7G0AWqYq76AKIcI7w9ZQBbq9euI88J0o76ff5Ph9DxQReIDv+38BF2+RbzeaiBoAAACKZVhJZk1NACoAAAAIAAQBGgAFAAAAAQAAAD4BGwAFAAAAAQAAAEYBKAADAAAAAQACAACHaQAEAAAAAQAAAE4AAAAAAAAAkAAAAAEAAACQAAAAAQADkoYABwAAABIAAAB4oAIABAAAAAEAAAESoAMABAAAAAEAAADcAAAAAEFTQ0lJAAAAU2NyZWVuc2hvdExgLhQAAAAJcEhZcwAAFiUAABYlAUlSJPAAAAHWaVRYdFhNTDpjb20uYWRvYmUueG1wAAAAAAA8eDp4bXBtZXRhIHhtbG5zOng9ImFkb2JlOm5zOm1ldGEvIiB4OnhtcHRrPSJYTVAgQ29yZSA2LjAuMCI+CiAgIDxyZGY6UkRGIHhtbG5zOnJkZj0iaHR0cDovL3d3dy53My5vcmcvMTk5OS8wMi8yMi1yZGYtc3ludGF4LW5zIyI+CiAgICAgIDxyZGY6RGVzY3JpcHRpb24gcmRmOmFib3V0PSIiCiAgICAgICAgICAgIHhtbG5zOmV4aWY9Imh0dHA6Ly9ucy5hZG9iZS5jb20vZXhpZi8xLjAvIj4KICAgICAgICAgPGV4aWY6UGl4ZWxZRGltZW5zaW9uPjIyMDwvZXhpZjpQaXhlbFlEaW1lbnNpb24+CiAgICAgICAgIDxleGlmOlBpeGVsWERpbWVuc2lvbj4yNzQ8L2V4aWY6UGl4ZWxYRGltZW5zaW9uPgogICAgICAgICA8ZXhpZjpVc2VyQ29tbWVudD5TY3JlZW5zaG90PC9leGlmOlVzZXJDb21tZW50PgogICAgICA8L3JkZjpEZXNjcmlwdGlvbj4KICAgPC9yZGY6UkRGPgo8L3g6eG1wbWV0YT4KaSnOqwAAABxpRE9UAAAAAgAAAAAAAABuAAAAKAAAAG4AAABuAAAyZvLOG4sAADIySURBVHgB7J3nlxRXlu1velMWEEJ4hBNICOSFWq7VavVMz3TPvOk3X99/97689daamZ43badlWq5lkEAGJLwRRgZBufTu/faJiCIpsqgqqjIrqjLuWkkmWZmRETfi7jhmn31iExMTLReNVTUDrWbDtWo116p7j6b/3KrXeb/iPao116xXvc80Gt7xt1qupdfN5u3zEY+7WCLhYskkj5SLxZPOxWMulkq7RDbn4uksr1PO6W8JPfi7veY7MT7HIxqrewZiEZCs4BPMwnda/K2mDwAASJP/AxDNUsE1KmXXKhdds1pxzRqvKzzr/5USzzz0vj7jA4kBULXOhPjAoqnRb8QABIAink67eCbrHEARA1zimZxLDg65RG7AXsfSORfLZJw9AzACmjifjfNZ/uE7bAdAAllW8KRHu95pBiIg6TQrK+Q9AYAsjAbg0JiacM3CpGsIQKYmXX1yzDUK465ZLAAqJfuckzXSkFUiS8W3RmR9AEQaLYEG/7dn7w0+3wQAsCpkjfgAAjrwGmDA6oinM1gfAg9eAyzxgREXzw/yLIAZdIl83sVzeuj1IMAzbBaM/WD0z6qZgQhIVsKpDCwPLXIBgQCkARhgURhwTIy52o3vXX38R1fntR6NsRsAyhhAMoXlgdXBZx3fNQvDwAKrQ9u925B1g5ukIWtC7oz3H7krnpXBHzxrA0vDgGRo1CUGAIv8kIsDGokhHoMjLsn7qdF1LrV2A38fNFCSZRMHoAyYZKUED+9Xon9X0AxEQLICTlZgedQBhfoYYHHzB1f3gaMxNW4WSLMAYJSxPqpYGrgwZnEY6AAeAh6zPDxXCATxQGQOIDGY8a0VAca0QzK94LX4mUD9TSBjcRRiJMm0F0uxmAqWTCrjgYwskmGAZniNS4ysdak1613qvk28N+J9xrd65AZFY2XNQAQkYTxfLHDFPQwAAAPFMhoAhQCk/N0lV7160VUvX3D1H67xPlYHrk2rJkvFc1HMFZEFIfeD+IYtTC3+W1DQpaMWQLEPZvFo/7Gg2iwaxUxixFMMRO7b6NKbd7jc9j0utf4B3B4sGFygRCaPm8TntP+2z13a1WizSzoDEZAs6XQuzcaUbbG4x8S4q93EZbnxA67Ld7z+wTV43ZiQ20L8owSAyAJRNsaxcM2E8PdBVsJtloOAZB4jsFLuaRH7lo5+xsDQBxb936wWLA2sDsVV4gBGYgiXZ819Lrl2vUuM3ofbc79L37/RLJXE4CifIbAbjRUxAxGQhOE0adEpZWuxjwYAgfUxfsPVsDjKVy646rffuNr3V1xj/DoB1SkvcGr77VsZ7YCx2OMxvGkDnQBYFrtd+74PNH6MRnGWGKBicZR1D7jUhi0ut22XyzywDZdnowGNpZMtjiJgBIjuCeCWZOejjdxlBiIgucvk9OpPnusy4WrEPwQe3gPguHEdy2OCgCrxD7IxFjQl43I7z8Nf9ItaYN4CV2Ymns1b8NOCucY78X9vUdtvm0kDpjbLRXEVpZaV8cG9SWKlJBSwVQwFMMng/iQBGcVRxFkxjooAJRqhmoEISJbrdJgVoiwMbgxgYdbH1QuudPG0q31zztWuXbL0re0ei7h7sQ4WNbETrc048YskAVBlU5RClmXUgnOi+ItZAksFJtNzfruFEmSRzAphX9IPbHW5/Y+77IN7cXk2uxTgIpfIYi3alyXfn+kdi14scAYiIFnghC3JxwlIKo1bnxx31e+u4rpcdBVApP7dFS8OQvpWFojiHzamF80SLx5ZB7hUsWwWC2CdLdzsgw+ZxVM6c9xcqmZxEjBhP6b3YUlm4NZG2i0Ue82flLXBOlIANrXufpdcT9wEUMls3M5jm8VVElhO4rFEIxwzEAFJL8+DAQgxkBrMUzItte+vugILtnL+pKteOWtBVfE9RAjzaOhdNuH9DIvSsWmyJ9ldj7jB/Y/Zvo3/7b9d+ewJC+oqnezd/QGyngzfUvFBRnyU1P1bXHrbbjew54Ble1IAnywoo+5HGZ6enJW7/UgEJHebnSX+m7IstbHruDFXXeXyeVe5dtGCqPUfCaKWcCWMNObT07saWPQXKgswRmYks/lBN/D48y4LmCRYtHKrxt/5vSuf/xq3Rlkh9qnXbkRgnZCK8lizpI2Jk6TW3I91stmlN+7Agtrm0kodQ3hTnMVSxkt8zqLNzW8GIiCZ3zzd+6dYEFYLQ+BSzNPK5bOuxJ2++NUxV7U4yIRzLFQtFrNCbMF2+c6vRdqSS5Njcd7nsg8ddKMv/SOLc5trQq0vn/rcjb31nwDJqe65NAuZUWV5mqoBAlSYH6WLM9v3u8yu/W5g18NYK5uNfm90/W65YAvZ3z78bAQk3TzpQSxEwVRiIZWr5+wuL0JZ7fq3rjFJ/MEWiNYrbkxXrZC2AzUgaXoLcucjLrfvoBt4+CljnYqzUjp9zE28/QdXvng2HEDi768FYxUmwopKUNOTWr/JpbfudNmtpIy373Zp6PdxZXai2Enbye7NywhIujHPduFDEVMVLlW21e8vu+Kp48QciIdc+Nro7V5hnLIlqjXpciyk0zFy585s3u4GnnrZ5fcedJlN2801qF2/6konP3MT7/7ZlckemUuju3wohueSCXxbyCDECLim7t/kMjv2uaFHn3IZYigpiG1iyEbM2N6esAhIujDfYqaqVL+K1VEhnVv+5iyU9vOu9iNWCNaJUqoiogZ1Kj2LPwjg2rI0GTI0Q0+8QGxkr0sNr8VzaFnWqHTymBt/mxjJxTMhAxLmzLdOWnLNAGFR7q0YEDJbZuuDLscxpTZAaKNA0DgxXTi/0SbvnIEISO6ck3t/h4tcloZlZG5ex/o46SaPvufKskJ+/MECl8aBgKexLEOxBngrCQrn0lt2uezeR93QYz9xWVkj1MFIXkDyAyViJONv/daVzp1kN8NijXSYMT92YuJJMGTTG7e6/IGnXW73AXN3kmR2PP2TZbD4Ouzuan4rApIlPLvGUIV3obRu+eIp4iGnXeXSKSyR70xAiICIb3Ivz4VtFHzcLdW35PY97vKkegf2PWH1LXIF9PcGkgPikIwr2MqzLCvV8nhWU8hAxbdOdAqljxJHniAFCza9ZafL7cFdg26fFtWequNodHcGIiBZivn1LZFGYcJVSe3KAil+8Ymr4NI0qJlpIii0bLGQtuMzLRNSzKkNm9zAky8RYH0CV2CfxRX0MbOmuMtXAMGxd37nyic/R9eE1DRxHlaqDyZtG5zPyyC+okXfteFloazqmP0XtT7HseUfegxAgXeybkNkmXRt7r0NR0CyBBMcWCJK5xaJL1QunIKxepl0701PUIiLGyS5t4W4BPsXbCIAksyWB93wi790eRZbhtiChIiCITCpXPvGTR17z5W+PgoonjQwFG1dAkRzDgEG4CELQfokdtwCWokq+TIHc25jwR8QkASPpkf1BzzSHGduz6Muu20PhYBbjSOz4E1HX5jXDERAMq9pmuVDWiC4Kw0kDmWJlM586aaOvMUd/awBiBZlGCyRYO8NSCCYZXfsdWt+8a8GJFIuU8Fc+5BcQYkMU+HEp65w9H2rA5pXbMdfzCbDKO1WpWGxZMylMm1YcUG6OXwwUeyEYGySDE521wHqdQ65QdLb6Q2bOR/3aFl1c7dXwbYjIFnESZTJX0MbpPrtJYsnyCWoXDnPHRxLJLj7hsASsUO0RS5iV8Pldu53a177VxbYY56gkHRX24YySxWOqfj1MTf5weuQ6M75C3AOq8r/DckCpKmLEadD4tPSTqnd/NF3kRRn6WKsRfsAcc0hExnLIU5NoV96806LBwlAzTJps8DaDjt6uYgZiIDkXiePC1YgIq5F6fTnrvj5hwYoynwoqGoxhW4umIXsty1wFpet4ZjLUVOz5hf/0+X2HqI0X9W0txe/KcDqZW++cON//S+yN19b2ljr8+68Em8R686fwwJIIADduH4NJbfLANMVtgmL915jLQs53uCzskzgnCRJBd+yTJ7GMtkUWSbBHC3RcwQk9zCRHk+kbPUyk5+/jzVyAvP/CvRyOCLTi7bLd17bbxau3YGDg+A3g+Bm8Jae2/YplkwAJA+70Z//xjIbnYBE9TVSaCtTTDj+t9dd+dxxE5NuVQm6mmswI+uk7Qf8FAoAM6SWB0jDKi1bOPGxqxJ0VryoWS6zf3NYNe37vdjXdtxkyrCMbrdMHsIyuT02tNif6vfvR0Cy0CuAi7OBS6O6GTFAdccuE1y1oUVsC1kg0uUxDRhYPwFQtPzfn/6bvw/B362pVcosktFX//kWkMyglJtaG2BSvnoBHszfrPameuUclP4xcEBB1xlAYnd++CnEW4yfsvsRN3TgGRTsJ61mp3TuBC6OWmH4xX8z96/LU+Vlc2pezGT3o17a+5GnXQZW7N0trG7v2OrZfgQkCziXgSVigVWCkeJbqMBN9SnenbYHd1tAwXrMSEOEXjHqH6P9qqPp2iwUbgFZ+2KdASR5Fvroq/9iGQ0FWu+oTVGNEBZG9YfvXFFu21efufLXn5pubEcg0fb5fArdkNyBpywGowLA+vXvjI9SOveVByLELZZl4fr7Z5YJAdjMDhi9j0PEo9pZlkrEgF3AIpjloxGQzDIxnd42xiq8kDILY/Ljt6wAr4E4kVo/dFxgnTaymPd8QDAhIvWJQSw5SfpWeiGVc18a8c2zTmZYJm1AEiceIm6FByQHrVmVgKnTqE/eNPet+NVRslF/pejwIsfZqTZILpaDTUpa+flf2EJVYV310lk39uZvzUUCQfiJGfvV6Ue78Z6O3wKwHkAK5AafehGeCeprFPwJTDxLshs/3h/bjIBkPudZd2jMctXOiD5eJM1bAUzEWDUVM91pZe63WwHz2e5CPxMAiVphwuJUOweLRdB7tywGLa5IDQ6IZBI9C0mLl2HfI1YAYOiuLAr5mp/9swkZqfTedFC9T972b0P6KfTPKZ3+guzNXwgsn/GPV8FkHxjYtm2XdG/uwf1u9OV/MPdGbFgBridHQLBWa3m5gEQ/7c+BAuFSr0+jwZKVDIHSwsyj2K9x+u9E495mIAKSecyb+BdqPKXK3bF3/oRLA+NT6Uz66fbEEgn20QcSa0QlQNhJ0PSnv0IceYORyEoERUtffuhqZEgMSMwK4Mv2PYrcMgBQfthlIWmtfflXLrtzHxkbgGQWoplcJsWDDBDe+6NVLzdpA+pJL/rkNLYdN6nGNS730CH2559MDtGyPjBjx/76//i+gAQkEZgIgLoNuMF8zXzWPmgn+P1YKglRbZcbfPoV5gM6PW6ZpB2jcW8zEAHJPOatDg/CWKunvnCFT9/FxD/fW0sk2EdbjCwErB+lbLPbH4Kh+vdocuyCNVq3xlmFo++SJTltqdZmIJGo7wVZlRHqbHwhoxxVv3crarOgK2CilhiTn7yNNfYZkpAXXBOeiTFdBQhsV1KN0gPJ4Sqomjh93wMAUIHPf4Fr858m5GRpcYKyywokmscATHiZXLPOZWC95iheHCD4msZNVLxIDdKjsbAZiIBkrvniwqvQU6Zw/BNXhOmpEnsFV9WPZTaXYK5N3vPfAyAxrwI9EfQ3hp9/ze6oSeIlDRipxSNvmvtVuXrpFm+D77WaNY86rjoUCvVGAaAc35/PqFKEODV9/J9aJbMdP6lcbVdtN/MHnyEbQiEgHBXxNtTcvERa/Obr/8HzF17RYtfU6OdzFG2f8bNMssSk+ypXb/Rn/0Q264CR6O4IPrd9NXrZeQYiIOk8L/auiFk1FN0rl067qc9Ig8KrqBMnkcJ756DjXTa2FH9qAxLFJTJYIkPP/Rw5gIOmDtYg3Sqgk4xj6atPiOF871kOuDha8NI2TREbUJBx+BlM+i075rVX6jdcvnjSFQi6msXz7WXv+GWREHNQvGHo2Z+5/L7HTK4xqUwSMaUSruDNNyC0EVdqErhtUVnckYcyr71Ywg9pHmUd+W6OxZoef4F5OWT1OSobMGmC5XLBlvBQe7WpCEjuMtPKWpQvX6AQ7zNcmndwHS7d5dM9+FMAJD4fxHz8Z181Pkia8nlpjcgNKZz4xE29/xfcMbIsspx8yyGBeFGGgKgsB+mQiJQ1nyGAkmC1Kae9/ycCu+f4mswib2SpIB59hTs6C1FNwoPanfKlM8SU/gjVHisGhqsHwB14KMGGevwcFDEmRtcSeH3YLLWBg4eJ8WzBe0QYOwKSeZ+RCEg6TFVLpi+xgQr9ZqaO/c2yFlI4a2CdmI/ftog6fL17bwVAoubgAEQOPsTwC7go8EKSxCm4z2JB3cQaQeHsjX93IspZIJU/GFUc9yeL1TCgB5W/aTRP5zOaFNw1phA8gjczQdC1hGUmRXw2btkOtbEYeYn9IPibwFVQgZ9GhVajk8fed6UTRy1QXaekoKfB6bkOzlycumnAqsDP+CXEeDLU5KgZl1i/0ZjfDERA0mGeAuKZamjGXv93S/feChYuY/VoACRkHNRgO/sgWZtXfm1MVbvocXeaLI4S2ZIbv/vfZkGoeA1TBSARYWyzF8uQqBHgIx7KfIZV7xLzkFjT2Dt/MGBtoACn7FFSMRdcq5HDP4OTsdvLAkk+gKHUcRHwKSJHUPz8IwSvr4YLSIKDN0CpmVs2iIatxJ4yiEoLnKMxvxmIgKTDPFmW5upFc2kmP3rT9FbNEpGpa+buLbO+w9e79xbxCGVJVFVrKmcECYcPv2Z30DhcEi1s1fooXXvjL/+Gnsgx2K4o1ddpcIUVldkE7+TJF1koj1MP8+C8F4ostCZZIVUBT3z8V1iuR81t0jbTbDO775AbZgFmUCaLIyMZZD28bJfm8XM39fGbVEZfsLCEvufNY/emakFb9ufVsk8EoOWiDT72HK7ftrtmtRb0G6v8wxGQdDjBXpbiiJelYdEsW5Zm5r75d84kZfDZLdvNEsgTJMxsevA2S6BksQksB4KjdZqSNysKDqdcBkq4sjxaKIqpzFeCUOAkS6dCkLXw+Qds91PjlChgqZiL+vMO0mArs3EbsQXcLj+2YFXEuIMitE28+3tziTzLDitpGpRnHuQy/D+w9ABiEfbyIuz9nBIC4ibGs/EtrGXYsxXzkxGQtJ0qq3otTZGlOesm4GNIs1T6q83ilJf9WG5+QQAkmNxZ4iM5LIGBg7pzbr3tzqkFP0mWqUjQVQxc6YGog56CosPP/YKYysNmjQRB0bYp6PhSQKKHmLyl01+SvSEVjmyCMjZKJef383j4cYu5tGc7miK0kfmSYtzEh1QRM591XKKWpBs1l8RYQjMEJv6Q1uvwT3zAjTRfg2m563MEJG3T0ygWXJWWEWKuTn3wBoByBvYq+iLLVWzWtm/2MgCSNevhjhyyKtbBR6B4q4q1bUjhrEjFrRTOihDo6mM3EEXeYHyTEaWLadnQST6gbRMdX9YJ5FbQXyl8dQTK/BuEXuouT3BSgds8gdYU+9U+pi0ZJCinPkVNXzKUkOUabCdUQVd/p4MsjooP87g2Aw8/uaBYUvux99vrCEjazrgnMUg7TdK9pRNH0F29yl1Xd6qQ+PS+L5/CAhkgfSvehvWkgQDWPmzBE88ocAyTf/uLq+NeZGCx6vNDTwau0MJ75cqyqVwj5iHlNLbbhCsSxFyyMFvV2Lt9TFsyAJsaklvQFUupirsVS6Q9K6r9C8v9WkCtdh1+LY70XgcPkQ6GJ6MY1GzFjcu922H4/QhI2s6C2KAT3MEleqw2EqG7cwrUeGS27STW8Xe4FRDAOsQ6PN7HFVc8fsSK5hpTU8QxnqLny5POs2A2tx31/F8GfBIBycT7/41n0zQ1egM0Ct9E5Oo0GriGKniUqzVO7U0FHsqyMIM77Vz7e/78qg5H1ctZOvgN/8R3BTm2+bqC7Zvsl9cRkHCmvdhIwWQBxlggunt6TEyyHZ0UwXp9degCZ9EqKxNHhzRLgHP4pV8atTtJoZk1z27bJ2/hXrOg6Pjb/0WwtWKtOQcIiqo+R13o7mVMb5eaG1kkApJBGLJq+ZnGSlIQuNNQOw59t4y7Na6iR+I2TWJRjrabXqxkmbJgnXZWc61AMFwdZW0GCCJbS9MFZLk6bXa1vxcBCWfYYiM3dMc8akI8CrbaXSmG9kYYsgsyuVUrk0LMiEKzLFmX0Zd/bQHXuDINfpYkuFhtwSvWQ0xi4t0/mhUz9ALtJ5StWUTwcHq7ZGGmCJ5qDEKNVzOqTpZRsD/2zAIV63b8ozdsv2q8lqsUxliJQNsIfIpFMWeyuAYfeXLeBL7bjrtP/hMBCSe6RhOo0vmvLThZoMq1RmwklsaHl4jPjEW6LNeFDySqlVFdSG4vsY5nXzFeSHuWJNi36QVPsdzUh28Cimk3gmyAfP7F6G6YPglZl/LZL90kgKAx9AxENIrdUnTvS9C8+26jStanSNZHvX/ERan98C0fD5E1Euy8H4uKo0CXpJJZ6e3RF/7OCHfBR6Ln22cgAhLmw0uXfmAxBS2SBlmOUPnwPpAkR5WtOUiqVXdIZWs6xzoCIBExbYrew1oQ4kUos7IYYPR4IdQfoS8y4QPJsIAEXROxQOeKIdh+UXMjxvAU31fNjum4KisWpuHHSgzjcG3zpNnX/fp/mYsTpt0M0770NZCYYJFkCqnuHf8Yk/vUl64u3ggK6l5nuRDwHIKLmrukJAIHSLeqFaUK9kwisMPV5PXbuWlktDKizco4DCyBaR4QzNR9T0HpmIu7keeoIobTIv3YoMamwy7ZW0GspHLxDKLS8HSIRdWh0TdJuxunJAzWX7DzNu9ycRqm7TqCYJOKHRVfijReg0m69dzXQKJiNFPywtwW87KMeyMlNAtsiiy17Be2l6Wxajz2RfyPkZf/0WIdSSp5RZXvNIJ2EgJEBVqlr5GiwnWxC2AaSADeyWMfELNJUWPzKqB2e41Np32afo8F6um7wBymuLBMvKU+hr5LJ3X66S8tzwvjlRAoTmH5WZobvkx7r+Tl2atw/mpfA0ldTb9hgRbJQkx9CAGNCl9btDpXyw4i7IN/V5QaWkwCPLgmIxIkgrp9NwvAlM1oJ2HFdpDGTMCHdOZiBXusxzG1O2qOPgmzVdsbfuanVuAWpzdwUGMz16Vel4A2Ae0C8gKa99p33yBXtgxCUXPsqM0fwt6K/6isIP+wAq9yKTfanPLPHFvonz/3NZDUCByWzn/FBY0YEHIBNZTQlkWwaLbrzYCEIj1AJCEJACl5HYaZCvlrzhoQfbd9LAEwqk5GjbNUfDf5xQe4f0k39BRAQgC4vcam/Wc7vQ7U+IsQ5sb+/H89uQN1/IOkFqoRxKYIct9Z26RgvFflHKp9Xqad6U8gYZHprq0g6xSkLVXJVgCUBkpgoeCNBBeDDyQS3sls3WOpyKGDz95RWxN8vNvPUoZvonJWgfIu+r14LVbrs3HrgoBkWqaBUgTJNKgGp8m2rV+yAV5IMjmaf6u2zhKPor4J/s4gFpiIagk4MzP5O92e/zBvvy+BJDD9peA1jkxAGZHiOjySZgGSVC970851ZfhAkqJXbRZx4gHMa/XtTc9TR2SuzS/074EuSQW1NEkDiEyW3w+/glqfhVgk9rscm9jDE+/9DiBHVPrGdaf0ss1/GFPCENTUA2dIxXz0TE6v3UAqfWChU7hqP9+fQELcQEHIMt3ybr5Fy01SvlL80p3Si42E5I7IZSc3XNkayQXkuYCzy8mwJHMkMKnS1a987iThJALA9IaRQNKCgYRjq6KgNnXsXavBqVxA+Z7+wKGyCINlb4BO1mzTdhprvWRZM9NzmaUkIPhaPz33J5CovJ1SdtXU3Pzj/7F2CaG8gKXNivuQpbZmEL6GMUgXwUxdmgu7ZQteAVcV5aUM2MgItemQzPd3TEENMJeodCn0Cmp11PKpCj70rAlDKeA9X4W5+c7HSv5cXwKJEaOoQC0i0DPxzu8tC+GSIQuesUhVberV1uxzI2izShtVTZyW2zdXSUENq4RIExkNrBHptBLbmEnVn2thBEp0BYlrm4LaxdBZhHYMPtM1QZwks40qagk5PSYhp61zHWLf/L0vgcTkAny9jgI6GRIvChWTlQWq1G+MNpgJzGdpoq5BpV1BPlusS5CBWcwVLhdQ2RuNhJqQ+2LPC91mkL0Rl2T83T+gCXs6xExXT+IygUi0qq5HVXKANEM0vBnoSyCpkuZVtkZFeuXTn5lql8dkDUk6Tz65sgX0h0kRyMyhsTpCkC+LJmoYhgWrFU9iiEtyr2lQj5cy4anT07aidOEra4iu7JAXqwrD0bIPOh9YJZ6FOGBlCmtf/R/WwsI7/ohP0pdAUr5y0U0cecuqUKtXziMZMM6FC4gs851+etkYf6HutcKEfp4HSIZMEzVEprQWl8Yi5ixg4Kp2Z+y9P1vwu0kPnVYV+QbbbkiC3gYkHK92B+6I2n+see03lr1JwC5eLNHP5nGF/9NfQKIFSsam9A1pX/Q0ynSAq+PrNwshq/XwiVApRIuykvvDJx+gX69K9VfTCHgp6mDo6cAcR0zqhqfpGooShbbZ9q0SWWOqLVqDRSIXZz7Fim1bWbUv+wpIvCK9sidghE8uIeMmNPlWhfoa3QEXcXdd0ivEBxIr0oM5qvYR2VXYZyXgpVhHvg8QhyZW0lARHy1RQ2Uh+ifXq72p2rkY+emvAPgnLJMzXzX+Jb1GQraxvgISK9JDTEdKXZIKLNObtlkstfFHQnJ2fCCRVujgc685KZvdTYEsJHu94N2YBhLcy4kj75iFWPv+smtOTYSST2JAgtslgB967lU3iLWYVvp7KGqk1VdA4imhQaaCkj318VuujIvTgpimCzpUIwASOtcNv4iymbRZl50/svQzNA0kUpn/jH45MIyrl8+ETyvXP/QASFIU7UmCUer5YhrPVM9f+pkK/xb7DEgkQixhHZTDRI2ntYIuDtdADzVMQ/44vniG4jxTNkN/RBfrXApkYTqE+eyLdfAj+6MewQWqidWkvHLxZOiBJLluvcupZEH9fATytK9YKIdmPvOzkj7TZ0AyibwfdSIEWSVeXP7mvJfaC+UZa1lQT0AirVUL6s2iPxLK3Z/HTnl9byievEYHP6qJ1fy8grupgGto9UlwbRKIG6kSO4dFMnBARZSb74nZO48pWjEf6SsgkYhRlRL4ApqhU2izVkkDhyrNGFw2BH1j0OOzO/a6kZcgPkFISw6vvnYI0w20glagQRV2aIGEZuzok6jthkSm1OkwT3+hzAO0Km3reRycxn567isgCUSe1QCrSA/b2ndXABKRiULCVwiuvKDGhjTjyIv/YKLNEZAEk7OMz4pd0UArqfanWxDhJiV/q/dyyEosejxNfQUkpmJOQE8d30r0r61LxTwMfWtmnvR+s0iuESOhA5/aZ1TQgw2rayN2qzGO0adN34+6/F468T0phbjdCF+HT+Ft5mXVzf/3F5AQH5k6Tj9ctUPgUb8hrVBaTix3c/A7zjDBVgKuMp9HER2WzN+qtkiUtTn6vtcbOIwdDoPz45PSpJWbGFmLej7Sl/RSzkj8us8Zrn0DJPLHK7gyhS8/sqCeNEjq9LMJY1DPajvEoNy+xw3/9NeWGViN6uWWtSFrpn7CBVTpxTSu0LO4QSzLWU+hkNWwGJComDLt4lRhG5D8RE3Z93v9gtKZAHL67rkvgOS2oN4XH7qysgNIK9YnfgwnkBiPpG4tJ4ZfIkay74lVqcgVKNVVrp4HSCCkwTSWjGN9EkJamGqfAlgIgMR6A9M6lWrsked/YcV7CsDGEdju19F/QEKQdVqjNaTZAa9lZM066aklpor2Mqhzzdake6VevOLwSKmuAjFw8gi8HoCkRje+Rthqn4IJ9oFEWrUxXJkcLo3XZPyRVel6Boc9n+cISELYTyUAktR9m0kvHjaKfG4nkoaQ0lbT8HRNSta5z4ooUUtrTN2kaM+v/g1L7VMw6RGQBDNxx3PfAkn14tdIBor4pP6+YfPFSTM26y6JiI788Nx+WnQ+CvFpw5Y7TuBKfmO69unMCTf+3p+s9qlF07LQ6ZEEkxwBSTATdzz3JZCURcW+RJqRHr/h9cU9YaPkfZtMRmCE4j1VAK+m4Uk2fk9jcZjG0iPBxXENMlZSiAvjiIBk1rPSX0AivsLn8BXU/uCb066BRRJeIEGRy5dazO561K156ZeWDp6zMdaspzp8f6hP0JCceiel45W1qV4V0xjrMGwuTTB1EZAEM3HHc58Bic9XOHWMKtOzAAntD8KcHaCXirRks8RHjOGKMlcCVqWagq+GUb3+LQrydDlERb588qgFWsPJ6/FnOwKSWS+7PgMS9VGB+CQgoRG2AUm3ma26+GwEzzPo+LPdff3vqeYmg0sz+OyrVnOToaF1Ai3XFT04NqV+y9IhofevLET1/23QV9j0X+8Ws5qez2AGgnnV/5nb2eYz+PhinvXbekRZmztmsc+ARFWmuDbcBb1g600v2No1Zqt/4dnFH1zwbUCii94u/Lb32k+RT8lObSB7c+g5lNIew73Z51IEYVfyCMSjJedwk96/plRXRaUO/szdXZv2+QxmIJhX/m/zqcD5LPMZfOVenyMgmXXm+gtIelllykUXS6cgKdEcW3UYqK078SaQEWzWWDQSUxLxLLg47dk/T1oHWhS81wJMJCGQgeUqqvzgwcN+798wUvtnvc5u+0PQhkIuzfibv6UNxUkOV+LbbfGRTvPBnJjuh4BfVgFzqh4/MXoS6f9ObTKKUyYe3Wr6oHPbLy/yP8G5iiySOyYyApKu8Eh0ETetnURy/SaAYJ2L0UTK1cqmh9KYhCvBHbhVR52tJmElytNlfehC1WBBxaYXlSjZWXNnpIEx+jxB1537jEW5UtXLawS51cOmQPFkAYEpte6MpWhrITDxe/rcPh8CEB88xCpNAh5p0dSHmVu6/EFXF1i3UKCvXr1gaf1WHaAO5tMmdQn+iYBk1kmMgKQbQGIXHOnboWGX2rjDesaKmRrnzlkf/xHSlQSni9ZvWD2Hm1V0YwUstRpMT/EoeE0MwbEYzHoBZNS608Sg1QN4D4rym7aaVmhMd2dzj2Y9x6H5gwhozUrJaPCFE5+aUp1X7YuLmfLAQeBocRJiVwIXBZbtvTRdB1M5uvrl7RHD0lOHv8TAsHPJhM1dlUZnlVPEW+iiGFkkvT3tEZD0AEhyWBJDjz1H6fkmI1uJFt4ESBr005FGSl3AgsujYGMdbouU7ZuY6Ho0uMs2SwBNo2pd9zJbdpsOxtATCOps2uEtMgWMV8CQW6d+vyUYrJMf/dWVqfQ1xXiA1wBDIKGWpABEnA5+cTJUCdw6qbTLKkuqYRjxocTQiLmMcawSuTSmxUtldwkt3uKx97BKvukOuEYWyaxXWd8AyXT1L0V7Jul37rhZB92p/vX883g+7xLQ2nN7HnUjZF2y2/ZMt7dUEyi1vawXxgGMgvn18u8bU2M8AA/+pmZRDQrYtNhaND2X4xPL5l168w43fBCmK83F1QtYd/OVMGSNyaUpoTlShs0q3REVuukRU+tPjs2ARM8q1Uf3I4FVZ72FZZ0AMMmBEUr2iTspNoI1pgpi9SEun/vKlO9Kxz+hBes1X2dmiYOuBiRYh7Yvgxb4Hn7+NZeDfbya0vL3ci31BZAEE2MyAmrVKd4CGYP6mPRICIJ2JWtDbEPye/juOTItwzQBl2UiUzxOr1wLsuK+mDK5iU8TWMWlaQIYTYuf4N7wWkCjO25LoCMLhviC7tB5til3KbV2A4uP+MsKGEGr1ArEQHXZE4Ck192PiyYLAyDxHxZA1dxpweo9BaoVNzLlOAWZcXtw5xRHkbtU/faiK6JCX+Scli+cpqp7jM92IRjtu6wWs5Lc4i7pkcA4pgpYwtz32gN5BZy6OXexr4DkNgLU15/anax7QMLcc0PUBZ/etM0NPvGSy+89hDVxlypeZXHI7NhDr1lsDWIKzSpxEyyYZmEKK4p4AuZ86r77PTMf01+LbSWM2pgsklP+MSQBRCw2uS5YHhZsxbKKAx4eCEi3FsAAUGYD+lYNqw6rrcI2Jz+kvcj5E652kxhUucx3FTvisZRDAXHAX3GaFACo4Pfw0z9zyqiZVSXA69PRV0Ai/7yIfy42ZYn2B7XrV7nWumWRcEX5F15ijYrvHqFmhuK7A8+4NLyQzsNziXTjs4yD7rgAircdpYIlPkyWh6HAbUwZjEQX999+aen+CYKtQVHeNFCIwRtkqRQ4tuCxMjX8tv+6017IJZRbU6IR/IRqdS6eNSvF8wGX2K3RDgjcVUxJrCazcYvFqgYef9Fltuwya8RAr9OO9sF7/QUk3BFLcBaKMCmLMFyr8Eq6cucKLhwfCBQrsT6+aHx6sZLd3oW3QoKkweGE7VkKd+Kg6MZQOEqQ9Tudzy4Cq1xR3M+E3Jptu4zXo0ZZ6Y3KyPnZprBNUo/2p6+AxIrELqPGRZFY0YrELvl3vC7OtswLzGxZDzkk+azh1R4/VtLH0nxLMeNqrDXJDaF04qj1w6l3WajKXE7czcTIGqt/yiE4NQDjOPPAVsI2XtxmKY5rJW6jv4CEvr+Vby/RIOsLVziivjYXfNdBvkQXh+/iKFYiUzhP57wM7QySCAhPm/Rd/PnVtmmLHZHJKl845SbUevXsCVe/+YNluuas1VnEZBiQEKtKriUTxznMPUKDrP30/yWtr1iYsW4Xsf2V/NW+AhKlVyvwDcpnaNn58dsmNCwSWNd7//q+tUzi9JadVnw39Lh4INtXFA8kLBd6A55NhSK/0kmdx7dcheK/ljJfsv4sptKdPZ0GkvUPeLVPNBHPU5GdWnt/X4OIZruvgMRqPBQnESHqw9eN09Aiwq8LhKnoztWnrVqshGg/LM24/GtSt0NPv2T6IilRvFdI1qV7EzTPLWseKSeo0o+oCIO1ePJzT36AIHovlO4CIEk/sIVq7Fes96+4QbIs+330F5CIBIZVUj6HtN/7RPkhMRnZS5Wnd8kOLMlF4t8tFdlPb9zKHe2wUd0VtFNRXjTmngFle5QKr0BqG/8YsegztBRBLFplBqSv/HM493bu9RMBkMgtFS8oT+/fzAPbPJr+vW50lXyvr4BEF4LIXuIdjL3/J6NUN2BbtqCgc0vr+oXopXRbFqxTd7YsQdeBA0+ixUrvWFUIizMRjVlnQC6NMjNlqPCTZGnUA8c0XmVRGmeki1YlOWW5T2rZqX5Do6+o39ATJsgtXkm/j74CEi1k8TLKV855gjpot9a+v+KaUNJ7CSQilMWyWS7IvW7o8M9hvOJn0+E+DvU7GrPPgECk+CUMVtK9ZWj2tZtIZRrrT9/pLogENwH9khTr1vz8N9ZEXCUKYuL2++gvIPHPdpA2FFW+egE1ebRDe+FjEyzxAoIWfG0YMS1PMV8enRGBitpNeFmHbi6KlXfJN+WSUtAowW4FyY3BeuM6DNaSP19LzGCdOUVyS5V50w2AQsH8rgMGJFlqqFQ4GFmSwPjExESXc58zz8ry/19UeZHSrJT9xMdohRKsE1OUC6UnQ8QmGJIJ9DQkDZB96FE39MQLLrsZhmR0Yd5xCsQPKV8660q09Cwi3l2lVqfZgyzN9I74QKJWnaqVyu15zI2+Sk9meEErScZh+ni68KIvgUQWSEXEtK8+dVMfvWH6GAYkvWKa+lkcFaOpAC+zdRfEpsOwJfdac+o4bk80MAIk+ER6XvoiJVL2ZdqsVi6e8S1IBVe7bIkEJ0HWiGpskDVI01soh+TlMC5pllR+NLwZ6EsgkbiOwKT49TE3/sZ/GLFJFaU9uzA197rLydUhW6SsjfglaUSeVbehQrZoMDtkaBpU8lYhEarBeBUOkNdAC9GnLvJF7ph7nweUgoiWhYiWB0gGyNikUb+LhjcDfQkkyt40EBcSMW3sL/9mhXxSKHMyl3WB9uoi9S0Tj1+yxqvohaMgbYtoxMiwERtBj6VBYZ563jRgJneTuTrrnPvnKQ0VfgAioYDEYloj62b9Sr/9oT+BhDtMEzARxXrs7d/b3a5BAZg4Cj2/UGWZAFyxFIE84jRWjk4pfTTQG5FrA5h4VcP0A+a89QzkZ54AzpP4I4OHX7XguNqnmszjzM/16f/7E0i4KCQsVL56wbIAJYr4qnASpE7W1erRWS8ywER+uEAlGv4MYBnqPDnmhdRuzwFee6HzwUMFlwL47I6HSNejdLeLdD1s1ihd758qnaF+zNp410jLWfYGLkmR6tFyL4SObs17h1feRRuBycyp8V1NngQoPR2+S5NA4jGzfoMRCAeffJlY1m5P7rGPhYxmnoe+BRJNhMkKtPeevXaJd3Xh6q89vmj1k/7oVYgm+L2wPi+7gWb6IzWXHF2LNbKX2Mghl3/0sFOsRIJSlvoN6+T1eL/6GkikhWqq5mh9qoivQhvPJunGW754j8FEsZIk2iXLCGI9vv7u+nNybFr15XP5rLYG/ZHUfRuQDHjaMjV5xKkkUmWSARHiT5+/vgYS07VQER/s1vEP3kDX4rj1A+5d0NV3Z6RNSq2Nevqq3cJ07UY/X6gcuzJpshrFalVrDp2v3lmKgJiCvdTWqO2HgqwD+ynSQ/ohSQV3NG6fgb4GEtPgVPbm6gU3+cm7lKUTdP3mrPWb6QnTtS39mwBAMnBJBg6In7DZM5v7FUgEIoBrHcV8ta6oQkKrXuG8wClhYnoAJrfiVXKvcrv2wWT9F0v7WheAqLbmdhTRGenXYGv7TFSvX4PlKsr8J650/GNK06HMT1PVu+jeGNGpRkaAfi3rN7rs3oNouqJKDjFNymm9Im62z0UoXnPgAhKVLog0WKKcoYzAsyQDekIcFHpwbqx3syjxnJc1VPuqWC+KjXS+QiIgYV7qk2OucvWiAcnke/9NLccFD0jUG8Wsgi6ByUwgoXhv5Cf0SSErEDNl9S79budrIVzvAiY1gKN4+kvA5CgAf4T/fwu46px0mRpvliK1ULgwma1e83bVQpmina4HuybCNV3LvTcRkHAG1JSqRmFYCS3X8XcgqGFOOzX31p3J+qN0aUHPBBIYk6MASWbbbl9MuMsLZrmvvjl+39qHqA0nNVHFLz6ifcg1MKSLKvG2P3JreMG5T6HFmjvwlBsA4HPijkCRj0bnGYiARNeM0nwE8tROcvyD1625dZ0K4Wa50N074AwgyT2Ea/McxWAAyXQz7c7nrS/e7T2QCER08yD4DbtYxZRDT79sLVdVV6MCy2h0noH/DwAA//8GwdERAAA6hklEQVTtnYlXVMf27wvoZlacR1QGFXBMYowaNTEm9+au+9Z96/3+3F+ma+IcNTGOCAQRnEVUQKZu4O3Prt5wbBtk6IYGq1xtN93n1LBr7+8ealedgt7e3nEXilJg+NlD13/rdzd49y833H7HJV91O1dY6FxBgfzOK8tlbMyNjyVcYUmFi63f7Mp2H3BVR0+70u07XUG8xBUUFWW5waVVXaLnuRtou+0G7v7hBm7+7hLdT1xBYdzPSS6GMs58jLrC0nIXW73eldY3uZWHT7nSHbtcUXmlzkkuml0OdRYEIJmcxmTvKzf0sN0NtNxwA9fPu5HHncJYY86NC9bmAkwCkEwSP8OnhQaS8dFRN54cERBZ68p2HXBljQddRdMhV7xxi4B6XEBMlEooGSkQgCRClrGhQZfo7XFD95td35Vf3XBHsxvte+PGRoaFicQ6KMgyI6UDSYNYJMe+8xZJDMYNFsnCWSSiLJiP0YQr3rzdVYolUtH4mSvZVudiK1dHuCR8zESBACQRqqhGSgy74Sedrv/GJTd474YbetDiRntfu4JYcfZdjTQgKW38xK368h+uRFybQnFrCrINXJGxLoWPC2eRCIhgdUrB6iita3BVp/6vupqxylXiepYuBXItah8DkGQgf+LVCzf49133tvlPcXEuiW/+SBgslvLNsxgrSQOSMgGSqhPfi0WyS0CkQF8ZuvfRfLVgQAKISHyksLTUxVatdaW797uq4/+S2EiDKJDg0syE4QKQZKDS2OCAS7x+6QYlVtJ74X/dUGeLG0+MKrNlNVaSDiRNn7pVJ4SBCbZqTCZD5z6irxYOSAiyJl18zUZX1vCpK2866MobDrr4uk0yDxZs/4gIP4ehBiDJQDR1cSQuMtTZ6nov/egGZeWAFZyxgQEfdM2WkOsqQdIVFpe5ojUbXGkNqwQnXPGmHRl69RF9pUZfgbiUPW7wQatYh3fccOsNh6WolmHWXL6USyOxqIJ43JVKPKTi0ElXtnOfK9lY7YoqVn5ERJ/fUAOQZKKfmLosAya6n/oVnHt/uSGxThLdz7MMJMLIYpUUFMddoSwvxtdvcsXbdrqilWsz9eqj+U6tMYkRjQ2+dYmXT13y+WOXeP7IjfX3R5bjs0CO1HJvUVmlLr+X1u9xKz45JjGqelnuXSkAX5KFRj6OKgKQTDPPowN9bkQYePDv2+7tHxfdcFebG5WVnfFkIksmr9eIrM4UFBe7wrIKV7iC4F7ZNL36CH4SiwOasBQ7NtjnRt/2iTXY78ZHRjyQzzunJ2WJpEgZW7dRckb2u3KJjZTJq1j+9rGRj3vVbDacFoBkGmoBGGPDg274UYes4kiiWutNN/zwb1kSTq3iZGV5VphaBKOgSHxxVmqoM+QrKE0kKJVakiW/I+ljVPMGEak6ZYkUFMXEEqzQVbIVh74Wl2avxEnWK6CH2Mg0gpHhpwAkGYiS/pVfxbkjqzjX3YAASuLFI7kErSnOfDYT1VIMDqOHAgVYuRKAzWp2MeAkruv4qGarxjduVSsEICmtrlfLEIAJZXYUCEAyA3qNDbGKI4E/Cbr2XvrJDXXIKo7470T61YLIVvBPcxneNbtn0L1lfEkKqFPB1/kPNEVbeaPEJWO1Yv9hcWkOSKC7QdPi/Xxqg/6i8P+MKBCAZAZkIvCKmzP86L7rvfqbG2q95RKyL2e0vzd1NwzPx4ViQARCWoulYivFpa6gpFz+zlNNyjL3aFLdRAKo4yOJBaYXc2MgMi4rNMWuaEWVK9mx2608dMKV1Da5+Kp14tKUc2Eoc6BAAJKZEI1VHHE3km9eSYzkvgZfB+5ek704D3RJOOuWyYf6lHKBioTxi9dukBWHLS6+ZYcrqqz60J2L8vvY8LAETHsFfB+5YckUTr7pya4l98FRTYIISiHOUrtsRyjftU+XeovXyV6aEjZJ5ikQf3B8i39BAJJZzAF7bljJGe782/XdkFUccXVGRDjG5Ds2dUle+yxqm8elqUS2mCxRlmzZ5kokpbus8VNXtHbzPCrN3a3jAyzjPnODsndp4PpFiTE9Xlh64TISd5L5YUmX/TOVh75ypbv2upIN5IusyN3gP5KaA5DMYqLNxUlIchpLwRp8/VN2CT8TwZCEpkn/OscuTgpI2NoeF2ukVHx8trsXb62ZxWgW7lI2Po487XQDsnep/8oZBd+c7F2aakhmwVWudMVbalyprM6s2H/EFVfXuiI5MoCl3lDmR4EAJHOg32Tw9ZbrI/gq2ZfjI0MSB5A0ei0LASSSESv5JkXi25dJOveqr/+PK5OAoW51z1bm7Rxok37LuFgDydfdEqC+597KuSJvr51NAS+bIBfAlcAakVUfLBEFXTkaQF2aOomLyJkjoWSHAgFI5kBHDRxKctSILAMPtPylG/xGRFCSPS88mMC82VwWTu8j9Yuvr3knsjO1vH6fW/3d/4ipvl8EZoEENL1PGf4GRHiNSGbq2ztX5cCo65Ih/JduN1ArINeu4IQlUiWWyA4Jqja6yj2fqVUS08S/sKs3w7TN6asAJHMim79J4yUiJGjbgdtX3YgkqyVlmXh8aCjLuQ/pncTnt9eYLF02uqpv/58rF23rBSQ/MmNxBUcTCTciCX19f/wmmyBvuoQEqEf734jlJNZIrhLvjDZSPy6nt0Q+EUtEslclDZ6ks1CyS4EAJPOgJ0vCo+SYSCBxRGImA5L5OnDzilgqT/3SLBpXc0xy4eqItudELzmIp0T8/soj38ppXnIQz9YdCibzGFbWbh1LjEhwul+Atlnyb35xQ7LVgKxgD7TQJhd0Ia7ql+vZQxPfJMHo+kZXsfewBFnrXVwOKSoqzQ+gzRqh86CiACRZmAQ9duDVcxWU3sv/1V3D4yJETnInxiWL0pfsC40CCUcDioYtE5O9vAGte8AVy+a/xT5HA5eG/TEjskIz1HbTnzjX1S7HMYwITWQFJSeuX4rW7NXBElm7UUBkrxybKMu8Yo0U67EA4ZyXLLD8e1UEIHmPJLP/widbDelO1cH2u+rqDEv2K5bKOJv8BFByYpmkYgBs9ovLRjNiACsOsnt156K6OBYbYZl3iMOhZLVmsE2S+F7K7mmS9hRTswmsKTcvNXVFYnUUyxIvCWflO/fIsQzb5bjENXJwUZngVzbbnT2vLNc7ApBkcWb9as5LvzQsKxTDspqTFDBh9yr7OxwKE0bOGjN7AWLZmd3DnDVafuCICI+cpyFLwXrWaE40//REG1OXTzY7ynkub6+dkbNEbrthOZJhVLJas3ueiPTD4iHyrscxCKiyxFsmbl6ZxENKZYk3nLk6/Xxl49cAJNmgYqoOb5kMS+bmS8mbeOAG79+Tc1//dMOPO/UsDX7P/vZ00EmwSTYQqiZGiMSMrzx4VIFlMU4/T0owdfixjF+2Erz985xkAHfIAdoJAdOUS5MtIE1ZZAomgtLx1RtcieSIACBlpL3LXpqi8hXhXJEUf+byLQBJDqirGbCSEj4sj7bgOTlDAijJF0/EMpGDeRAmNU2s4WyY2lgmHJAke0jIdhWTfsXnkrkpeSXsKVGTPpePUxBrgC0E47JCMyb5NCz3ssGRoyoH5WSz5KuXAqAsS2cp8xcrxIqAEkve5NSUiPWBRcbzaEo2bgsnnBmNFuA9AEkOiKyrBhJUTMqmvkTPM9ns16mPuBiRTX960heujoFJtlZ1EC6xSnBzYqvWSNZmnQDJbjkRXWIEcmxgLvMm1BKTvJqknHM7/Pi+G+po1cAz2ay4dRxINJn1Ox+CA5j+BXCRZFYo+4uKN2x1JYxVVmWKZdUKy6RIXBw254WyMBQIQJJDOuvKhVggCUlUG5Yg7KA8vW/4/h0Bk8e6ExYNrrETDUBmIXaipr64T2J9FFZU6rJwmRwoTcZrXMFktU/lt0ddzNnFSAmzPlAq6Ubl8CdNg5fHePAcGpZ7RzrlNDkB0qxZImqFpIBE80PYwbtKx1UqFlhF0yeadMY5q+GIxBwy9RRVByCZgjDZ+lrBRFZukn2vXFL25HAi/ZAIGclrnAHLCWwsh5IuPpnePkd3J6Wt1TKJx3QzGkugcYmblErMoGSzrF5IWnhMhK1AtPmcXQ3pL1bI6JBsxpMd0Zxty1MJhyUWkpDkM6ywMdmop0dSai7NHMdjk6AAiUsodJJ/uGvxTdUyrlpXJo/TLNksuTOytBuT77FC1Pqxe8P7glAgAMmCkNk3wlb64addsprRIkuiNzXjk8Csnk6Pq6NaNyV0c7YWaIu6fGCzQAAlJo9ZKNkhQLKtVmIHWxVM9Fm2ElcATCZADE2vrtYkUXAhNK6j3SPRS17yEDGeSgg4jkjshzGNdHm3bVROeh8bGRRhlszVtLoma53BJ6VF6jqhBcFkAtWcGRJft9kV1zbIYzt47ZR8kQ0aJ1mQvTsz6PrHeEkAkgWcdZKxWAJNymMWkqLFh58+dEOSpMUhScmep7KyI/EEcXdEZkVw5IjB+QoimEQwUh5Izin1RbL7FXegSB4CFeMck6o1+l2MlQ1xhXgshu5iTm2mw+rQ/nAIMy95HEdSdvKOYl3JmSLJnm4HcCQlW3VMrJPx4SGxsIYlEU/2AQGEcwXDCQtElnTpP+AhcR8FEIn9xDdtl6Q7WZGRDYtYITwJT62r+dBrAflgOTYVgGQRZlWDk8Mj4gJINqzkWgxJen1C3nERSCkfl3NPxkfFEsAaAFUocxJMNSOkGqwIicdIHWh1XAN1BXBzBExiK1fpy1spCKXfVk/6vQcHAQjpkwaP5QiFUdnNy47eUQmuEhuh7oK4WDYTVsgcXJmJGAiDpd/SXbGmWHGKC/AVb5ZUd7E+Suv2qVsTYiHQKX9KAJLFmAs0rmjtMdHgaPikAMrIM4kxyCFJiafyEkBJEmdgxUPiEQoAGkNhfwodnoWgpuIm6qKIdOK6qNUhWryQIxrlVSingxXKUY0sozo7V0VaAYAcFpIkmOmjIcTaAFDoN+6NAh6/y3j8qetYUbPom9Fe+qhtAXjEi3BhxEqKr1mnyWV6eJPsmTHwY4lbYyHZWk62foT3OVMgAMmcSZe9G0f1EaHdenIYj74YJt7wqF3yLyTeQDCWRzGogCKkZqJY+7MRXG+hEPNQYMHioQAuWBPES2KTcRKuGU/KNazOyEHX8l/qerFscCMm3K/Z9IEqvMWhlRH7MGDkswAmKf9Fq9YLiGx3ZXWNkqVbq1sAOEoy+wl9fkjh//lRIADJ/OiXlbsBChK5cGs4mmBUjiLgCXMEMhNPHqoLRFyCFHzdDIiloEUEeAJgZtiVCRciIszUMfGSj6mqFLL4L2XV+GCw/M0F1q6+p2744FuqTQBKXmodyYHVhWVlLiYgwQO81eqQlaaYAEmMGIhsSARA2LFbILGeyZWtDzYWLlhACgQgWUBiz7QpBRWS2cTFGZT4CQltSXni3ygrPBKs1dPY1N2QYOiEkKfVrmhgkJD225R/IuipF9cYuExAy5Q3pv0A+qRK5KMBkIKBPBeosEQyUuUBVbEqyQeRJLJitvyz4XC9rCzJxjssk2CBGCHz+z0ASR7Ojx4PIDEIzjohqUstFFZHZLWHQ4HIIE2ItcL7mCwpExBVQJlwe1Kux4S1IIAyU2BRiyVClIk6It+99xHw4csoavCdPyHNvtdEOVmBKZQ8Fg3yymnuHHkQXy2Wx0pZfVkhgd+qtZr/ojEQiZVkJyP2vQ6HL7JMgQAkWSZoLqozC4VVkzEOUu5+4obksRhJCc6Ovn6u7pAu0xLL4MgCArQUtS5MjPWL1B8m+HrV/P5LAxrdpi+xDpLiNPYCgpGfIvGXwlKebSwujKwWxTdskdR9sUAkDoJLUyiHMJORGiyQ+U3HYt0dgGSxKD+Lds1CYXs+KyUEZ8ewVN6S0yEvrBTJ5Uj2vpHv5W+xUsgsBYA421XBReIwmhdCjgffqeURtSBm0aGJSwnSykoSD+piVUniHQoE7IFhNYigqeSvKHiIq6LuCvGOyhWyF0a+l9WXokrJb5H8Fa2D4xCykQk70b/wYaEoEIBkoSidg3ZYlp1YQhbXh8dk8JxiXB5yPMYGJScF8NGlWnF/yE/hhDJABavFLJdZ981bHBrrYFcxaeksJ5P4JkFRrIsCeVZMEfkpkqeC6xJfKyns8pllXdLzC7FS0qyZWXcj3JA3FAhAkjdTMYeOsIwrrgxno7JMTNq6vmOxDPULkKT+5lEZ/E4OCNcCKMPkf4gbROLbO7GN6fohAFIkAODEcpAEtEIBEHVHAAbS7TU3BSARUMGNYaWF73hshsRGCuKStwLosMwcQGQ6Qi+53wKQLLkp+3CH7RgDBQ0J2I7JqfbjCclHke38o/IaY6+MJJeRZOb30czQxUH4xZIoZHdxMS/vwujjLuMCICS2yXcABp/D3pcPz9VyuSIAyXKZyeg4WC3R2AjxEYmJsGdGEso01hL9HtdGYyXRmz/wOQUmuDV+w18qPqKPl+Az30ushKzTsPflA8RcPj8HIFk+cxlGEiiwaBQIQLJopA8NBwosHwoEIFk+cxlGEiiwaBQIQLJopA8NBwosHwoEIFk+cxlGEiiwaBQIQLJopA8NBwosHwoEIFk+cxlGEiiwaBQIQLJopA8NBwosHwoEIFk+cxlGEiiwaBQIQLJopA8NBwosHwoEIFk+cxlGEiiwaBQIQLJopA8NBwosHwoEIFk+cxlGEiiwaBQIQLJopA8NBwosHwoEIFk+cxlGEiiwaBQIQLJopA8NBwosHwoEIFk+c7ksRuIPpX5/KOFoxvdpkk/fBCDJp9n4yPsyJie2jfJIjbRT2wAROyyazwFU8o9RApDk35x8tD1Kyun2w3KWLO9RMAFE4vJw85g87qKI5+PI36HkFwUCkOTXfHyUvQE0ePX29rqHDx+6V69euZGRhFonEKS8vMytX7/erV692q1cudKVyin1oeQXBbIGJMYMmKdRbTLT4Zq5aqarvc/0/nDd0qUA/ALfPHnyxP311w3X1dXl+vv7XUIenUFZs2aN27Vrl9u2bZvbvHmzq5SHaoWSXxTICpCYSYpGefnypRsclCe8zaIAGpisxcXFrqKiQl7lyiwlPNIg+MSzoOTSvRQwAUAuXLjo2tra3Js3r4WPhnVAmzZtdAcPHlAw2bp1q1uxYsXSHegy7XlWgGRInpsCiDx9+lSZoKfn1azIZT4wILJ27Ro1Yzdu3KgMg18cfOJZkXPRLzbr1N6tQ6YUpprP+/fvu59//sXduXPHdXe/dAMDA3rr9u3b3LFjR92ePXvUKsG9CSW/KJAVIBmUJ7rh18II16//pSaqZyI/WD5P5/J4IIk5LJAyeSIbYLJtW7WasZs2bVK/GIsFRgwlfylgwIFi6enpcW/fvp2IdbAaQ6xjw4YNUyqIjo4O98sv/3V3794Ry7ZHgGRQ57y6eqs7cuQL19TUFIAkT6c/K0CC5uju7nbNzffc2bPn3IMHD94BDhgs07Ke0aRQnlxfKA+PBlB4rVq1yu3YsV1M2Z2ihfYKoGxSkME6CSV/KWAKA6UCKDx//lzAZMABLIlEQhTEWrd37x5VECiN9Pns6Hjgzpw5IxbJXQUi7oMftmzZ4j7//JAASWMAkjyd/qwCyb17LeLjXlAgGZVnysJYRfLktVgsLpH2El3CgzHSDYtEIqnah+Ca3KIMhh+8YcN6V1NT4+rq6hRUCLqFkr8UwOokXvbkyVMJml5XPnjzplctE4AEQDh+/LjbubN+IgYWHU0Akig1ltbnrAJJS0uru3TpkjBQpzBUQikBiBBlX7NmtQZRM8U8MIGxaHp7faSepT8Yj2U+wATf+NSpUwIqO4J7k8f8hdXJvOHinj17Vi1UYh19fX26AoNC+Pe//+3279+v/FBWVvbOaAKQvEOOJfVHToAEhkAz4bKUyhPpCZzipgAKrMwQ74gWYiwwHMt/XV3kEfQI43F/obo03Pvtt99q1L6srFQtm+j94XN+UMAsEhTJ+fPnBUiaxb15oUCCYqmvr3f/+te/3L59e9V9Tc8HCUCSH/M4l17kDEhG5Kn3sViRBNZWqmtCsAyLAi1ElmK0EGMhOPf333+7q1evKZjAeGaZEC/57rvv1DLBvSFoh9tE4d0+87etDPCZEv09+lt64NbqSH/3tfj/p7s/eh2fo/XYZ763Oqx9frMXv1ux3+16+97qms09du9079H6rA27PtoXvrO/7XfeuQcgwSpBGWCZAiTPnj1XIOH72tpaAZJ/atDUEsui45sOSA4fPuQaGxtddXW1Bt+j/bV+ROvK1Ee7Lv09Wlf62LnW6kp/n6qe9Do+1C9rf7b30b7dk/4e7Vt6v+3v6DXz/bwgQIJPfPz4l8pIBNnSgQRzGKvk4cNHsupzXQClXTTZM2FAXJ2E27p1izt61C//bd++XV0kUqnfvHnjXrx4oclLMDHWDsC1cuUKZTasIq8RewWURnRFaOPGDaoNo8E+2gDMMMGpk75wL8xPvVhG1F1eXu6qqqrUVTNAjDKJTQb3Tte/qqqVmqXJ9QQmiSP09fXKPT4BC/qQS0OciGxO2o3FYtoX6qWfLLG/fduv47I+ch2BaoQUd5IxTleMgQlq0o/+/rfShyHtO/SyeqmHpXn6YwBAf6ALBXpx/+vXrzUN4PHjJzKHbZIO8EzpOTQ0LHWNi2W6Xt0aYiUlJcUytjU6t9CU+jo7u9yZDMHW6uqt7osvDqtFiiKB5tHx04fo/NBPaJHOZ1wXLYyPuWLu6T90tcCwjZ16S0pKdT6MBtAjuooIHeEV+BW+JRUC+hEnpDCX69atl7mpeqdfH7qPOczErzYG4zNCA/Sdd4Lb8DNFyDRh1Vvf4Q8swWj/rb75vC8IkOzevcudPHlSg2xMDEyTqRDlv337tiz/Nat/DUgwQaRHHziwT1dwiNxDYCbr0aNHmnPw7NkzYYhR/Z7MR4AHZoUp7ty5Ky7TYyUwQnngwP6JyD8EZTJt1QnXihRtmHRkZFiZgXrpL8zAqgMakSVpbxmVZ5wQ2p2ufyxt79ixQ0nACheJWLTd29un3yEEtLVly2YF33Xr1ikowDiWrwPYvnjhV0X4HuuP8dVIcJqkLcsAnU77ICy8ECL6geD39r5JMeWACpm3Kgl8b9BxQ1faQZhMULmfuEhnZ6cDRJg36plc/vUCxbjWr1+nwsRAmafPP/9caQFfoEjOZAAS6HX06BEdG3WQ9RodP3VF54exI7h8N11B4ABm4nP0nzwoFAn8EJ33qqpVUt9a6fsGFWyAj/6aiw6PUhf337p1W/nSj90rBuavsbHBoQT5zBgo79/3UPkUEKIQEkjnV/0h9R8ADj+8eNGt/IP8kBBK/ykAfXT+vGxsnZg/63+qunm95RWQQARWfkhIunnzpjI2jA6Q7N+/T5cOySUASGBec4UAFA8kFZp/wmShlWC4tra/NSdhbGxUBHOrMmR9fZ1qVkCEehCgDlmuRJjJX0DTM8m80KRMSDwOmFTKJKzS/gAmCBWvFSveTdk2DZ3ePxgbIUfLMCYYhmuePn0ufUWL+bgQkw/IMQ7cOtrgM9ejtbsEeAA8mB76iO5RhsFKgslJJQdwaQtapVsm3GOg9PjxY2V86u3pgQmxSFiuTWrdxLm436wjAIX+0AYBdH6DhoB/S0uLa283enuQoi1oSIFxGRcreaOjSRGsHe706W/c7t27VbgAoSiQIOTQAoHas2ePWlveeuqZAF7qLyjw81NZuUJzkAD7hobdCqYIrQGedkL+Q+iph7nu6uqU8T8WAHys4+B7aBOdd+iKRmcOGDd0BQShCUBNH+grc3Lt2jWhQYdaZ3xHIX2B5eudO4kTbtC6+B7+4hrm88qVqwJmHQrAZplC5yNHDut9KBYDIPoPWKBA4W/6jjVoVgkhAQp9i84fdQAm1dVbdRxYJ1HLUm+a4395BSSm2bBKiJUwwRSCtPv2YZE0CZjs1YlAi8C8v/76m2oTJgWBRvBWrqySu/wmMAJ/mOwwExMJ46IdMNEReDQR4HX79h2dEL5joiimzQEcCoJAPUwIFgXC+sknB3Vy9ILUf2bh+P79qgxC/yorK1QIsWZgTCa+tbVNBLhHLSMAy7REdDxoMtoDSG7cuKV9xoRG4GOxYu0T93E/BQ3+5ZfHNBZhlkmqa/qGoBjj40q2tLQqrQEm2vXC6ZP/GLv1iz7T9/r6Wvfpp5+JhbBD6fjq1Wtd7r1x44ZalDB1eXmlau1ou9QNbRlHMjmiwdf//Oc/onUPaD0sG0eBhOvQ/IA34MB8PH78SNyH5yo41MX4jWbMDUJfK7GYY8eOKEAh/CaA1hcS3aA5c8/4eY9m0nJddO5t/Mw7dTPvWArQlt8YF31tb2/XIDP8FK0POp04cUKDzCggwJ3CPHBfW9vfE6tc0A4epEx1n/EXwH3x4mW1JqkHekw3fwAfoIyHALDBVyiCqTwE7cQM/8sLIIFZeZlrc+fO3dTSYbcyNYNHYPfu3aPMAbPACM3N99y5c+ccQTqIWFwcF428SohTrPVB3L6+fvk8Jt+V6srRaQEStAqChAVy48ZNub9DtdPAwFuZiDEhbJEKOvUUFcUmtDf1gSkwN0BE6jZCUF9f947JykTTPwM66kc4uY/JxDJhDDCrCRYWANpwaGhQmCuh19M+4yGmgvagWAyH+tDqaC/PREntJ3RE2Hfv3ilauVHBFy0Y1TwG2FhDLS2tapJjijN2hBKrgT7SP+Ib0ApXz8aORYUVwUY6XoA2wtPW1qoWFiCPkGAl0k+0O8VcROgLwzMPX3/9tdaBsE9lkZDtDN2gB/fZizagGTSAjrRFG7hP9Is+ojSw/hgXtOEeAsC4IIzfu7I9Wg99ZOz+VaLXW0IdbWKVYvEB6p9++qksItQqrZlXaMQ8nz9/QS0zrB3mksI4jx//Uq2qTEBiANTS0iZW0WRfEHRCAihQ5hChZ66xRJi3NgGgqAUIXVklpf/0FXpE+48lyO8AYFNTgypWABregj4GntrpWf6XN0DCoHFRfv/9d432P3z4WIWGCfSm4ecKJGgECEUcA0S+cOGiTmAyCSN5hoVhqA9twSRzPSs9MNc335xSi4K27t69K/dfUksEbQbxY7G4WjYwI2BRXFyiGgJNiLZAyG01CW0Xjd3wNwWNQv/u3bvnzpz5VTVGdF6YUECPCcTdgkEAH+onOMznTIWxGKgAFhQAi/sI2MLMjJvriGMAJiSAkb/Bd6Z5MKXPnTuv1gNmMczG+KET2pJ+MX6YC2uD+nkBNggsIIPZjXV44sRxFS7qhKYIJoxOv7C4oJUFHal7y5ZJjYxQffLJJypo9G+qGIkxOGCDdUr/+AwovHjRrX3DjUXIGD/jgD4NDbtVgGskbsT44AuuAfR++OFHsQZbJ+6BVwB36uaFFQTvResHtBg/mwiJ7aDY4Ef4hO87JoCkVfvE9ZTqalzqo2rJZAISLKKLFy+pdQqd7T4U1cmTJ3S1Ct6ij8REAJ7Ll3+X9/tCY1zihP6GxTgdfaz/WMZY7qyCffbZZ2rtQR/me65lQYDEVm2YUCYZgkQLgkd8BMsC87ir66ESDMFgMkFNCAoyMxEMOBOQwLAwCwwBIyFMMAUMXFISF+HYIGCyU+u8deuWAhauBcKCkCGkCAhBTvxgW01AgLBeEBb6yPUwLFoSbQPDHjx4QPuJQMBUmYAEAInHvZDDJIwFTUPWLzumnz17qlYWJv7gINH3pGoJ+saYYCbMXe5jXBQYD+Ftbr6nQU7GDyCWl1eopQSQkL8BDfCXASk08dmz55RxEUATPupHMBg/8Q+sMeJF9AfQ5p37mT+Ex4LoCAoCCp3oD+AEXaEZFpRftRlTAcSyZD4BT+iLdoSOjHGqVRtAA7eCfqGl2YvF/Vgi8A0Axpj47K0qQKFcx/3111/pnEM/ricgyrI0Coj5hF7ekq1Ss5/xI4zEwwAq6uzqeqjjx9KCH6E9PI0g4uJg8UBDgs3eIpk7kADACDzgibDD97RjSorfvUtzSXkRXmNeGa+3NBpV8UIf6E6foQ/gg7vFPMGjrCAxhiNHjqii8TJSEhXLWX1eECDBBDxy5As1CRkgTBMtEAfGY/s4WgKzkMIkM0G1tTWSR/Kt+vwwMN9PBSRcb9oI4AIQuCcW8/ENmBJG/+23s9oWZj4MhnCgaWB0Jg6GAogoCBtC4S2Yi6o5uZ4JYQK4lvHV1/sgLn3IBCSgPtdjGh869JlezxIoJjsTzMoJjIjGNIaiHdOUdXU178Qm6BsaCsFgsxvBOgqMhWXF+ImVYOIDDNANwcB1JLYE4787jhodBxaMp1lMrZz29vsieOeFgQFdVrQ8vaj/1KmvBUgbtH7owW8I6O+/X1GGJ5CNZYIAwgfff/9PtWSoH6USLVPlkSBEgFZDA65Ko4Iv/QZ8cQVaWlozWqbMy+nTkzEx5hF3886d2xprYnUJpQSgVVdvUYsVC8mADk1P/Xfv3nP//e9/RXA7tLumqKDrsWNH1cWlP4x7PkDCOKLzng4k8BVAyPyxFQULLsofuHFffXVS593Th0TPbp2HS5cuS/8f6PxQD7/Dhx6oGt5xzaNzMtPPOQMS0JwCcCDYEAUkR6CJskcLWo74CIMGRLBQQGSvifyhNuQRwLgwKyicCUioEwFC22N6wrjGsBAOAkYFFi2GFhX5UqZG27PMiAtEn2EYCvfAhEy0D+6263f8RnvbtlVr8ArGwlqgrSiQwIAIMbRAE9TV1Ws7tbU1ovkq1OxG0AguX716VV0itCAgAR08o2/VfhGTqa7eqnSgffoG+P788y/6jjbDxcP6wVpC48BgxJmYE8ADRkTQAVQECXAj7oHlApBilQH2jINC7OKPP/5QhkS7Ebzmd6wDH9Rt1PoBBuYGywIXFc0ZBZLa2hoBku/VsoQXZgokUYCHB7gXujAeAqf37xPkvChWCeeYTLp4XPvtt6d1/CgFQPD69b9k/HdUQ2NZMkYsCosZIFxcy/iwbrAM29r+FsXzmwji/ZTFE1OaQa8TJ447+Aa+hDa5BBJ4CDkBDM+dO6/ABR2gIzwC0AIMjMH3f1RliXsYg7fYJoPp8DhWCTyblxaJ7bWxmAVMjcDBtJkKDIFAIEwQC+LYBJsWampq1AnnfoAmE5BgikMQ7oGB0KzUYwIBYEFMbxqC0B3aLkTHJ0bgTp36Ri0g+ko/ogXN/MsvP6sbEWVYGJ3gG64XWhDASAcSQIwJZ/LoH8E3JrxYGNDoEg02Y5XQVwoamb5BA5ZBcYeiBR/7559/VgZDOKAlY/Z5Gj4jFFDhe6wXVqgIMptGxm0AdAFQxoAg4VZSGAsCCPgQ8wG0Xr9+o+BnAIqVQP2A4nRAUiOC/Y9/WIby6gmgtrFMZZHQDgBPO5jvzDEFXoGuANfFixfUciA+YxYQyuv06dMay4DuKCpcGmgAwKFEKADnEVlmNUuMeYoWLMWzZ8+m+CWh7cLPdWIhnjz5lQojSgerNZdAQp8YA/3HNWXcFCxa3PKdO31MDB6Ep3nBB8wlLqbNqd4k//E7cwYPRvnQfp/Ne04sknQgQSBNJgEXGCC98B0ChfmPz0ywD7ekvr5ONPA2/RsLhZIOJAgSYMT9EBRTGwZCOCCkAQJWBaYhAnH58hVBdDYXjqqwrFu3Vl2nr776Sq0n3+d3gaSr62GKYWHEp8KwWDNjqs1ZnkbQsUro53RAwjXHjx9TIEFQDUgQbLQlGocXTEOhbwBJYyPL31MByS8pIJl0PRAQlvnoF4KOtXLr1u2JNjCjCwtZoSLzcp3SGO1MzAaznkL8ABcCwQPoXr7sVisA+lhCGeADKCLguQASLDAsUoAEnoA/KAYkuBRRgEgHEsaPxiaQzSofioT5gR4UeAb6AKiAiM2H/ij/EffxqyM+BuMcJ/oVqtLAlUCAEUh4IpdAguADfsgXlitWBjyDgoCPiO1gJWFhkApBn1itBGi4F9kC8PhMYZx85sVnkxP9cZb/LQiQ2ISTFIbgokWihUEwSCYRZoQQmJpoCCYYJogOMhOQQMx4PCZm72oVum++OaUTHQUSXAWYDkS/etXnqdAXBN8nPTXpKgeuUaaCxvGm8V3NPUBTUxBC+kuyHBYDY5geSHaJb31M+uddNZtYgMODyF21AGASCgwOOO7Z06jxhcwWyYeBhNWZv/66rnW3i3WFgEAfhIIgMO8ICeCYSHjXFJqC+wAEFmP0ZatpbMKrEWsDNzIXQAIgHj48aVnRDsX46kNAAggzJwSLz54lyNyqrip9pTDu6Sxmxow2R1lR4EXoxpiJEWHJUT/B8lwCCSBAX7x743kESxE+oU/IELy8enWV8Mw6jVvhBq5Zs1ZBhu+wNsvKvMUVlSkd2Dz+yymQ0C8IDjIa2nsQedciYRK5xl5E5RFs7gFEAJhomQpIEEgIBeNMByQIK0BCjID+0C7LkgDBl19+qcG2aHv2GbP5hrgETB6BYTQ6Jd1iQGN+GEiOKtBhUi4kkJCAhdXTJtoMIKFtA3HeTRsb2DN/FP5GcAnkYlUiVADo/v171QrLpUWSblnND0gIsre9AyTQACHF+kqP3+ng5T/AlXEbXYj1EZT94osvVCHAQ7m2SOgjc4BVgnUFgMKHbJUgVsQqjQe78Yl5xVJhRaeqaoUoWY4xXZuyPterbEX5z8Y6l/ecAgmIx+QACpil7H+QKXmvnwAFgEFGKshOzgdMzQRnQs1sAwltErWnj6z3wyCZymQMo1ndI4thpFsM+Q4kZA4jTACJgQg0gOlgLAOPdBp4ze3NYiwWW0JEM+cyRpJrIGHMuDfwIa5eOs9Fx21WCbxJvIblX9wthDzXMRKsDQpgwgsLm+A5Co6lXf/yeTW4d1hRWDAU+gtfEs8jhoIrTuwJUGbe51tyAiQEzSA42gukJuh16NAhDWpl8sWwSPDLmUgm1TRj+oTaYLMNJN4iIdsPi+TYlEACo/z555/qfjBGXBsm1Ls2jQpExDAQyny0SKAbFhVA0tx8Ty0qaA0zkaOBy8QLepjmNZrzznx494d9Ij54TCyLQCYmNHXlyrWJxnrmYpFwj3dtvEUSFTQLgCNkxBQYR7Skj5vfoIOn2xZ9h69ZjuX4BB8o79bYEtf6YPH7CWnmMsFLxHh87MbnkQDmyM3Jk5N5JObamHUIUAAmrKKRRcs74yIWyHtvb58oC7+7nOuwqrBOiKXU1vqTB4mpwL/0fyoFwhg+VHIGJMQsQEFWQ8gBOHHihCKhgUR6x6KgEf2cfh1/ZxtIQHqYCCBhOQ/tmqmQ+HX58mUVQpZEmSwmlYkg4Mj9TU2NKoj5CCQEFwGRW7fuqHuDRQUDwVjEYHAJCQQjWIwrE5hE6QLjMce8qIfr8xFImBOEHs39228+f4hVN/iI/hITO3XqlNKA61BqMymMG8UHv8LvXV0P31n2tuS96YCE9jtk9ZDYSnr+UDqQYDlwPQBkc0PbzAMvoz/Bcdom5tbZ+UCDswRoUXzcj8LGxdm9u0EVJxYK42A8cy05BxJcloYGv75NhyEGTDefMlcg8b7lc3VL2OxkqzYQETN9166dE4AX7SdWB5PXIRP+66+/CpC0pDI2h9QiIeiIxQXD2pJuPgIJKzEtLfd05YYMYvxsgJ24Uk3NdhWkgwcPqiv6ITCHJlEm5rMxMkxrmplAIBoS+tXW1rh//pOENL+TF4aOFjTzmQzHCMzdtWEvzykFedxPBItELqwxPhN8pl+4KF988bkqAktgjPYr+plx86IYkPI3AgqQsJoCjR8/fqrj5hrqPHrUn4LPWGzVibajQNLSMpmQBj3TgYR2WD0DEPr7Ob7SZz5jAaMIkTX4lgKwQXfysuBbMrmxmAAY6sG6qa2t0YQ6gsU+CPvu0ZfUM9OSYyDxJ6RZKjXJL/NFPgY2VyBBI2PigfzkBbS3k2DkJ4MlMoAOywnCoplsUmzCmegffvhBGKVVXLfJPSRYMCdPHlfXhuVTmCAfgYRxsFSOVXLlyjXV0AAJjE1CGuNmmZXxTGU5Qn8Y0TQigsJ4KUYnAMGvXtxTRgbA+c1ntn6vQOI1f26BBEsD14A9QawEEhMC4Ai2k/yHRUlZt47l9UnXNH1VTC+S/2zcvFMYd9QSwGK1xL2HslfM6meZHLpisUJbxk6ZpJdt9ns3td767+OL6zTISg4QeS1YV4AChbkj5lEjsSoAE5CgEF5IJPwZuhcusJdnsn7GgDtLsBgFWF3t4yV64xz++6iABMLiV3IoDpqpVQKOJOpAbHxegsIsZQIofi1+hTKKB64ejZBfu/aHrvYQI2BpFCFEQAjS1tXV6d8IWT4CCaarXzokM3IyoQlwJ+8AbQlTkbFqGgpBoTAmaIcWHx72Z3bgEqJt0zUsjI7Fh2Z+8QLN/1bvr672m9dQLLhPBiaAFkKZbYvEA/zk9n3mkW0OvHDvsEqwjokJoQCwABBaBJ+xQRcKAs/YEVxcIoSQvhOgtQxdrmHVBkuP9IL29vtiObzWcbEKSSwCRQqPIOzQFcUG/2HBkVZAZix9tIBuOpCwMmNJgfAu6fvU4y3KGgGSHTp39InvsUqgPQHZP/+8rgls/M33jIFxHpGtHQBcdB510LP876MCEmgDAdEcpplYAu7r69cJx0TETYEB/YSvUc3MZLe3t6uJiPkKM1G88G3WuAKuDagO8zFR+QgkCAfMi0X2448/qYYCRKEJAoVwsAzO+AETC6AyVq5Dw7IFH3oAJgDv4cOHlQm5xjQsGZekyNMOmhPmpVhQGvcPU5y/o4CFQJ3JomuTDiSMk/lGq58/f15NfUAMgGVhAAHHKmPsaHkAhgKI4CbgpjH/FOIejIMXdKLwu+UB8Q5QIdC4cLjOAENTEwmF65WvCI4+evRQBby9HeDxwXutTP5LBxL6YRYlCg03h3ljXqEj1xOrAxQZF9ezksMyMdYIoB61pAGPY8fezxi29mfzviSBBM1ADgeMyp6DBw861F+EeBB0qjwSIwwTxoRwP0xFND+R8IdVc8oWjIG5C7BQJ+3BJPibb974owSYQJht715/RgrAg5bleyYwH4GE8aDt0HzX5CSvlpZWFSYzwQFB07Js8mMHMeOnACRoS9LjeWcFAMY9fvyEWmS4gVgVppnRgAgTdAZ4oItpfgLw9AULiCAv4I2w4W6cySGQMBbGilK4dOmyWg38DfBTEEjAjbHDA/SJwti9NfJG55V6GDsWBsAAHzA+6kJom5vvKX0JyGPJxWL+jBfqBHwZO9fTLisrHAWAcqKNqKCnAwl9AZzIHbly5aq6OIARAOnBZJVa0igE+ujBv19Xbl68wDIkVmXHTFSJ5V2nmc9Y4NxjrjztzLYsWSBhxQFGJVMRU5oJQxBmAiQmFGzaO3v2vE4MwSuCkeb3MtFoKibEm/X++EEmDS3D94DHiRNfqkUCk5hviqDlI5DALPQfwcbchX5//PGn5j8wRgrjZ+yM0cbP99AMJmenNHUwfsz106dPqTuAe2OM6DWzz7y8efOmakWuN80vrUiN46rNv5ItCYAJ4IK1k0sgAcjoOwJOYh4uDu4UsROKzT39ZCy8U4ijMW5owAuhra7eqgoLiwxLlPHxG3W1tLSq64gLzXfQFpoWFRFPmowpQeMonwHCWG/cQ0kHErN2AStiMbg5nZ0P1Voy+kbrY6zUZeBE/RR4tUbiKShcNmnixtuc6wVz+G/JAgnIjC/qgaRzAkiIXEOgTHttjD5MLJoZhmfSAaInckA0FgcmLKeBpeRKBcrfR7agD0zSBoCF6bx3b5NG/dFexnhmMaGZ/K5RD3Rcg9VCjODYsfczW00Aoz48zI2WtBR527TH91ba2++7n376SYHBux1s2itQjX/4MKtJ7wb5cG9geMx8xg9jYuGhUS07EiakDZrxbXmAISiNIMGMmPUHDx5QOvAdzEyBhuTcIEisFmBpQBOsvrFUdihzQEzilCy7NjU1Kl2I30Sf/csyJgyOCZ5pHNSBcOAS2WoMNKR9vk93bbAEKATcWcEATDtkRQOLlMOqfR9JgyeYytg9jXk3YPVzuFppW1tbo0oEV4K5pz/QlvECoFg+ZJ2+edM3IczQFUABqOAjLBT2OkEXcj4ABvpHm9CH82SgDwFgyyNh7qzvzD1jJn5C2/C1tcEY6BO8AO/SDkmfWIA1AiQAFbRFCdCejVcGP+uyzIAEQV+phI/u/s1EIIgNWsM8aKh795qFqTygYGbyG2YghYlgZzF+LuY4GggmZdmQhCyEKNoGdWaymGYCJKyo3LlDMPC2mrEIEowKkMBQxlQwtrUJw/74449yX7OayWhPylSrBYwdBkP7IbwACclQ0AEm9cuiPI7D0uK9BUZMiDgCPj504AUNABW0JX2lwMy4d4AJ46B/gBZuEdqdemmfWMTXX381sTxLPOXnn3+ZyHEBSHALoPf0qx4kdPk8DOjOuKYDEtpmfgFPgAQg4t1vSPSP46CfCDcFgMSawe1j/Gjw6mp/Uj8gz282H9AWIABMcOtQdowdFwaa0Da0gmbEWfbv36efAXH6gYVI0BZggj5s7kQR0KYBIX2nLiy4trZW6TtPAHiaUoTesrb+0H/a4xEt8BEAAkDxjlKjHZs3rp1ryQqQMCgIAcGIJmMtMJEgb2mpPyOSaLgFmebb8Wh7zc0+J4BJj8f9mZWgLEt++K4ImwlcOpGYVJieiUcrdXe/SK3R90scYDK92DQIE0kEnk1Qtupg6fzRuqfuH0DnA7oE9WBCmNToAQ0JBBPDIGDJ3zAELgljYrkukwZBAC1PgAzHRMJvLsNqwv2A6ekvgBct+OgIHW7Y06ecoP9SGR7XjPmDPtAVYQYEuZ/+0x/qQ6PyGe3KGOgrhfu433gCsCJnhb99vVg7PviK9ciYoC0gBpBCA3ZWY8FQJ21lGoe1g0bGzGcO+/r6VcgAAoSe4CNAhOAyBgrCzotxEi9j3PSP+BeanfmzfnJ9XFbnKioqdexob9wwNocinFgJCGqUz7gfnqJewBl5AEi8petPZINuWBmACXWgfJjH9vbJzZTwBwmCKIRo/23czB1jp37mEGuU8QM0KD/rE/MDfakDGYQu8Abt2jWMcz4lK0AC0SEexECbo0kwD2ECEA9hM0LAcFMJ9kwHEm0PLYdJR7H2MOEgVLrgZKofhmJiIL4hPfWhlfmb4jVSuTKi9539+a60l2kipusfTMkEZqIH7cHcBNAwz7EsEDgYFUaorKzQe82FsPFwD9qVPgOMjIdCXxF8NCZClH6fCZSNm3p40a4XJF+PjZ9+MH/8zWfebfzpcxqlK3UCIvAF9VIAZ+YHMIIe1AsPRceB5cL4pxsH7VA/gAD/AaLemuDAb3+oFrTjM21EC/fSH7OgmPdM42es8DD95DM8bZrcxp9eL3NAvdRJv5hTxkdh/xljZ15MmPmN+YNONu/MGVYQ16X33+aO/jN/1k6Ub+FPU4LURVvUE+17tN/z+ZwVIDGEZEBoOY4KoMAEDMYYjwFkIvxsBzCT9iAc7c2k2KRYvTAAgddJpi/SybcJmApArC2rZ7b04D7a9ve93z50pA+0Hy3GsNxHHSIfWhAcmHaq+6wO6y/12CtTPdTH/HkGnbRArJ70d6MrdcIX1j+uy8QX0BuBsOtmOo708WNFjY/7E+UNQOl7Ot2svzMd/0znP71eP5+TcpE+L1zPGPx1k/OOJWiA/aH+Z7rf5I9+22u6eqzfc3nPCpDQMExj7/Y5qqWyASDaQOo/a8OYla+z0d5U9Vrd9h7tS6bPU9Vj105Fj6nus3bt3erhPUoD+5v3aBuZ7uMaK9F207+L1mO/fag+u4739P5Ff4vWnX6d9Sl6TaZ253pftB/Wlr1bv3n/UPvRetI/W33RPmaqb6bXpddvf091v/1udLN3+z5b71kDkmx1KNQTKBAosPQoEIBk6c1Z6HGgQN5RIABJ3k1J6FCgwNKjQACSpTdnoceBAnlHgQAkeTcloUOBAkuPAgFIlt6chR4HCuQdBQKQ5N2UhA4FCiw9CgQgWXpzFnocKJB3FAhAkndTEjoUKLD0KBCAZOnNWehxoEDeUSAASd5NSehQoMDSo8D/B2NzCjAo+oOCAAAAAElFTkSuQmCC;" vertex="1" parent="60">
                    <mxGeometry x="503" y="250" width="94" height="75.47" as="geometry"/>
                </mxCell>
                <mxCell id="7" value="" style="group" vertex="1" connectable="0" parent="1">
                    <mxGeometry x="440" y="240" width="178" height="110" as="geometry"/>
                </mxCell>
                <mxCell id="4" value="" style="shape=mxgraph.gcp2.doubleRect;strokeColor=#dddddd;shadow=1;strokeWidth=1;container=0;" vertex="1" parent="7">
                    <mxGeometry width="178" height="110" as="geometry"/>
                </mxCell>
                <mxCell id="5" value="&lt;font color=&quot;#000000&quot;&gt;kafka cluster&lt;/font&gt;&lt;br&gt;&lt;hr&gt;&lt;span style=&quot;font-size: 11px&quot;&gt;利用 k8s 設定&lt;br&gt;限制 kafka pod 數量&lt;br&gt;來限制 memory 使用&lt;br&gt;量&lt;br&gt;&lt;/span&gt;" style="dashed=0;connectable=0;html=1;fillColor=#5184F3;strokeColor=none;shape=mxgraph.gcp2.container_engine;part=1;labelPosition=right;verticalLabelPosition=middle;align=left;verticalAlign=top;spacingLeft=5;fontColor=#999999;fontSize=12;spacingTop=-8;" vertex="1" parent="7">
                    <mxGeometry x="5" y="7" width="44" height="39" as="geometry">
                        <mxPoint x="5" y="7" as="offset"/>
                    </mxGeometry>
                </mxCell>
                <mxCell id="6" value="" style="shape=image;imageAspect=0;aspect=fixed;verticalLabelPosition=bottom;verticalAlign=top;image=data:image/png,iVBORw0KGgoAAAANSUhEUgAAAKwAAAEICAYAAADCyx+UAAAMa2lDQ1BJQ0MgUHJvZmlsZQAASImVVwdYU8kWnluSkJDQAhGQEnpHepUSQosgIB1shCSQUGJMCCp2ZVHBtYsoVnRVRMHVFZBFRexlUex9saCirIu6KIrKm5CArvvK9873zZ0/Z878p2Tm3hkANPu4EkkeqgVAvrhAGh8RwkxNS2eSOgEZjAR6QB04cHkyCSsuLhpAGer/Lu9uAETRX3VScP1z/L+KDl8g4wGATIA4ky/j5UPcAgC+kSeRFgBAVOgtphVIFHgexLpSGCDEaxQ4W4l3K3CmEjcP2iTGsyG+DIAalcuVZgOgcQ/qmYW8bMij8QliFzFfJAZA0xHiQJ6Qy4dYEbtjfv4UBa6A2BbaSyCG8QCfzG84s//GnznMz+VmD2NlXoOiFiqSSfK4M/7P0vxvyc+TD/mwho0qlEbGK/KHNbyVOyVKgakQd4szY2IVtYa4T8RX1h0AlCKURyYp7VEjnowN6wcYELvwuaFREBtBHC7Oi4lW6TOzROEciOFqQaeLCjiJEOtDvFggC0tQ2WyVTolX+ULrs6Rslkp/lisd9Kvw9UCem8RS8b8RCjgqfkyjSJiYAjEFYstCUXIMxBoQO8tyE6JUNqOLhOyYIRupPF4RvyXE8QJxRIiSHyvMkobHq+xL82VD+WJbhSJOjAofKBAmRirrg53kcQfjh7lglwViVtIQj0CWGj2UC18QGqbMHXsuECclqHj6JAUh8cq5OEWSF6eyx80FeREKvTnEHrLCBNVcPLkALk4lP54lKYhLVMaJF+Vwx8Qp48FXgGjABqGACeSwZYIpIAeI2robuuEv5Ug44AIpyAYC4KTSDM1IGRwRw2cCKAJ/QCQAsuF5IYOjAlAI9Z+HtcqnE8gaHC0cnJELnkKcD6JAHvwtH5wlHvaWDJ5Ajegf3rmw8WC8ebApxv+9fkj7VcOCmmiVRj7kkak5ZEkMI4YSI4nhRDvcEA/E/fFo+AyGzQ33wX2H8vhqT3hKaCc8IlwndBBuTxYtkH4X5VjQAfnDVbXI/LYWuDXk9MRD8ADIDplxBm4InHAP6IeFB0HPnlDLVsWtqArzO+6/ZfDNv6GyI7uQUfIIcjDZ9vuZGvYansMsilp/Wx9lrJnD9WYPj3zvn/1N9fmwj/reEluMHcTOYMexc1gz1gCY2DGsEbuIHVHg4dX1ZHB1DXmLH4wnF/KI/uGPq/KpqKTMpcaly+WTcqxAML1AsfHYUyQzpKJsYQGTBb8OAiZHzHN2ZLq5uLkCoPjWKF9fbxmD3xCEcf6rbqEZAAEzBgYGmr/qouA79+ARuP3vfNXZdMLXxHkAzq7jyaWFSh2ueBDgW0IT7jQDYAIsgC3Mxw14AX8QDMLAGBALEkEamASrLITrXAqmgVlgPigBZWAFWAs2gC1gO9gN9oEDoAE0g+PgNLgALoPr4C5cPZ3gJegB70A/giAkhIbQEQPEFLFCHBA3xAcJRMKQaCQeSUMykGxEjMiRWchCpAxZhWxAtiHVyM/IYeQ4cg5pR24jD5Eu5A3yEcVQKqqLGqPW6CjUB2WhUWgiOhHNRqeiRWgxugytQKvQvWg9ehy9gF5HO9CXaC8GMHWMgZlhTpgPxsZisXQsC5Nic7BSrByrwmqxJvg/X8U6sG7sA07E6TgTd4IrOBJPwnn4VHwOvhTfgO/G6/GT+FX8Id6DfyHQCEYEB4IfgUNIJWQTphFKCOWEnYRDhFNwL3US3hGJRAbRhugN92IaMYc4k7iUuIlYR2whthMfE3tJJJIByYEUQIolcUkFpBLSetJe0jHSFVInqU9NXc1UzU0tXC1dTay2QK1cbY/aUbUras/U+slaZCuyHzmWzCfPIC8n7yA3kS+RO8n9FG2KDSWAkkjJocynVFBqKaco9yhv1dXVzdV91cepi9TnqVeo71c/q/5Q/QNVh2pPZVMnUOXUZdRd1BbqbepbGo1mTQumpdMKaMto1bQTtAe0Pg26hrMGR4OvMVejUqNe44rGK02yppUmS3OSZpFmueZBzUua3VpkLWstthZXa45WpdZhrZtavdp0bVftWO187aXae7TPaT/XIelY64Tp8HWKdbbrnNB5TMfoFnQ2nUdfSN9BP0Xv1CXq2uhydHN0y3T36bbp9ujp6HnoJetN16vUO6LXwcAY1gwOI4+xnHGAcYPxcYTxCNYIwYglI2pHXBnxXn+kfrC+QL9Uv07/uv5HA6ZBmEGuwUqDBoP7hrihveE4w2mGmw1PGXaP1B3pP5I3snTkgZF3jFAje6N4o5lG240uGvUamxhHGEuM1xufMO42YZgEm+SYrDE5atJlSjcNNBWZrjE9ZvqCqcdkMfOYFcyTzB4zI7NIM7nZNrM2s35zG/Mk8wXmdeb3LSgWPhZZFmssWi16LE0tx1rOsqyxvGNFtvKxElqtszpj9d7axjrFepF1g/VzG30bjk2RTY3NPVuabZDtVNsq22t2RDsfu1y7TXaX7VF7T3uhfaX9JQfUwctB5LDJod2R4OjrKHascrzpRHViORU61Tg9dGY4RzsvcG5wfjXKclT6qJWjzoz64uLpkueyw+Wuq47rGNcFrk2ub9zs3XhulW7X3Gnu4e5z3RvdX3s4eAg8Nnvc8qR7jvVc5Nnq+dnL20vqVevV5W3pneG90fumj65PnM9Sn7O+BN8Q37m+zb4f/Lz8CvwO+P3p7+Sf67/H//lom9GC0TtGPw4wD+AGbAvoCGQGZgRuDewIMgviBlUFPQq2COYH7wx+xrJj5bD2sl6FuIRIQw6FvGf7sWezW0Kx0IjQ0tC2MJ2wpLANYQ/CzcOzw2vCeyI8I2ZGtEQSIqMiV0be5BhzeJxqTs8Y7zGzx5yMokYlRG2IehRtHy2NbhqLjh0zdvXYezFWMeKYhlgQy4ldHXs/ziZuatyv44jj4sZVjnsa7xo/K/5MAj1hcsKehHeJIYnLE+8m2SbJk1qTNZMnJFcnv08JTVmV0pE6KnV26oU0wzRRWmM6KT05fWd67/iw8WvHd07wnFAy4cZEm4nTJ56bZDgpb9KRyZqTuZMPZhAyUjL2ZHzixnKruL2ZnMyNmT08Nm8d7yU/mL+G3yUIEKwSPMsKyFqV9Tw7IHt1dpcwSFgu7BaxRRtEr3Mic7bkvM+Nzd2VO5CXkleXr5afkX9YrCPOFZ+cYjJl+pR2iYOkRNIx1W/q2qk90ijpThkimyhrLNCFh/qLclv5D/KHhYGFlYV905KnHZyuPV08/eIM+xlLZjwrCi/6aSY+kzezdZbZrPmzHs5mzd42B5mTOad1rsXc4rmd8yLm7Z5PmZ87/7cFLgtWLfhrYcrCpmLj4nnFj3+I+KGmRKNEWnJzkf+iLYvxxaLFbUvcl6xf8qWUX3q+zKWsvOzTUt7S8z+6/ljx48CyrGVty72Wb15BXCFecWNl0Mrdq7RXFa16vHrs6vo1zDWla/5aO3ntuXKP8i3rKOvk6zoqoisa11uuX7H+0wbhhuuVIZV1G402Ltn4fhN/05XNwZtrtxhvKdvycato661tEdvqq6yryrcTtxduf7ojeceZn3x+qt5puLNs5+dd4l0du+N3n6z2rq7eY7RneQ1aI6/p2jth7+V9ofsaa51qt9Ux6sr2g/3y/S9+zvj5xoGoA60HfQ7W/mL1y8ZD9EOl9Uj9jPqeBmFDR2NaY/vhMYdbm/ybDv3q/OuuZrPmyiN6R5YfpRwtPjpwrOhYb4ukpft49vHHrZNb755IPXHt5LiTbaeiTp09HX76xBnWmWNnA842n/M7d/i8z/mGC14X6i96Xjz0m+dvh9q82uoveV9qvOx7ual9dPvRK0FXjl8NvXr6Gufahesx19tvJN24dXPCzY5b/FvPb+fdfn2n8E7/3Xn3CPdK72vdL39g9KDqd7vf6zq8Oo48DH148VHCo7uPeY9fPpE9+dRZ/JT2tPyZ6bPq527Pm7vCuy6/GP+i86XkZX93yR/af2x8Zfvqlz+D/7zYk9rT+Vr6euDN0rcGb3f95fFXa29c74N3+e/635f2GfTt/uDz4czHlI/P+qd9In2q+Gz3uelL1Jd7A/kDAxKulDt4FMBgQ7OyAHizCwBaGgB0eIagjFfeBQcFUd5fBxH4T1h5XxwULwBqYac4xrNbANgPm/U8yA17xRE+MRig7u7DTSWyLHc3JRcV3oQIfQMDb40BIDUB8Fk6MNC/aWDg8w4Y7G0AWqYq76AKIcI7w9ZQBbq9euI88J0o76ff5Ph9DxQReIDv+38BF2+RbzeaiBoAAACKZVhJZk1NACoAAAAIAAQBGgAFAAAAAQAAAD4BGwAFAAAAAQAAAEYBKAADAAAAAQACAACHaQAEAAAAAQAAAE4AAAAAAAAAkAAAAAEAAACQAAAAAQADkoYABwAAABIAAAB4oAIABAAAAAEAAACsoAMABAAAAAEAAAEIAAAAAEFTQ0lJAAAAU2NyZWVuc2hvdJOYrBkAAAAJcEhZcwAAFiUAABYlAUlSJPAAAAHWaVRYdFhNTDpjb20uYWRvYmUueG1wAAAAAAA8eDp4bXBtZXRhIHhtbG5zOng9ImFkb2JlOm5zOm1ldGEvIiB4OnhtcHRrPSJYTVAgQ29yZSA2LjAuMCI+CiAgIDxyZGY6UkRGIHhtbG5zOnJkZj0iaHR0cDovL3d3dy53My5vcmcvMTk5OS8wMi8yMi1yZGYtc3ludGF4LW5zIyI+CiAgICAgIDxyZGY6RGVzY3JpcHRpb24gcmRmOmFib3V0PSIiCiAgICAgICAgICAgIHhtbG5zOmV4aWY9Imh0dHA6Ly9ucy5hZG9iZS5jb20vZXhpZi8xLjAvIj4KICAgICAgICAgPGV4aWY6UGl4ZWxZRGltZW5zaW9uPjI2NDwvZXhpZjpQaXhlbFlEaW1lbnNpb24+CiAgICAgICAgIDxleGlmOlBpeGVsWERpbWVuc2lvbj4xNzI8L2V4aWY6UGl4ZWxYRGltZW5zaW9uPgogICAgICAgICA8ZXhpZjpVc2VyQ29tbWVudD5TY3JlZW5zaG90PC9leGlmOlVzZXJDb21tZW50PgogICAgICA8L3JkZjpEZXNjcmlwdGlvbj4KICAgPC9yZGY6UkRGPgo8L3g6eG1wbWV0YT4K4dzI+AAAABxpRE9UAAAAAgAAAAAAAACEAAAAKAAAAIQAAACEAABi4Q2Qx+gAAEAASURBVHgB7N2Hv29HVTf+ndwkpBEg1BTgnBQ6AWnSBARExQJilx8qIuBLfVlBnv/C3hE7KCAgKghSIiS00DukkooEQgIJpOe33mu+n3PmfnNvSMIxPI/ede8+e++ZNWvWrPnMmrJn7+9+l15y2Q3LirYuEnAzz/vttyz71R9ndEMJuv766+t8Q18L33/XrkV051Hh119/Q/Pvv//+W+k68R7+DDlkSVdyVzyr7LZSiLvu+uuWG8jef79l//13LQcecMCyq/JG11X8tddc0zzuS+PlgAMPXHa1DiWt9b6u+a6/7josrfeI37/ubui4G1Zl63hpV+nJ++ZpJ2R881r83yphvwC2QfDN2KrANEA7hFzfYC2pq/AAs24bcCodUvcvYG0DfYASMBEAAB7aAm2B0b8WsqZvA7aAhpcu8jywAOks7LqKu6YA2/JLBNnidxWwK7DDxZHjQNLmcN9xzXv90K/yIWe//Qq4GG4VzSnn61sl7H90oh0BbIDCUgfwaFXJu1HVQVeDPyusJT7hhYEGw3XXXdvAEg905AGM61ADLje7nYfnTnwa0AxCuroXx/OSj3hennkrr2QH2EA5HSNLAHfVf+qcBCP2lv2d087Xt0zK/wbu/1bAjvpsf9i27KoI8NpLDa+mrnlaw4Rrr71my7tJ1A2ggLUFpFWtBJSr2xudxM9HgJp08Zo9XChenhfP/jwlcPKaFOv/A7C5HnLLC6/ywLeu340UusmAtsyKY76+yUT/KyN3BLBtuaq8qumq8GFwlQkA1xtTrpwQIGzFV5wx5QDJ0l2zsSD+gItcaYAqAHMfmgE5ePEP7z7H5bqBWOlzHmlKXul3ww2ly3U1xi0Pjx/J0xjYWBgJN6y49lq9QB2lP6LfQQcetDVW7sBb9Ge7TN1CblHa/13MOwJY5h4eaXSQPGWDtSq3wbcacAJKe6Livx5AqsKvvdbk5obypLu6wtcB2WiXDtCmoYa0wONwvSV7Bch4vAanOl0LFwSA0nYe7kvvTNrERybPGtDj6ca4yhffrtJ9H2BZ4r+fdhSw1OWl4jnbU2271y0ABJQDdGPMCnhAdtBBB/YwoHl4tAIUvp6Zr+zhXhd+1VVXLVdeeWXH83LxxIYRjoMOOqg99wEVtzWTL+CigJW3bPmVl2mTdPRAdLr6mqtrfMubln7lvXuSxuPvwr1fywFoE7eUqxPfoj9Dp5Fkvr5FQv5XMO8oYHmfa1eeByCYviuxQNLgXd0LcwzQlIesNIDDSwMZ4AWUX/va15avf/3ryxVXXNHgBNIcwl0H7JELcIB1u9vdbjn44IP7cE22+4Qnr+jCi/OUluAK0q3T1SVf47iuGmI3qNtVIzigVhbKqyqf8upAxJFz62hON1/fOmn/k1PtCGAZSGUFZICoAq0WOBsRpus2VkTGhQFKV1H9ARiTLyDgOS+77LLlC1/4wvL5z39+ufDCC5eLL754ueSSSzo8YM1kifwcyT8APeKII5Y73vGOy53vfOflrne963L3u999OeaYY/p85yOPXA4+5BAutwA48q/SrBpTeffStxtbFYK+7VkBs+553WvK+6IDD7Q6Msa6HXCL/swgna9vkZD/Fcw7DNiqwKtreahMtz27r8ovz3tNzf4ByrX63n/XarmKmd0XsK+++qrlq1/9aoPyv/7rvxqsF110UQPWGWC//OUvNw/PGrDyzsMLDk+t4QAXHXjUww8/fAHaIwucd7vb3Zajjjpq2djYaNAefdTRy13vdtflyDveaTmkgCvdOOgFwqVc/e9C9alKp4D1h9c1SUO8rjLcOpJBaL5O2L5zLLAjgGVi3bnJFuCgjAWrztvzXn3V1X1ucK7GgqPrLWYTsPJwX/zixctnPvOZ5dOf/vTy8Y9/fDn33HMboJdffnl73KuvvnrLi8ZjywtA411dI6AztEjDcZ1hAvACbo77nHji8vBHPGK557HH9pDABPAA3b6hQemvkSW/9rYVJk6PUGpv5Teubs1fFgzN1wnbd44FdhSww5OWx6la3LWavAzAFpALbLpXy048kYkQkPKql156aXnRi5azzz57+exnP9uABVpDAUODNAIglNa5gbMqhWtAXQcrUOFF8cCujWFvf/vb9zCB1z1u87jl277t25bjjzuuhwyGDkfe+cjl0EMO7YbY5Vqt00pv2LJr1UP0KvMKtOJuHc0gna9vnbT/yal2HrBVsQDUHgi4qnJ1ocCJGj916c6E6ktf/OLysY9/bHnrW9+yfPKTn1y+8pWv9GFowKMGcJ24/syeTj6JXwdrPKt4cQBr6BDdeNtDDz10uX0NFw477LAC8cHLPe957PLQhzx0Oemkk5b7P+ABNca9WzWs8SRM+qTVaPpBR+VvBUFpRuPYNyRIPf13nXcOsBMwgHNU6vCGQBNgqfSrr6oJ1Ve+2h70jDNOX97//vcvb3nLW5azzjqrKz+FJWP2ksKBD2jJcaCcXcsHWLeHJAOwwBrA4iMbD28r/ZW14nDnI+/cYH3oQx+6ODY3N5Y73enIHgPvqknVATWpmiddvZZc49jKch9gGfU2oB0BLD11ZNZMhycakx6hADQW/Uc3Dmxf+tKXljPOOHP52Mc+trz3Pe9ZPv0Z3f9F7XFnoAMSgMZ7zgBOeMAbWyX9DPRZjmsHat30AnVtAnVQLVnd8Yg7LEcdfdRyYo1r73+/+y8PetADl43NzV5R4JGTr7P0vS57q1cHWg2a5GLtegred9kW2AIsm41qvHWW2RNgGygFBLIB6MqvX7l88UtfrLHqOctHPvLhOj66fOhDH2qwAl48FdABA1Dwis5IOIA4I/IzNsU/H/ILzwzSDqw/ZArfHSp1V/8PP+zwBujGxsbygBoanPSQk5aHP/zhvbpQufRYnF4a4oG1bstTbwkqI95oXNti689ErROLt9FLag2d/NsWNDHvu9yywG6A3Qq9pRcNlgJBgfPqHutZZN9VXuva5WtXfK3Hr7pea6of/OAH+/jIRz5SqwCfq/HqV2ti9fXmbQCtgEeFPQENKAEEcNH84MB9ZODBqyFsgbPu43njmfFUouZp2TVmzVDhkEMPafA+7OEPW37yJ39yeVhNzA4++JBuMJbpTMZgrBvSalmr120r3BkYyexjC5BDxx5OVKOxspJ8R0PcHdjKtI+2LTAAGxupvFtJUhq7bnnEugaKK2u91OTKJOrMM85YTj311OXDBdYzTj+9l6wAiEcaAMpQYvKAqwqPVwW+BsgKsPGwwgIO1+EXP3voADl6ShPAevTa8QUuYOwNMXW+//3vvzzrWT+0POaxj102NzZ7daG9aJW5ill5jSdkvbRXjVZ+3UiqXOSTG/3aibINHrxWTuqfZbSh862vg1tZdf9PJdsZwFYFjC5ueBRg4PmEeQJk0f+9733f8qEPfqDGrbW+et659bTqK6tVgJXHqQpE1kClCxCFAbWnVmg3oNV9A6P4EbDlcSsZeANYYCBnBrJGMsMDsDxyzfoqLFdfvdypnpLd+973Xh5Ra7Xf+73fu9zvfvcrT3u7Bhl99SaR6+lXA7HKA9Td0RegxZPfDaTEpjF0Y6qMtvcizBop1T6aLbDzgC3pHq1akrL2ek2B5jM1qfq3f/235f0f+MBywfnnL5fWI1eAqmobnqzOqL0R77YCrHNAlooGMkdX9CpNJ64/AbZzeICWnCF7GzCJr8jOvbFZ8OItbZQZj46H5Hhe49ln/tAzl0c96lHLsfWQ4Q53uEMDrcFYaRC9HL3rS77+8bIts/Inv/7Rqf+VB0fZFllXfb/vz54tsDOAZfA6VBSw2lml0j0Q8DDgtPe9b3nDG9+4fKrWWb/e49XrG1wAO9YxyzseuL23gJyA1aNVZO8A8Kl8cQCHACFgdp9rPOKAF8UzuxbOG6POq/Izlux9DoWfAF+h2kNX1w1oxxx9zPLIRz5yeWwNDZ74pCcu97rnvfrRLADy7Ja8DCUasOywAuUM2C0vy2ADq8XXTXd1vw+wXTF7+bNzgC07Wxry5Erl81Tnnnve8p//+Z/Lu9/97uV973vvcuEFFzagVCxQqCiA0AUfdLsDOy4eUXy6eOA0Dha3J4AChANQcgBL0ouTT0BLBoAlDfm9fRFo65/u+cDa5giISYP3iDscsRx7zLHLIx/1yOX7v/8Hamx7v17HNaF0ePqlUA3YGhqMcXAVsmwDqGwy9C9vXPK2CGArnWM0/a2YfRdrFthRwNqMbcZ/Ve0bUNFWAl7x8pcv7zvtfTXBurSHCbsKrAhIAJxXA87b1RooMpRAPGuAhjdAFBYwq/yZVPiQO/jxzXLo5CBja0xcQKbHyr11nHj/yLffoXedld42uADmiSeesDzlKU9dHvawhy3HHXfccue73Hm53UG3a1769Pi0ZGbFoHVs0G4DlsfeAuc+wLaJbs6fHQFsvINlLNvtLr30y8sF5U151lf+4z8un/rUp4bHKi+DgI/Hkw4YAIvXBRrhM6Cy4UVYCJAsawGjxXzX4skj24TPqgTw8rL4A+Z4THkKc99DmC2Qlhw6FuDoBNjZicX7kmnTzEMe8pAeyz7hO56wHHfC8cvBPSQYwwzlyNCgQVv5ENoNgZc1+arzKFOVax9gU7Xf8LwjgFWJgMbygPC5z527vP3tb1tOPeXU5bT3n1brrxc3sFSQR6C9VlvAwpuu2cuHlnomXLbyo1JLskqXw+rs2h7XjY2N3jbY3rCAieyj/dznPtfbFOkmjmckKw0gwI287rIrvv5XHp7ard4wKM/fbwGP7BtoB9e+g8Nvf/jyqBrPPuc5P107vR6+CLPhZ5sm0Fa5gB2175ZPgCvDosZ0l23cd+C+PzeywI4AVuVnGYtH++QnP7G8/O9fvryrPKwlLcMEC+7A8bV6cwBggSdjzKquTu8FRCBGgIYn3tO9/ao2YNseCIB2VW0UYO90pzt1Ovw8rA0059dqhEfAeVvB2TjYVsU8bMBLJxAB2L4oXAnjGYXR0QSSjtC8q8LE08cTsOc+97nL4x/3+NaLt28Z40+jUB7JR7qmyrC9bMlrT1v8iVoJGHz7/t7IAjsE2Hq/6sqrGogq5wO1fPXnf/7nywdqU0tXmNqoA7DbwxWPiZbx4QEHAIDJl/2yPPTwktLFM9Jaunve857Ld37nd9bz/QctRx99dAPVsACoAQuIbEfEK71r4LVSYYONrYu2LAIufiQNXqAFqJ4o7cEbbq2TFiMeG7ePP+745Xu+93sasCed9ODl7ve4R8mpf1U24C7OMTQo8PcQoc4r0Y1LfOMDHKs0FGpN+mLfnz1YYEcA22PXAsml9TDg4nr8+u73vLs97KdqT2u6fEOGgANCgXFUKq1WnkcFVxwAOUvLm1rvdLZg/6QnPakB660BbxKo9HguDSJjYB6YHB4VYN9XS2sf/ehHlzPPPHPxNgPQArQ019VksWVUnkMbDawvW34Dy5hzBSa8jrvV9sOTHnxSPQF7zPK073racsIJJ4yuvsoWD9ryipcu83iWqJbYoAXY0VD3AXbYfW9/dwSwKk+FnHfeecu73/WuHgqYcF1wwfmVL0DZxDLWTY0HM+GIpwLegwtgKjEgIhMgLdA/8IEPXJ7whCc0YA0DhAMzUDoj6aThbR3zpMoLjN4FM661QwxwHd4TC2ANRwDIky4k3H174tIroO6xJ0DW0tehNUS5453uuHx7PUh49rP/v96SKN8+Ss6WVy55baOVpy24dx7ka7T9r86Dcl7d7jvtZoEdASyJ7P2JT3xieeUrX7W8q0B7boHj0ssurYoaqwK8KwKAfppU19WzFtDXJ0VXbfHxog9+8IN7sf6JT3zisrm52XEaB0ABhiEBMkYFCiAeeYwHCsIQLwm0p9cehg9/+MPLO97xjl69+GJtIOdtNR5lADI4kgcg7Q/AJcO7asI0rrGOPMqB/xGPfMTywhe8oPR8VD0AqY05tfzlTI8hrwSWDLpovCuVtvTqC5mOkNV532lPFlgD7J5Ybk5YVW3Z+7T3nbb8wR/+wXJKrQ5cccXlw0vp6qqG8qgSGsbYbTxxGmNWlTUen/KOJi+GATadPPnJT+4hgMmWMIAE1PaAlSl+8jSIHO6FAxeQIdeGC4YIZ5111vKe2od72mmn9c6xL9QQQTxAkdHpC3S8qfSWuOzOCojby1a5pHFtj8ELnl+ArQcKXhPn9e2tBdx+HTzdfQOWfx2NiF4aBeqQ7eAOu+3/pNHc9jnf3BwLsJeWmUrR6JrzzZVQfCrZROeUU05Zfvd3fnd5z3vfs5Va5bdnKQ82V5Qa4ql4oWIpMIynY4B2j5q8GAbYg2oocK973atliLNSALDAQ67Jm1l8QEsP4QEs3VC8rmtv33odx7j27W9/+3J6TcZ46KvLi1peIwvojCv7mwmrxsA7DhoNFJ/DKzXPfvazl0c/+tG9cuF9MUtcXq8Z+Q6jllpFZYUVMDvUn7pfRQ3x39K/Q9dvqQo3kfkKsMVReq7suBt71ceIXIWu3XboFbXn1V7XUwuwL/vLv1w+Wk+48kYsT5ivtmRlQCJAasAV2ADQricEiDzrj//4jy+PecxjemUAAPDzaAFeez6grQNgyUCRi4/8TMIAODzA6XVxQ5g3velNvZpxjiFMhdkiqYzyKjT2UIGc9cbWmflTzCccf/zytO/+7uVxj3tcvRP2kH6w0HIqPdAaAg0Z234h6QPUtmsHbl+F57Y9f6vzv+nSbgH2htbzxpDlQWZavxeXTS6GAq985XiyNQPGo09igKCft1f1A3J3sRUBSADl4Nl0sc9//vOXb//2b98ak6pwRIbrNARhACs/upGJ8LnuoUPd2xtgoiStcMA2NLDXwZjb8MBOstC6JbrrjikqcgawiSHv+vjHP76HMHoE+VZm3XDbZiv9GYKYyE+5hEZ8dLjtznPO8/Vtp8HNzWlHAGvi4nsChgSve93rer0TgBAPF2CquAAunlCYA2g9uVLZPOuP/uiP9uspZEiTw720eVBxEM9ZeUWuvIDAPeq865ynUOJyWN6yWmBT+b//+7/3hKwTTX8CqClot0u6+5KMR7UA+/SnP72Xt67TsxSn+FDK6j46OOPouG8ZZLd1vHEfEO3/7zjvCGAtxtvoArBvrG2EPFcAG08KQKk8lQRIoYR7GGCvqa71KU95Sm+abk9VjBmTSiMsy1hWCeJdyU1DCGCTR+4DaHl6qGApDmBf8YpX9Mc78M9gcr03it6+bWANlt4//MM/3A1tT+nw5xDfuqzs0PbZB9i9mXorfEcA6zGodVeAPfnkk/uLLQERcKmcdcBEg1Q6HpVuR/93fMd3tMeyMsBDo3kMSqbJVQmu2fhYxsITELhGkT1fB7DCyABauveTuXpCFxn4witsnQI8Z981sCHGPtnnPOc5vR6b8keG9Hgzjp7z4Yp7fbrivzU05ztff2u0ualcdwSw55xzTs+2AdZykQX5eNh1j5f7ucIpqALt6P+RH/mR9lS27d2xlrFUeNV0V3R7oboWNgNZ+J5AFbnOaTABijNdHHT+gz/4g3qN570tm3zhzo49yaZ/9NGYgNY4NmNvY3Hx6+VdB6x4ZL3WpPRbQ3O+8/W3RpubynVHAOvlwn+v2TbAem3b2FDFqNRUWCoqQFgHrHt7BH7iJ36iK97SljEt4Kt4wEGRMxcKoAKq5CteWAAXcMlHWMbW+CxvBbD0m4+kxzcTOWRGrrNJ4i/90i91gzNUoUvKn/JG/+gmvj1s8e4D7GzhPV/vCGA9Pfq3f/u3BqxJjHXOVExXSOU93wNBKnA+e6plPVPFewSbBwXAkLFsQOKMyMpBVgCeuAAm6fDgz3qtcCsEv//7v98f9bDFUV7S5Uhj6AxXf8iJTPF4jb9/9Vd/tYc0Hn58I8BKQ5d9gJ0te9PXOwrYd77znf2s/pYClooAYAH+p3/6p9vD2jJo/dWTLcBQuYARkDijVLqKJ2OenAmbx9BJK5yHJQ+oAPb3fu/3lvfUWPabBeyv/MqvbAFW44neM8DpTYcc7vcNCVjhG9OOAPaMGhK8qZaF3llDAs/pMySQfSps9rCAogIdM/me1c/8zM/0shYPa1wYjynNnC5pE544+UQ2QCR/YQDrjFc4EmZI8Du/8zs9+RI+H2TgX6fIS8MRz8P+8i//ci9v8bDrgE0avAGrPQwWB3rStW+VgGluknYEsCZdb3vb23pIYOJi0rUO0FTsDAAVOJO1zJ/92Z/tCre2qdKBB1+AGIAmHCjEB1SRmfOcn7zCF/AKs0rw27/92/0AIUAiP9dJgzdEfmTQjR6GMr/4i7/YDS7LbdFXOmnW9YrsfsS8D7Ax717POwJYy1qeFmVZy9rmOmBTWUCAUlGpQPc96apHso+vZa3Nzc3eA9vLV8WfWbf0GWOSIzx5uY/8PTWQgEee0uAl3zpsj2GrseERniNpyJ4p5XGmg/G2VQJvIPC02aQjDRmhlJf83cILrLs336S4Lc5zzvP1bZH3LctjRwD7+XoNxueHjGE9MfLgICCKp0oFR709AcE67HfXM3lPjLyRam1zffmKvACWTGNW3i0kHs35yytAEe9aGg8fPKXT0P7iL/6iVzikjW45C9sTRaaxtocentD91E/9VI/F08CSjqxtMrzZvtuCyBS2HXtbXG1pUJnN17dF3rcsjx0BrEr3ZixP9drXvrYfzc6A4U1Ubg4qrnsYYX4oww4tgPWki5fFhwJKgHPM4bypAyiSl/zdZ9IVfYSpEo9qbYCxwgGw//RP/9SbYTqz6c/uQJsiVpfKZIKosXlw8KxnPavXk+WXIQNWcuz2MmaFy4C9bbKK7wjMtznNIJ2vb3NFvmGGOwJYFc+rqvhXvvKVvXUvAAOYgEsFBkhAN4NBxelWs5fAbi1DBHJS8fjn2b3SkY/InUHgXr5ZvpqflDVIKj9DGQ8NNDRjcK/S7I0iO/Gz7noC2yE9mv3+7//+5T73uU+zRW9p8dMnthCWeMw9+Sqebw3NIJ2vvzXa3FSutxiwhK1XnsebF1xwQQP2b/7mb3ppC2AQYKJUzt4qD7+Jine3/N6AJ152bXlOn193UdkZIuhyyXI/g8BvJ9jamHzCPwMfyAHZhh3bC4HWVkNbJEPrZaQ/itzkKVzPkE8YPbk2nOsZZkDPsqQTJywHz9reF2Drf8KTrn1yxYFzpar4VqXKXasd9cYGYr9+87euyR9pOuom/wyZxUKf+jdoO48kphrlWnbr6D58STfyFhMaum7HR3fxXdwheFWmbb6kXz9/Q8CuJ3A/Z+r+6/WhYq9U87B/9md/1rv4t4xdCjEmgKEZYKPw2/G8IL7Nzc1eywRYj2utGJCBH9jIzqRGGJl2byHgBk7hM836eCXGWrE3aV/zmtf02NUWSftkwxeAkiHMvcN1Go5r+nqMbKO5IQGdjWcRvjRYOkV2yp2zmsu1c79efuDoWcjhfRuYVSSb3vNEzIf2rqpxOOBkVQK/lx29JRGZwpK3axRA4xE3Pn633Sjt4Z0Jn/KMH9KThj0AdtikRHR+o0HKT2rxOXK/LZXM0dNuO7Tt2D1f3SrArovylcIrCgSWtGwisa6Zd/8p3K1/5aGAi5IpCFni4wHd2/QCqDytmTdAGC4AdNJK4yAHiOXHWOREnjhGQcDmWv7Wif2skuWs//iP/6jP15+xBazo5Yzm+1xHjnuA9TavbYUmXTaf3+Uud+m0dM2Qhe5pBNL3Ufra6O26/kBRgw1g8dvni3jffgmyGLrhrEBCtokjyuc/ARHA2aLBQ2j9H7rjrHIpWoWhzrsChm4pM/5tIA6+7QYoTWyxm1x5t1x/AJWcIXM7nDQ0lBj5b+c34vb+d0cAa9e/yvlIPZb9+7//+wYCUPBYAIQC1CgojJHieYTHyN6K9QKicaEJmPXZjY2NBm345BcZMYpu3vDEffYhbO2bLWCRTyfdv0fJGpY1ZGNwcdKlEUQ+4CDgkHdAJx6/eI+Uf+zHfqw9rDG4xhU9pcOXBikcjXMqeFQfEM16VMLmLQSuvgo50nqPjJ746TH0Kt7i9y+gdR7/C2D+NUuAuJK90sXwIrqNTImTxjG8qXA8jvCPNCu9is87evhDgx8+NKAxWWYCLJ7ubdslKW76vCOATcF8qOJf/uVfek3W72wZJqhQlQBM8Tb40ewJxaWypPHQwE5+YPXIFijcx9PiRQAUeQGscGNh8jWUHLp9Ey1P40yy6OsVcOkiLw0sAF0HbPJSEbyrp3FWNnxS3oODjLlHpQ4vJw1d6DoqOIBdAbXANAjAAGLcddeunF3BDbkGo6t+7abYWu8VPzHiELC2pzU84HEL2L4f4XV7ZfMhEF5bFy8OTxwIGzj8foMysoEfrU5jlaeGondYZdY5AuoAoJ5tlFHvMMA9bCHtsEGVYVc1+HpR03Dk5tKOAtbESzdr1u01ag8QUsEUzUHhVGIAAlQMYgzq7J6hAHRzc7MnNUCry7WTyxhWWnJUgK6R/MgTJo7BvSnrmwQ25hhnA6pXvoGV4bsCi59e0jvLnzwycgjPIUyj8DUawxYbtzUsY0n6k4kXn3uAdT2n36qkrtxtYAJaN7J6IdIvSMYu+QQoEACa47prxiqJ18rxyQPJh/5AqZfxXd4ryg5+U+IrX/3Kctmlly2X15vNepxrr6n35coz+gKjNeXDD799l83nRW3xdH/YYeOjey1zlbd82MuYWrjmMsrJ81d9l57KQqVduzKGH965e4ZqVNLSe+i+7ZnJ3hPtCGAjGAh8WSXrsdZmESMqCCMGCMIpGYAJd82z4mdIYciYFlAdxos8rbVPYL5DgcaqAH7yAZkxDA2A2LV1YiDlWY2zfe9LY5B/KhbAED2RvKVF9MnRAfVHBZlc8a55Q8JYm0xxASx5oxK3gRSZOdOhX9SsMw+p6zSh8rHnq6+5urtOdqFz61tAAEQTMedK0p6KVwVwttAYAfLy+orj5ZdfsXz18gJqfZnnsq9c1mf2EYaXDF7u4IPrwyB3vEODVs8BvEccUTZm5zqOuEOB+bDbd6PkcQ8qgPtMqjIPWxn6jIYJsPGuyqlHwDe8qcnWiFee4GMeSkizJ9oRwKaCtGSfueRlX/rSl/ZqAYVUWICZoUEUVQikwK55RAUIgITxum2wAqdr3a6lpOOPP67GuQ/qSY703qOy28oqgO4fMM8+++z29PY3AK4vG9KBXDrIR9roKX+kLMIDYGWUBmgQQPstr2c+85kNWI0pk63YA98MWHk40G4NoIN027VsV14VeKGwzNBn+ZLT+lZXzmsJI6M56uwe+L5w8Rd6idHY/Lzzzq99HRd0ub9anjXDH41AY+hhgbxKnvyUjTcFul6VKLm67NtXmM1IehMOY2Pj3rVyc49yGndcDqmGZCx67XWr1+MP9N0Its2QYNh4OB89mCeTY3hEd7ZCwJrydMBe/uwYYCkkc0blyf6yXvfmzQBEHCCIDxBm5aSJ4iqG8YXhyb0wPA6gtdS1ubm59ZEN5QOwayuvr1XF8SAA60mWCaBhgXgyHeSHyKSjcHrOeeGLfsI1PBXryPcIjF31AvQKL5nR3xlFlvscFbhSoza7V+O5sn4lEiDJl9cMVIDWzVbqDpdHO4nylCaOGqSynldfPj/77LMasGwg7oqvXdG2GePJ7YazyrzV0G0b0lDXR6nbXuUZfUaKwzj66GMKsPctux9X4D22h2bKfUTFHVLpjHmBlRfNmWclhzzlH/ZLubYns/hvUw9LKQqp1LPPOmt5cy0XZUE++2OH4vl1me3Zd9JKn4p0JssRSoWrRF2/bss4Ml4Rn3QqkhflaXl8YAQAcTxqDsazIkEuvnhe8oAP8Vr4owfZGbsC6g/90A/1hFBF00tZUPR3RinjeniXGX/94/n8rpmu/bBDDxvlap2v6R/l08U2KHio8ki69AvOv2D5zGc/s3zwAx9czvncOQtPyknoYTRSY9d814we1OkxcnlyDSCk2fT6b0+CxqTJagQbeRgDTLHLHWpsqze5173uXcO0+3VPA8RHHHH7tqEysof37frL5FWHhjll5lWdDpuwpZ/FKo3Kk+++iSl6rZ93xMMGSM5IS/cUycK89/6tcwIPbwAUCgRwzsIAAiW98HjWLQ9TPAqIxDuQsK70ugcqwEQA4hDP6ABIVsDqHMDiB1i6kMXYPIo80kOQ7Z5MY1dgNXb1wODetZQlTumjI9kBOZnyc6YDXgcSVn/6WjfNwwLvwYeMt4EDLnYbnveAHt8Co2HOZz79meWjH/toA/a888/rz56S4Vtgunw0gFj6tBcbvQt9oivFhwrsPpwE3R3KUco2uMfKwvim2aHVoEx+73OfE2sfheOE/snTO93R3OKIHv/G5jx3lzu+p/NjExPH1Uum3VC+8WrBjgCWUVKZvBnj8kyWtt7whjf0jn6zdK2ekSgPFGgGrHsVyFBzlyjNzJd4eQYIrhk3gKWHA8DEyVO8a0Rm8nJ2H4BrTACLMnlLBZJjvGpVwIMCv9+FN/KkSV7SIHKj5zqQxRuzJj39+ijQCgOSoWeNYevej5584QsXL589/bP9qzwfra8x9ldrLqluvyZaXe4C4zXlrftpV6FRA9iSW17Tv6Y6CS/H3ToKAy56r8w0+CrNrv2AyRO3Yl41MB7XxOz2tz+ie50HPOD+/dsPD37wmFeIj4MyofNLQagbYdVNyrWd30qv5trznx0FLANTEFHWstbJJ5+8vKuWud7nyyq17BWQqFTEwNKFXDMi4OFxVuFm/CodKaBwfOKQ6wDF/SxXnvjwBDCuheNzljZheNaHBHjM1HWFVgbsdbBGbHgQHfEwuVWL6CdM3vIRd0DpTf+UufOsMkc/6Sz1uB8eaEyydM+Xf/Xy5aL6EekzTj+jf6v3k5/8VK/KWJ3pNdvq4gGq11x1wT2ZAjMujVWKViDldeXtQMa2ddNvPjjTW3rDEDzjo3bAPRp3e+jiQfRlsxNOOHF52tO+q+zziHo6udkTNUMYDsDH8QwtyJXXqOfRuMeEi6Shi6u90Y4BliLrpDvlWU2+Xv/6f64tiJ9eVcQYRwacMZz7eKI2UhWQIchW4SoRhd9ZXHhzP4wyhgI8ufuMRfEABSMinlu+ALsOePEanjTy1gXap2ujC++6sbHRcgBQvHyQ+zQA4Tk67ypPCew88ZphIyBTX77FBZwlrEA4QNNj2xpSseVpp71/+UhNaj/5qU8un7/o810uTiJ5RAcy5dcYKLWAVlxA3MBdAcQkiZ3plXy7PGUXRWox/qyEtRyyZFIEsMprPnDXu96td6vZxH7SQ09a7nef+y5H1goDG/P45LIPu5qQxQnJfyx5DZl7+7ujgGUgyigQxRhSN+VLgb4I44eReVmz1nhABZUGKZR0zmSQJx61ARmpjlDipXed9EkLmDNg28sVH+MEsNGDDHlJI71wxLAmd7p92wbzkQ9DActrZCXv6OZ+tkN0F97AKLmpKPmBAm/a3qzuWpeaWLUeNRb9cv0qz/nnn7984uOfWE5916nLJz/xycV49YpaXx0fYNagVmPSlXnkRXC6f7LmQ9kQdu+T8fzSxING521rD7i2xOIjHpE5yqueRr37dH437Ec8ssf6Gxsb3Tv1clmBdtiherQCbDegEtafJl3VdQvey58dAWwbZVUIymhJvAIAIY9oT//s6f0p+X/913/tpaaArBnKKv1UZAJjDEZeaN3gAR5ZACBN8pQuxzqQhUuDwu9aOTIzHoA2Kbyyl9DswuI1HlUfLb7Xve/VvxrjyRPAkUW3JidAYYcqfxqEOHx0xjs3CHE2ECmDQ8MxJLGgr5c686wz+9u7H/5IedYCq2EBZzB0l1nJrj98Xtto1eX2NUiudJJPX/dphEvTJWcvMtxW2Oq0fT24SrexbMU7ooxpdesanDo4uHS3R/g+J55YH3t+ZH8J54G1mWmsU5dXrcb19eox5HFIjW3ZkF1SJy14L3+2ACt+fMFwL5w3EUz1ZKYbG8+tRxcpXOWYvHg06o0EntZKgrVBBlLQVLiKRgGf8BlgATIeBeVB5ZFucZYzAxU/OZHflTnJbk9eugAMr2psCjTyOO6445YnPelJ7TV4WU/Z8KEGbFXibtS1PRpDA1Y+xUBP+ch7Ti8t/fGaVOE57LDDa+XiK8unaxjl9aP31jd3PTm0MmDFRb7KYjzIZLF/ypUz2bke5Qft4SB63AqcpW/bRV00jHZv0NKLwWMIw6ubnCGeXbR9AUv5p/6FoArXmO9+t7v3g4aHPfxhvZriQUsvI1b85bX8Rq77MTwYHpduoc42N6vzboBdi7v5t1UQLY5790hRCcb3YUfF8J7sAKQmCp6EeffLT9C3MUrLBkydY9wA030qmkIBsmtpFJYhAQBAXUeG+5aPeUVdMXU9h5Nx6CH1k0VFwECu5RmPgO9XKwJmvV5BNwwYk6yDWo/KagC2gLhO5I8GQ4dR/lKux3sQI54uARr9eR5jal20Cd5ZZ521/PM//3OvZ5919tn9gyd53DzsNbw42/a4t5Qgd4wpV2NhilWYfQeVbb8a5JxNL6DIs0YPDmfwVRdfkd3g2LH5BrC7ZytHgU9DQ2wo754cV17keZjgNyAe8IAHLt/1XU9dHv6wh3fjt7KAL+k8/aIz+5AZKnEr2rpYCrCX1d12QFhuyZnhAxQFRDyAAlxVHsPZZAKYv1JdnB/G+Jd/+dfyHB9avlQzXM+7r6qCj9aqxQ+QOge4KkgeMwjd7ylcuoC3K7b0meXQD08O4ycAYTi9w2GHH7YcfdTRy33ve9/6DPyjFt0ZsNqy2HtU6aVxlBzyTRaqR9ymMueYMG0vV8XC0sReOfNq9Ot1zjoDrUmiydWrXv3qXs+2EiBsjPnKo1XZVXAVos8A0uWu9MKBim7r5ZcnYp/YEkzGWHiEiydPON0M8baX12pYU3Vpsw1Z9EYZ6mT5kS5kyN+PSD/6MY/uiaqNQhwB2RpZ68h+Jcu/dVK8barGNAC7HXRrrthAhoSnABRhEIDtDRrdKEZLvvSyL9fTsLNrE/Unak/qexc/j3TBhef3UxoG6ha8msWvL2eRK68Ym2EQ46AA07VGk8kVOXi7Cy/eVFg3sBIhz8OrG75LPWr0IMBaq03k3iuzb0EXTZaykrO9eUPeDM+jybWo5OluedY+CxhqlqH8Z4f620tLwD1WR5yVz+NV3yjzRZp31evzPC2w0lX56M4GyuwIOIVnaCQ+diRz6DyW1/DN9sIbu+KLbaTPpFXPI3x7KJLJ0xga6CFie3zkILJ51LxGZO+FXXcZCuBlj17/Ld51WolZBe8QYEmTF+FD0dHdqaxr6xFgbzWrdUFVtat+SE7lKeDnzv1cDQ/es3y8PK6JxQU1Prvkki+10XUxCgNo8dqpHEYQl8qTP4MjYQhvd/XlOelktUIcg6cCySDbD2mY8d/j7ke1J/XUBmBPOOH49gZ2LA1bAhmjAuN2xQrrbq1AiIYdVmB1s4VWsUPGDFjeuhf6C7DI/gf7ii0HAivvKj/607crufKMPZxTJh4OH36AYwNnOgoHaOmlQa5RZOCTFp8wPY8zucKTz/pQIA1lrgf8iM0B34b8ZzzjB2s75mOWzc3NXnmBA4Adn9ZPi+9k/WclYhWwQ4Cl2HbBh6f17Bhlba23zJWxvUpDQfsrbYj4fM14L6gdRcBrguGXv88999w2mMpZr6AYjPGT56o0faILAzOSw8QJn0eZqQQyZsPeo3YeWVu9333v1zuSjjnm2AYqEHtEaqJx3fWryUV5RfIDXHoMwI5Z7jDwADRdxv3QsLDQvPjjXcsUW6sq9PPs3y9JepmTh82mnZR73R7RJXUw8hz5y1W68Ix8ByABhV3wI3Gxl3seFY/0wvUu5CivcIdrRMZsB2GRT650Do+0rbZ49+2pT31qvyGtPBpxL2sVzzrN9tPwd2RIoODGn0hrRtfUc/EyW08ghsGqldbwwMZhGZu88EqA4AnOF754cf+aC8DyKlYVPMo1UfOcfzYA+XPFuE5lyIuRHXRxlpanZlTG5zWMR3VLftT43hsby6Nrb8B9apH7rvUk6053OrJa/9hU02WrxjeGNdUAye4KGB49DVM+dBi69d+t6xEMpPPR0eqq9BqPXC+p9ekLLhhf0fG6vPfOkDLRG6lg5R02HfKE0xMJD4Bmu8ibt7WenNUP9sGfQxlcayTWfdldugBZvPzZcdT5eCiSfKXFL182T/4JNzQAWuNYTwoNtwwFPAGDBXZdp/8mwNpwPFqK7rV0bsACMeBau9MlKCRjCDuwBu15BQOwrXfaXOxVa+u2wHrmmWf2e1dnnHFGA9c4jkEYIBXIKzEMY6qAHO4ZNpMA1yqM0bwvZkJlucoeT5OAY48em8J5kv7NhPKk9DIJozfDybeXdMrjjkoAlLnLH4Cdjc4WUEnv7WPFsWLXGGxYOevss3rMahXF+2Z5lC2d8iDlQAEB3RIvDAkLYBLGRhrp5uZmezbAsTynvA71w5Zsb7O74Yj8pU9eZJOD5OlaXuLZFgF08nZPb3WVepHOGNZ3gK1r3+XOd+kHM914tiYBUg5aZZe7nfOwlEQyphTDGr8yggrzVqfwtFCKKIyd61sz1BrDSccbat08rR1fAaxtig6gR3gjj+wYx5kR6QSwKkMFWbhWaa4DWLN/RuN1DthlZYMOo8fohxntuFYe3ORqC6zQNhCn4qRr41bQCAVQWo4z/XIIXTH1JRvZKmid2jKWoYB9rHoZZQwoMQcwyocSx+7KLQ88ZAKKnszBs2qoGxsbPU7XSGfAKj+H4Ef2PltjaHY3NDM08PDCOFq9kI+c5R3AAj2Kg3CNh550mx0MHZ72tKf10MB+DEMydo1saUNt09yUA9mRIYEunmCVNjwODzAKxJtmLyRP2y2plEPCVQhPpmCO8biuJiEFNhOl7OtkCJORk2szjQV04QwsvSOtumWsjCoPRjjxxBP7txPM+nnYI+q4Y3kX14YFvWeTR61CyHfs+K+0VYbdJwMDdMqrooqjdXbfwKr0xVF5ds6dt/x3vxdXNOq9L4FCQ/SDfC9/+csbuCLS4DTKkR8bbw9/8ATA8gEKhzD2AlINU9frUanGqcweNWvEY0Jm+LQ9dKILh8C+Gg1n4dG6Tfl+fEWjoEs8KR2TN31mXYUj59Svs4ayUaA1lv3hZ40fMWGQySSdzp8qykQ7BFh6USoFYTAFo4QwQwMt3kSDpzUUAGiebKzTjm5FGt42smiaQrv+WHmgv/27v+uFdGNbxhUPLOTHeEnT8kqmrufnf/7n+6yiVCrDJR5/tbXu/scrKmWlChPvZ5WyKF+4bAPGC7Pw2IHE21fDBCb/VvYYE6ttwI7y+Ls72Stwdj0YeOcp71z+8R//sfcSG2fTK6skbJpDanEpZ67pyyHwlhqiV855MGDNBz6yfitN5CU9uQlz5lXpxUF4OmmIpmHxuGzP5gCKV95IfbtHkRX58bQZgthT/MIXvnB5ZO05uE2XtVJBvKtC6EoZxgoBr2pjx5U1+1UYYDHA1robtF3AMWFQ08IQ8OFHCgxgZs9/+qd/2uO8dJezRwFchktrlg4Z5PuUu7O42ZBmp8IATXgMPozM60Nfi6kaGBOk0f0PUG8Ddiwl4SVLut0Bu5IRUV2no2e66PMX9rqrN3rf9OY3LefU+1jpYtueZYeUJfoRQ++5vMLYwJAHGHyIxPLcxsZGD4c8eeoHHmUX6ZQ3gEsjlg8ZGkoAyeNyEIYsPjwCwHq/eW1Y3tLSCZERO0dPgHUkDyszvqf72Mc+brxiU3WxTivsr4J3yMOSVrpWZesaa7ljBUIVpktVwQrPo1LeRt6tVydKo97AXDx58qGgewKscdUf/uEf9qva87qq/FOxKiKVKJwsWwFf/OIXdxekwhkzjaEBW2mADC5nAylTU84FMumUE3oZXhnRGPYIFzYDtqN3+yOPgN712eec1d9J8Lbx+z/w/u6KlQGxgzLkfuQ/GnLbsgCQMucMpD/4gz/YS3UmlYYGdEJkDf3Gw5N04RpegKX+2BOfhiMcn7dIfIDEhMxQwQQt+pCLomfqL7pzUImThjyTL19cf/zjv2M5qnZ4eXCzTiuxq+AdAiylKIEUTuVdffUYd7lXp+1tmkPrHmNZylgwv+6G1cy3GMdPbG57wRiCHB72T/7kT/o1ct2ScRqj4kmLdp+js6s/XmX5rd/6rQZs+MThY0SbmXnPQUHnaIQDgJhX0cW3bcThIeU/9AyIB5BL/O4iV2mBFeg7XWVsjPjqV7+qtw7a82r7JYrc6ClsBgibzJ7R5MrLmTzXM57xjAbEoTU88DgZQBDgkOc+tnB2CB894FjuSgMQLl9eFmg1rNe//vW9moBHfCi8kZ88jZvF8crATPfjjz++12MfVx7WXo2j7nFUxGydt20taMcAO7yWWlWA0YLGpmLZCOt1tgLq8E5jUqZCDBcqNbYmBXGk6xhAAJ79ehzlY3O6TpWq8KnU8BGCdz4AdvawI6cVHyTiz7+V7YehBiArmtSVzKQe5wBvID48ziu+nN02YEfjHunGeO+DH/pgf1D5Xe9+V5dLd9zspcRcjoQpKxuLYyf2Qmb+edfMvl3eFQEjj4n2NNQY9bW9B4RMwFVvKLall6GYnu4f/uEf6j2yD9TqxvYDGbxkOeTpLC15GZNnoiws31B77GMeu3zf99VnSmtyvE6jHhK6g4CNciq2DVpepLu9cry6+tt1yx5PSnhg41wgGb8TO2pVq/SkB2mRjBZSOTwswPrSdzaDiI9Bw6sCRyMZlQmwv/7rv95Dg/AknY0daH3Q32VYGX/IH2AcY1PXAySduJAYww6AjdAq3u5UgAXUVGp72kpodeD3fvd3F4BlA/ml4ZIXXZzdo9g798KMWZ/3vOd1j+I7AiZfoaQNuKUPiXMg8pK3+21dBw8gnnXWWf1DgtaLP1x7Hr5QEzGeG81DMzJ5U6Q+kncH1B+NR6/Aw77whb+wPKJePVqnlVqr4B0ErPHpdqFHwd0rsMoFPsYYLa+6IOH1zwMET4/UQ14FkU6LTJoUwkwVYHVJ87LWbHy8DKMFB7QAa9JlLDtXsHT00cgOqAmiuBiIPsAVT0Fuj7FXfH1fTJkk4kW575u1P2TLsxtyXdv7ymN5i+CP//iPl9Pef1rrEP1Twal45+jvOgc7sZcP5/kVG6siSF6xDXtEHhmjrKN+8CYuMoW5zpkcPGxqaOCDeurBngfjWfJRGhydpHcfHVIf8hYm3vqr5S09IOCu00qFVfAOAVbmo+J5htGSYlhxKn8YZHgHfWMM44zXK8gVujXJwB8Zzg6A9TlPg37LKo552SeFbXkr4zISwP7Gb/zGboBN/sOYlX+BVvXwuNKrgDqNIUuVgc79M/c1iUR6CUAnH986YIf80XDxJz9gReyklzj99M/2z0W95jX/VLvWPtV5K/tcfmkz+erE0x9xHoZYY1VOv4Ju3ZX+6sQ4XxkByEHfURdjqABQSJxyz5OlbTsMgLmXXrduwmUn2cte9rJe4ZAXXRA+eUTvgYGRNsBOeUx66f2iF71oeexjbgzYFjj92ZEHBxSK62+P2V5o5DLKoCBAt8o55woeQK8KLMAqqKECeQ5keQxQxGVZC2BVBMM50qpX0ps3RmNgLdiQgGECBMaMgRuppYt1VIDlJVUgGg8+BoiljcGthkgvn5QteUoXAHf06n7kOWQZgliI/8AHP7CcUkOcN/3Hm6urPXNLP7Ic0sQeyW/kKZdBlrF4VT3IE5/4xGVjY6OBJZ0uWjrloXsAK0ydsSMay4zb2y6lVd4AOfUhvWvp1INlRkMDzoM8aRwIn/p1jm2kR9t4OWh5PMD+ZgG26oktb4p2CLDjSZPMFNAqwFa+o9GV0SoouuRMswrHIg5YFUQBHW2wMvJ4e2HpR5Z/9Ed/1F1RFq5jEBXgCKXCyWCIX/u1X2vApmLCl/x7Y3TLoAtvMCaIum1AHh+jsGQ2PK8hENDG8AMMADEqa6jSJausgI5+usHI37VceNGFvWfg1FNPWd7y1rcs55x9Tg87AsiUKedUujKlfOJMVr7v+75veWxVvCUt49d4zgB0TqPs7AvMeigyPFBRhvA1yIqPIymNmz/542d3e3Z9koqnzaNb6VF4Uj/RtyNX8cLg5fGPe/xtC1gVMV7ByKy10AeUVTkUH5U1wJRJy2BYqY99D4CNgWJEs9P5wUEG+PJAOa+kroC3qz1PPOxoUGPRHP84JF6lqjD5Dk+ShXWNZzwEcUYqAmCdESCPj5yNIUIHrv5Qryeaq3FuyuVDbbyTVY+T//Pk5dzzzt0NiHQDnJSLHejlIAOJMwTwc0t6ECsFJls8oDjlnYEoDZn0Bur0ThoyPgfZ4pOvNMJyuEfeHPn7+oA1wOot7P8IJY9Zf3GzTOWhn7Hri15kDHsbedgoyYZtSLbsShrdji/h9fP5CuepKOoYoC3GStiTlVEHWwYdoBiGw+9Ji32idjKZdHl4wOCMMuSNyqAPPYSpXB72N3/zN/s885EfDzm+bDKGJHRkSDrt3rUPBeUnHeOTJy/XzjxsrzmvykKXihqvmBRg8dR/GtYWvvO6tzilJi8mXueff36nFyuPHKlkeQHUDFg81jB/7ud+rgHLuwKfxqx8sUEaKtnCM1SI/sLD61r58KVcwx75rOaY9Y/141c3YG2UUSf4HbEPWSjhzmi7fg4YQ4LbGrAUGIr0qRQcXqXHgB4M0LNYdgds8XQBqiJVfLFUcbtwqawYjTG1aJtDjJ0M+j0yjJdViUg6FINIl0G9c7plhiO7u87SjYekm3hp3StSVj+GPI1APqNC5LPNt92wAHYAgSLFXSrZuSbPgNm1SuZdTy0P9e5a0jJECBijHx1TpgAqPPIX97BaznpBPZNXPstEwAUwsaF08aDSiGM3ZGmJvDkP13EErpOeDdpelU7D8RDhNfX7ZvQ/++yzew2Z3tLQG0mLhOdwv14/L27AmnRBwd5pR8awuysiswG9jNs6pCtx7laGV9KtKiCgZsJFnoIO4GyvOngp76/++q/bK9k3y8NKi2KY+V56slRkP+mqSUkbssIZHG9XXAG2Pdf+A6TSAKqKNcbTnatUlZ6x3iiznEdFBNjRhbwqclO/TVy71qTJGBf/ufWWBe/6rvKuhgYAG0+Gl34AkspPJeccHp9O+oVf+IUuZ96VYo+t8pUW5NIJBbDkZDMQWaHk64zwHchexROgkwewr66XJC1vzYCVJvJSj2QIUxbXaXTCDAle/OLfak97mwBWwSgi8yhI6UHDq4yusoA8NaCuyHQ99bwrBZKOccnqiq8CMvJH6v38v/3bv20DGTOZeOFJntLjc2aUHGbPvaxVm18Qbw58+LYAWx61vWzFRY7Hxn7SiUx5qCSvzFiKIXtQegTnUYbwZpfXOmAr27aXb4+95z31if3yUKec8s5+VSiAJYNNA1g6oZTJWZjDAwO70ZTTvoGsYeOXHs8MkNQXGTOQ8SPxjvU8hc0e9tO1CeYfancZwHqk7HH5TLOuyoPIQO7Fa7iPe9xjl5f81kt68rUbQJpz9z874mGHYS2flCI1hhuvkGSMOozcniV1TIfijQGu02cKKFIIhUmBhAGV5StjWL+rZQzrgxLCGFxloHgOZ3KEi7fk84IXvKAfW/IowCpchWxVqElVedhRscNDdLmqK/dGQBrk0K9462XK/euLftuTSOXRS9S4sVxrb6H0cYkuJ8+ShsQuw4ObdFmqA9i3v/1tXen9RkPpTQ/6yVd51gHUBSapeEy6fqJ+OfLRBVibtIGWR/QUkb4osgKYeFvyUeyNL7ZbTxsb4BeXSRfAXlR7Z7OxXnwI3yyPfAfKNQ/7f17yf/rBx20H2KrY0qANPQo/WhSvg4bio1WN61HB3ncfj2oVYhRGBemKdfmX1UD+snoaxBj2Yxrz6Yo8bQHkAFbhVQajOlzLR7xNzJZ9VGw2bfNCZtOg6m4TAAAioUlEQVRe6QHi0TXWjqL2BLwXLzO8Ji8w5JqIGNMNuVk5kA/C7x21anLVKMa2xREu/fBYg3fo+l//9YXlYx//WA8J3lgfFjnzzDO2KjeAUo6UKxVMZvJ03tzcXJ785Cf39kn7X4FWHaTBuqY/uzpLo9E6ZzXBtUMeiZcu+ksrLvfSWdYyCTanyLJWM0x/pIkukT+Xg46GbN+CMSxg8o4qbxQcEBuQ1w0wUpiC45jGiw208QMUV5bXHC/jXdAABU7eFHhteDF2NRsFVhXJGOQiclUEEs/IyETERhA7mex2N5N2bcHdMpCPZtiIceghhxX38H79jprKW1VaV1bdJ8/RUEYZditv5wnQY0ijjkcFASxtNIJxVslnVCM89dRT+hNOvkioLLFTyiW9fOeKnvmU6bjjjutVEF8E10CVHQ97AL+0Aa3c6S9eD0O268h3LQ17ClsnzkRd+MK6IZpeYrZ3+KUlG5FF7lwOOvi2lkfKv/IrtV+59vCy5U3RjgwJZECZ+j/yqzK2t9GqryuDlHdxj8c3mHSZXclVeeK8z3RxvTV7aRnBNVAa3/GoPorsnmFVgkOhY4gY2bkNYDtd5cMDhBeoE6e7VMHe7+KJ7llfJblngfaoAi0ge31mHjZsvZBY8kvbmvEPENvMQ+7If5SfTmM1wBhcBY3uX52zzahAABi2+Gq9LWxYYNPLK17xiv6Sdip02HOAtxJsgSnllrcDEMz0Tbbs1Hruc5/bbxi0rVflDljkzybO0qKWV/ca5tBvNAzx0SF54ccDrOfUJnPrryZdNnQnTjyShmyNJPmRl/IJ08v5POd3FGCf97yf79WOAaAWscc/OwJYlUGZrcZROtM7CrdReBb/KtyYEKC8Kaq1nusbsqeNj0YYuNsQ4nDtYGSeguG9xeohRQyv4IziYKR42HiOGN5Z+tH1j3EvEB9Wm4Y9i79bGc7zeE+Kji9vdUyB+MgCdl7n6W2QNT4F2JHP+AqMfJDtkyjLV4YLbEK/YZ8BXnoi8Z6iXfLlS2q31nvLU/1N75WYGxq+gKbtW/epcPfK46APsh5rQ7TJV39TwRsGlR9eZUWx1aiTIV96G7gpKp5toyf5vG28NP3OP//89qpWNvwkAOciPvKjm/u5J3Qf/V1zEPc58T7tYZ/l3a6y/TaIcNyY/tsAKyuVNcaBgFoTnBrn6vKB8eKLv9hrqb704qsvdtprteJMphQshmM0483ZKOJSeGcHYizH+n3iUrkBfLWhBvGdjqyPvx19bH+b4Pjjj2vwHnPMMf3ZSF9+OaRWB4BMo7O/YVTgACgjaygV3Dor8zw02q5ANhjDFJMioFDW91eXCrAmk3oYjTgNTlo6R29pRiMY4bNNNjY26qNr39VjQu9x+QDzdoPKpp1hq9iO3IA+dmMbQJMPoDvwACvvqtd7+9vf3qD1SriwYY/hwclJAyGHzsIQmdGffU2ITbqe8pSnLJsbm8Ux+Jp5D39WgK1a+yaIMq2QvPYgioIMZByqe7dgbmx6en36/Myzz+xXiwHVMtXXvj6+4cSQ0jC49AzmkI/7VFwKnwoNUPGi8CU+/JGF3zKV36dq71tA0lUZOmxubvbLez6xs7l5XHni+i2DyrsUaNn+tLzSFQAR7z/euh3GSHwDq9IFQCpUWfBb/XjFK17e+2KNa9No8eKhe4CZhiqvhDvjs4eYZ/Vkz9DABEz+OaSZSZoQHkQWmwEnyhgYL2AapnkN/U1vetPWu110QmzpGm96uj0BFq98jj++3jh4ylO3Gpi5xM0A7KWt6lCY0gU+Eld/Rpm2CyYKKnWNuMduqhVg6z4edSRn7PFahIq48MKLekfSWWed1QvNZ591dn88QrefbxMEoOsVxAipGBowjoPewgNQYWhP6ckIfzwAfukPOuh2JXR8LlLJ3B977DFd6Q856SHLgx78oPK6Gw1awG47VSFZq/OvMau70UDoUJGlm4chxuz9hesK7dfIK8z49moeqyaQH/nIh5fX177Sj33soz0EsiKy7mXTwNIAS9RWuWMXZWM/QLUuC7iGO3qnmQefgz1ip9gNn2tyEODh1RPoAYHVqkA/6KjJcNLjpVsAG/uSQ568EFnykM5r9z4O99jysCcUeI+sL+603Zpzz3/Kw15a2CvD8gwNwUpSwg3Cx5uv27PwiKBAWhVD9tbAqiDKUFq8I4r5Gp+9rJZB8n47WT5o/KUvfqm9qgaQJ13iWodVIV13PqVTiHx5OVAqxDV+94ieeFHCZ1niMy4thi6D8RxQ5jiqVhN8cvOkh5zUPzhhktYe0opItVp59Zpn5ZG85KdBs6t88eNjaz9+Z7P6+eeNH2o+rTb1eIBgLCj9fMwVTk6OlNc9ii2ktfIBrLrbfI/ApAxIyOP1eFAy8pBB3TmQMzni6a1n1CuqP55Vj+B1bzICTPzRgQxpkXAUvcmmh3R0e/ZPPbs/xXm3u969fpvMN3pHeTrRHv5sA9YGlZXCSSPTrlyz3ZLTStWEyRm4eY6eRVfFpZBR3Oxfq/RDvGecccby7ne9e/nQhz/UL65d+uVL+4kRfeJJUjHCUrhcR49UjnDGkeeWzgInisGiV/iE5xAWQLsWzpje9O2KqDKLV9lWFPxspRf8HviAB/Zn43kET7Mir/VT55XOtYbQP4FZYfj8DpcdTSZantSdecaZ9Y3cD/dH8PwonOW6lL3Tr/RLo1S85OUc3tg8NrGMB7QmkEBLb0t4VkdG7zDsLj3AKrPrkDIDtboBSroaq1q+MsnyVIu9pIEPZ3nTA8XWzjNf4qxqGHLR7TnPeU4Pu/qH9GpNvI2HcS/UgBUHgP2vMpGxgyIKE+MoiHGmOJnqLsShVLxr8QCoVepCPBExUFdwBmAIRypCofC7l2cMEVkptPuQMHnPLVy+kUmG+Og3G5QM8WTkSJ7kucav7PFMyqeyfbv/4fUJ9Gc845n9IEKYSou95jzJFi6t44u1dPfZz57er5fwVrrYjFcBJJ4vZZjLSlaIfmg+u8YTvQ0DzMKtP/vyjVeqAfeE+pQo4PY3w1bll1a5Yyt17MGMb2sBZ5YXzz57/G6vIUt4Yz9ncoRHr9RH5NOZfh7e0Esv8OP1hO7BD3rwtmOMt8S8BxqArYzqf3fJAR4FZJ7WZyLh+/WAhrorqQrFp5vrc/E4K5BhgPd+zCaddSE8LpBTWjcjL5WNAFZaJN+EK7QDJT7XeAKwGIdsfDHeupzIEB/DzvKUN/euTWSkASw6yk/F/8AP/ECve25sbGz9moy8Zrn4v16TyEsu8VXCC7oBq3zrlrpVNkLySb5Ayy4ous7Xc1gz1Z/YS97S4nFkfdZs3MMEevuNBo1OOeQZfekujfQ8PefC4QCsw7V5CP3YWDr8sTcdHMJD0UOYOITf6oWeyhOuXh2oCe1+W+1xO33kzOdtwFaXlR/nVfmApUAy0hrHJ92HogonvjTuAsgrBldgnsOisg3XKsaTKpU3A8+1Q6FyplgMuLfCxwjOaObbmyx84U8aZUjaOZ38xals1/RWpgBBGh7CEMHk5nu+53v67EkZb6tClEdan8K/sJ6x62F0pSabehiNFSh4spk/ZXeOTsl31l8ZQkkT+892patwetHZUCGHyRhP6wy89KBPD1kKmFZzTIaFcTTOdJGfPFxLQy/2IgMl3LX818Pxm2z53CbAbm5uVoO/c/3SYsB+swE7vBzlCNWlyIyClKAwRVUkI0RxFYqE8b68hgp661vf2hMsi8w8bgO8+FJI6eWT+xZSf4Q7FBa5RnjXD+HhF4dynq8jYz7PgO2E9Uf56JNKpgOACZuBgJ8sj0OfvHqG75e9gTa24o1sCOGd7DLzarr7DCFSsc5kkyc/h+vkJ16ZhCPhKGGpC/eOxDdT/UmZxYXoEMBaBlM30VtDygMb3jT6SOtafmTF0woXFmCmgQufgSxcej2z73x5wPGo8rK3r0Y0vgJUDqTr+mYBdhSsF/ZXXb7vMOXHxigHsBSVoYwp4J5SjOIaOC1+G7c6VBYQi1Mg6VJRDCs8NBuavBhafPhyFiaePPkLD6j2lC68kRU5wh1kzBUh3r2KVLlIQ04lSZPu1uQBWH1pRbcrTvdv2ce4Xe+iERsTKjtHgEdDIE9e8peX8rCDsuCNjYQHEHM4HdUHYuc4j5RJOgeSj4NM8XP5XAsjWz3TjSy8SZ/r6EH3yKI/PjKEOeSFhCFhbOVporErD2t9W9p8arNqQ4rm39uf1ZBgCLZRJYWmGGEyVpAYV0UJU4GUYTDx3gDwxWie1RKWAXpmva3UqlDSqpAAfjbIXMgUdK+KV97SOiIz6dfP4SMrBnUtD5UVg0snnn6u2SANNIBQVunYAbHLxsZGDw1MbsiyPGVI5POgvBUAkCuvpBNGFhIuL3oKi450kNesv/iUT5rUR7rs8NJDWgdKmpQt9+Ln8id/cpIOL53wBtzkIHzCIy9nccIdISsXhgE5TLxKNOUKpuHLOal2P09jWAmry56Wt6KoJJ0xxesANoClrDGR7s/6qgVlXV/GajEuOQ78Cuw6LZSxEIMIRynons7iIy9nYTFwDB6+xCWfVJhwFR6PB5AoQxeAwpvKpIv8kj75CTM+NLHhQfAbB/KsJmr4lC22SJnkJe1M7mdgBBzC2HwGyRxHduKEp6xkC49t57zFyS86JA1+OrMNUk/C8Ekfe4hz7RCHJ3nho4cjPQcdrVQ8+9nP7r0OJn4mtDDXVigZ4+JmAraffa94FXBWIAWgmAI4YkC8vOnJJ5/cwwEzYN2fglBcmshzrwDOMYL40HyNBznPh7DIdHaIp6Nz4uTpSDx9UMJcq5S5yxfGo5KjQc69AF7hc4NwL1zeOciQp7RoveKFSecI4Y89hKlo6ZzxiQtw3AcoyiIfZ2GxQeQKj77JE08othIWPfHjnRsuOXP5kj56kCNdyhAdydQDaMhZGTAUMOnCE315VzK+acBSlCDCZU4hnki4e12+bs+C8tve9rZeXDbBYtw5rQJKiyiZlkd2KkLh5YOErx+Ja4bpD3kIPxn0wqsi140oPHLo51oaRD+yUlHSzxVA5/BJi1IO6fCmzGSqqISTpZx0jJwAqQXVH3H0ER9buBeOord7R/KTpzRzTyE/FF7XdCEjOgoLKbP0yNCC7NkO0iqP9LEpHhT7CUd4kbzx080DDPt0jV1NVAEYv/j+3GmlwX+LAFtpm9+m60o9Mp0yJpySjEE4Ra3NAapXJIDW2h3AoFSIdI5WqGNGRcezaQDkKmgKi41hcyStePkygvSMzJDuo5N71xqO5SPdcxoQuTGwPCOXfsKdo8NcscJD0iROGhUrnjyHuACILPZii1RQ8o9OuZeWHGl1lfbrqlge3+s1l9av7xgPK0+GK7EPmwew89iYzngQ2bPuHbgKT3phehZp5nqUNoBVHroqD5rthU86Z3zqSNfvQ9KGAh7FRg49kfLvqieLvSelx7Hbtm6GtT9bky7hxq8yQj6Vni+uKAAFFZiCFJahpzV/V59wN3Y1DBAWhfHjQwognTNyPRcUX8ATPveOOY5sRlCR3hhQqZ7meBpFtsKrcI3AzNw40ozdLqMAZM43eUoXjzKXUzi5sx7C3M98KV/ClZEewtkuujkjfPRxn3zdK6swn3r3uUxjPtcan9UXa9oePCjPrAeZ7qOvs3JGH3IddBG2TniTVrx7erlWp9IKo9ssw71wJJyMNGDlMa736SSe1eZyky48eCNXWqsEXlUSV2gRtFdqwBY0WgjAqogozOiUpjAFEIV4LktWZsK+yW/dFQ+SBqVCXStYjtw7h+ShEAhfSAECUl4HUC12W++0cK/1urdpwp4G/NLzEgBr3RNgrWDo6hzxvMrAaHMFyVc5hEUWW9AtDZk+KHbBL8+U2z1+8SkzWZEnPOmTLvG8qfJ4IqWiPZhQybyqZUIPYjgJtl/3tNGZfnQJkNQDnZyjl/zlPZ+jr3T0Sd0nffROuplfGNnS8KAmoerKWNUPyCkH8Jqg46XP7KkBVjp7OG4WYH368tprq6uvfwRG4SiSAisggwDBO97xjgYs72r9lcIhhck9WUhYDvdkoxQ8FT4DHUiBU2E3NsbP9czvZqlg+siDoSOTjAZogfJyR3ko3SmPayOOVQyVbnUj+aWiom90CwCVBw89Yx+6a8jihMVe7qVzH4C7xx8ZGTPqDZRTGa3j+sYAwCqnxX35qVwANbllb6D1MEKjJI9c8pF7+ebowPpDJ3zOSDzelDflTFzi8aCkm/MjL+ldB7DGqRqcIYDxq94QINlilidPZSttb5mHpUy/dFeK2ZdqPGH5qkqoZFsFpRSyEvBP9cUPi+PGscAQimHcU25WUFziY9DZMOQDEC+uso4uL2qzxvF1bBRgVaJdR57OqHDGwo8CGNfkpALkBxQqnMcFWJvHfWbnnHqEbNzN20YPRnWNpCXfOfHOKgaffBg88eKEuZe/e2VBATZ70F35eCJy9BTWcC2k+8aAxXVDH7zp2fBpYPQGWLZXFktnGiQ9Ygv5Omb7Ry/nxOUsLPZyjZyll69zSBpx8nNmd2XkPHhVw7QH19vJTynPqjyGbMoSuTPAPfIfb2CYfJUjKE/7jWg1JMAGnKPlKbhuVSaUUUExnsrVNXlbUjfFYIwaRRQcKWgK5961ikwFC0thXctTWnmqQOM3n+B5WHkcFcgLKbjKppODvHTrWjB5wpD8kPvIBlz66yFUvImi18Yt9OPPoaxk0YW+iA1QyocneeCTj3PC8LlOOjrgEQaohjQ8kadkwKqMym08np5DHilP7A+c9LehiJdVF3oL4bEFXvkqg/xSDrLEOcSh2AYPytm1tPhySEeGY7aLYcxGORQ9hFfpnZUNWJOWLOmjD/t02cBOPgXW8dKmnPdOuz84KL4oo3IpH1cuY14qY9dXvepVPXZVYHziUSo0gCVPPGWdxTsjYQzrngGAUAu1o8jMUvdoHGRYsJ5OftGVLGlj0BhHOJ7oIFx+Ghnv6mGHoY0ewzhX+WaPJr17+kknffSYy5B8hOFBuXZPV7ppbMZxgAmguv6HV7epB1FGtp7zkyakDJGVRkdvQwR7Ve2G44HzZE066ed6me0Q2WlIKY9zdE96MlKu6KF+NTygNM7WE+r+Ada9hocn+GA/8shhwzguQBXecT3hGvZLudfPW6sELWg16aIUEjYrbayqK7KMZcJlOECh8DrPRnE/G4C8VF7iKC+NQ0HNKG098waoGTKj0EEB8c76dCFXOuZ61l3e0qRS8MQzG+OqZMA1+/aELi/U4Qcu6fMAIbozPIrOyY9sJD+UezLkaQigfBqgBul9JveAqivFI491wAqTR+wc/TkUqwW8rR5COejP8wqbe0jAYXe6SedML7JnPeWTOPzKKi3e2N+13s6DAD2DcaqzRqgsACxeOiQdIotMpCwpJ8A2Jm7Jbq1VZ9DKZiybQlKwqc6fqs0cr33taxu0JgAMlgIqPMLvUPikzZliDB7FpaW8vIxLtU6/QWo3z0Z1McCqYHhmYMgrxiaP0d3P+c73yUcYfsZzzZi6Up7qLW95Sw8RTMh4KTLlq4JjdHrTVdqUL2VLfvJyHT73AMmjGtPZZc8TmWRlUhX9jensOUap4OQVHYSHP/rxrJyJJS/7OfSC6ibDBEMFvGwZwHYm9Sd6x3b0Rakr4IvN9ACGK/Gqun5jbo6FRzVkU276zfLkEb2Fy4MuyWcMB0y9YOhmeNgWUt7VslYMHiUJtU+WIa0FvvSlL+1uKJ4Hv/QzRdk53DWlIzc80ptF8qoq03rd5uZmG4ZMRsfL4zEGAhYVEGAwbipWOP6ErYczpjgHwm/iZWnOZEYZTWaANpWbxkJW5EpLlgOREz7lpCteupgo8kSGOMoJvCoXn3So5RSvt2hTLvEotiKfvVD0F0eG+mAren+p1sQvWm3A5nU5l+xtkFZeZJMXMAsPyR8Pm2tUvCmdN8qJAKd749YcfguMPOv20tEpuCArdiM/ZUk5LGX113UqjWnUzQKsl/8IyMYXGQBWKocxPIY1QfEFbLuxYkzpFDyKRakoJDxhCkOuM1KpWqyWyrOqTF0lQygYY8qbDC1Y2hgjLXQGhrci+jXrSiuPHDGSMyIvZXOvoi0R2Q5oyGMyk+93JY2zdJGZ9MLE8YDsIF4c+4RHJRvq+MCFRsm7tr3ZfA2A7slMuegXEgec67rgjx7ijXGNyQ0VPDrneV0bu6PoSJ6hkTTS0zf5utao7lBj7nvUBJETcSgLDxtv2gKr/HFZ5KC5XAkTzkb0TxniXd3fIsCOit4GHoUVTGZarW7GOM8PihknBbCzASmEZoXW+VLh5BoGACigAqyuUhck7wBAAclIAyJbGK9fynUcWQwEsDHc0GT8FT8fs44tq9LKr0FrIlNe1jZJFU1ujEwG3eijwuiSIQMeFJvN15bjTCJtq/MEi8fVGKWJPGfyu+IqcfQlZyZpos9sZ/x0JVdjdihTGr0JpcbvXp2RIR4fOYCqy1cuhzIKc+ZpORaHa3Uhv5nIEJbGEDsIExedcxbe/NPYdUjcXe6ch+uedFlzve661eSpXpVJJtZjPUFSkZmYvPGNb+yKpBBqoKyUTTrhlMSjwChGSjhj6GZ4HhXpzPPgC0ikWzeAAoe6wJUHmdEjegnLgR8gxEmDyMnhXhxvo6x6kNe97nU9TNBYVXLkB2AqTnppVDq5OSI/ck1IjF+V8elPf3ov+QAL8gh8vHk8dIt+dEc5R3bKFN0Tj5eOdBGnPAGdtOzaAK4xueEdHvwO8eFVrl4ZqnrTxc/yXeOXNuGzvq4730qnTO7xzenoicR1WsWUzn39qxvRe6XVOuyqclf+KRkQ4rdfzzvv/F7+MSTQZRrgI3yUR515X23/EaYAKIWUhnG0YmutdurzPpvV3ej2gQMvnvxgrzIJy5HKcI4O4uQXT5U8GRjPngCLB0mbilCxxn3/Xp+/tMZpEqZ7BYRZFi+DAubIFxZ5runEM1muU06vNZuobJVvF/tsVxJ+B6K3PNFcLuHIOcd835H1hxw2og+wKlvSRl7uky/+HAmLPnQhgzwUh+Y8NNrOU5roNttjtpP4Ll8lztBgtkVnsvZnLGtV4A1loxtqLEuIDBwyZVhd4xve8IZeyjIcMEmJ0mvy+jYFXY9LAYBVBRrP+SE0ExIzaXnpYvGlO4qx+rVkelUcg+IVp8DRRfhcEVsGKUXERVbKWBn1gL/5qiKKoZ+4XFCPcC3bWeP0cMTyXSpchSH6JX/pI98Z4adXdKKv8j7/+c9v4Gb2LT76zHJaSP1JPUS+8PCLc60cdKfP+oEfX7p+92wU4HT6CouctlHJCQl3l68bGor1U1BhmIo3ZZQ28kTlOnqKT76J92FAfF2+kZOovdJu67AmXwzdSpbwVr6SmoxkOYvHsYwyt3zS3SdjmTvch68VKpnujV2t3eki/Uy6BfQAQP545O1oWa5LXp1K5iiLcIaIvgAhLCRvFDnOwqQBut30JVgeI0GXz0oBwGqoJi5IunhU8hhfvomTv8aINDx54cHrOp9252kt2el+5/R4uryrcuQ6ZSA3NgXAeDvxHm32bLt43Cet/BHZ0opDrmOPxHWPWg0xQwE2Yl9Ez/7Y8yq9NLGHvJRFXtKIQ9HDOXnjjQ54fGxEXFOfhn4j4MZ/V4BVwAJTLWtRUIYpKAUs+diV5QO2nsebbQpHgIYCnBjKmSIKhRSYotJZMDdj9iHbJzzhCT2WxRMD4nGkkHSRPjKF91F6th4lNxVPd0fSJl2MFtmRH33Fh8e41HZJgPWrNcbv5JGrnEmLP+UHIHqqOOFZEpvtaJ3ZkABg71IzbW+MZgIT8LFDCIBa/5I76yf/GwEW0FY2D2/K5iwslLLEVrEXPuWhMx467QbYCm+KLSqeHmRrqNLRjTxhc/7J25nsmdpVbAVt6znz5Ho3wHaFXDs8rMzcU8gkJPteLUirUIqlgISlIqNoKmodsGRaxrID3WTLtWWSkMKQPVdg8olOZKTQwhzybf1XDY4MYQCh0l07pHPgRcJmcq8sPKkGahkPcNlBugCUfvKY5SlzPOzsicmko55Eua01WzlQbhMc+tEn5XZ2L524HGSg6I/HNYoNXEcn5+S9t3j8M4VvzkN8QNy60W+Vrzh5ONB6npEnLmV0dqChXw1R6omXBlohHb63P7sNCWSWtVgJVIqlEJMPP9FoPJdZMcURY6IALMoHsFFsvtc1Pq9+Jp2HteYar0QOHdpYK6N0gaogu806FXhlsBhK2hgkujEWgNExekV+8nJGiXfu/CsPDdWDEpNNHheQAQyP8s6gJUMZMxkjgx7RRZxhkA9vACzwWj0QTj+60j8N37V8xOdI5QtH0dO1OJSw5Cs8xxw/10vKLN71fJ8w5+jnLB987OtMb2HJyzmyIkN842Qd8AXSvCpzswA72mj9XYGbYAXmVQD0veVpXvoXf9HApeysOKWQNA4kbFZ45iFXlzj/ujbedepfoqnKGrLkMfJZl5UKTt7OqWBAcC2NQ5z8Y3D3DvmHN3oI98jW8pb1Zw8SjN1Trtgh/M7JRyUCNhkavEoSt7m5uTy5Prxh7G7tGWDpL04auka3We4sey4PXrIR/dF6I9KAkga//PBEJ/kqkzh64E0Z3SN/1WzSO6P+tZxaRULkVoG3HIsw5RdGjnGxszDr5WTYh935Vg4HHFDlbxyMPKXfE7WHJcRPD9GPwkiBjMOMV3WNPA2PI9N1xfGncGS1gpW5goeirLSGAi95yUt6HKugXbAwrs4BUGSEJ/lgS6Oia0i8MgQAM3+Xc0+ArTTyy6SFLOnOqQ0leWfNsMD4PfrIO3x4o58wsgAWBbDirTs/6UlP6p4FaD3iFC8uQwNpdtNZpVZ8h9efVDwetkzZlRe5p1v0CWDFZf+peHxk7AbY4tkTYKVFnR/ZNVGqpG0LZaVd61F6St+61TUdHOUuCsjp8geQlckXLukCor0WXQ8RRvOo016oAdsArAcHElp3VSkyyuTD2utf1y8QetY+GyRGoaADtYJ1rSBorthUNsC+6EXj58Yjo5mnP7PMKXi3S2nnykmktPJal4E/+eUsTcKd2UI6+gOovQV2p51cr7F7vDkDA28auGskbUgY/RK3Dlh7YuexcWQlfZ/pPAW09FUe0VueSZsyJM91G1RhWx4+cW2nku8eRf++r6DkPfLFh2fwbcmusDGUTPjg204dubHNkCqPke/AD2AXZ+uxtz/bgK3JFt7ZM3km7cmPNUm/xwSwPGKMEaEpuHtx7mPAANZ9QGSFIIDdKnSErZ1jyASv3yf8mzmTGWC5phPA+iCaPbMA++Y3v7k9bsao6RnSMJU7ZSdDw859dPMc3qsjxu4arUe0ewPs3sq5p/DY31l8DvnP/LH1fKbbbhApLEmTtA1v+ComgPKd2630q5R4Op+BwxT3FpxnDebrG4sYgC0F+9Fs8QIVcFGKhwVYFfZXf/VXDdh4NPGIoq6lQwqK5nhxGoIw/AD74he/uMdy4Q+YO/H0pw1xE/dT1Dd1OedDT4ey2whj0uXJlwcoAShA0hmA8c49TyqbQikX+VYGgDWHR9EAi9I19039mfVJmPOewuU/54PHET3mNCnb1hkIqyrdNypHJp32G6fHPHDg6tbTLGO+vrHEMYZdtZBuTcWj8A6A5WVU2Mte9rIGbAo/CrhtQPwohYxB8IsLYAHe+K1/rLjOsweOzBa0+pP8ErZ+n/CdOEfn6GFLnnG78vOwADuXU8MGWGEAG69KRzKEp6dhl2xQ512tPwNsT1ZKeQ0hspVlb+XcU3j0HjYA1u16wJ80KZflo/Egps6VaDu9u8FvnJq6bBmrwUGnKLZOswI70Eb20OGW/p1BOl/fWM7/DwAA//+bW6DBAABAAElEQVTt3Ym3Z0dVL/BDujMCYQqQECC3CRiGMM8JIIOgECKIDAqi0eXSBWv5YCkK/4Qulgo4gIrggD4RggOKYoAkhDHMEAihIWEUSCAESDrD2599ft/frf717c7tzn39wrOr+/zqnKpdu3bt/a19qurUOfcWV3z7ihumW0zTdItbTDfccMN0/fXX1ektpm3btk0/+MEPpv/+7/+ezj333Om1r33t9OEPf7hp5B922GFVaCr66zvODx4pL3YtoJ/5Xz+dfvrp08tf/vKOr7vuus5XH/rVkPJJX71O+k2NU7c4cl922WXTBRdc0O3/r//6r2nnzp1LGclB5iOOOKLbdu21107a4lD+8MMP7/TwRX+Xu9xletSjHjWddtpp0+Me97jprne966ScgFd06npv7dxnetVB26FJjJ9AFnXMsXbONlxqvQors+HRnIsHsPR/5Ztr80s7u6L9/llKQMp9lr7FDFgNKXDVvxFAAPvtb3+7DfbHf/zH04c+9KFmloa7GBvnOnkBIH5opIsB/DGPecz0ile84mYFWLILUbz4C1/4wvQf//Ef03nnnTe9//3vn7785S/PRAs6xgdMtICnbQ7pAbIC0RHAPvrRj+520wHAjvpO3SkjXg14rYbwr4oWsFoHLVp893V0OWUXByZ93id1vuA6gjWgnfn3r58DDCNIx/M92e0B2HhMSr/66qun7373u9N73vOe6dWvfvX0gQ98oDmMjZewbGidA2rAKj2G7IKLn5sbYCO/WNA+bfjMZz4z/eM//mO3/6KLLpq+9a1vLfOjA3pSjt7CR9kANnn0cLe73W368R//8QYsT3viiSd2mfASJ0SWXCe+0XSgC3HF4TnGqQ+Z8xuuL/nLsVx/Q90tU3hdlMJmXfgP+P6Rs//XT4WuUb0p26n78zPzmUuM53vy2A2wslvoigm1a9eu6fvf/3572D/8wz9sLxNAo23BnVSgSNcBa9JGwIbekOC3fuu3+taIntEdyW+Gi59VA61ej7QHeo6nI6AjB8/5sY99bPqLv/iLBuxXv/rV6Xvf+15XIT/ypmxiBNoUzyudF3Wsra1NT37ykxuwD33oQ6cTTjhhyW+17cptFPaWnvKr+UlPvMoTPJRJ2+UvAQqVrqu9AWjOO6Fz/ZT+CvSrdS+zb/RkrmcmG8/3LLg7YIt2rBTYrrnmmum9733vBLDGc1F+gMtwCaNSogD8HMlD/7CHPWx60Yte1Ia79a1vPR111JGVv84n/MSjPBtdj7Q35Vw9ZNY+sgKcIdAf/MEfNGCvuuqq1gU6bdi+fXtXR0fSIqeyjuTjGV3c6173mp7+9Kd3u+973/tOd7rTnZbAX5U9/DaTnjrFNxYi6yp/JXcDaiX09ciw2W9Ux0EHbAmnsf5XrDFRNAN+8IMfnP70T/+0gXvllVe24aSji0eNsmKcKEZ6eGq781NPPXV6wQte0B727ne/+3Sb29xmVMtu56uKXb3ejfgmXpA9ACSnDvrKV75yOv/88xvIaZu8AHL1DiIvB1nHMvcrkD7rZ3+2AXuPe9xjusPtbz8dtk1H3RMEe2vn3tJTJxU4TxjPlc0hP7xQcxiHpVwXX+cRXnNcnr+dP17rOXW1SF9P2/zZWNd4vieH9rBzvfVbtLyHhgAkZWvwJz7xiemNb3xjG+5rX/vaBLTyBfQOdCkndu0AaCH85J188sl9a3zsYx87PeQhD1neGptw5Qf9GFavx7wDPS8xS9bDur3kdFcx4QTUV73qVd1hx/Zt1C51j+kBanRBDw94wAOm5z//+Q1YE7Bj6+5y2EI/q+1avU7bNkqXNqYD3i0WNiGTI2Gk6zTq1f6+WKcL/e7xAvB9+687B9ssyh9W+hvr2b3cjV2N9Y7ne5abAVsV99i1aAMw41eNc/3Zz352Ovvss9uAJh/f/OY3lwqKQgJ0HkdQzpF0/IABT2O3Bz/4we1hn/SkJ033vOc922OhXQ2rCl69XqU/kOu04YaadOy6Ztd0xXe+MxmzAuxf//Vfd4cdPSoZImuAqV58oj/pDkHZo48+ejJufeELX9hLW7e73e2mY445pssoh+fYtvG8mSx+NkpXT3SLF8CSD2g7rut9heZZ9c+eUztQA/ocd1nnRQInPUmrOpVzpN3iAwtjufF8T24NWEI00Io2k4UAVoO/9KUvTe9617t6eed973tfL+/EYCNLwlOePHyiLGm8FqUKxx57bM+YH/GIR0zPeMYz2vPc6la3mo488siRXZ+3MofU1esh64BPKdpBPisj2mvN2dj93e9+93TppZf2rF8FaceqcWK4sc3SHMB6hzvcoYFqKOSuAqxWEsIntGmE643CRunkztAk9cfLunYIqct5+HS9DXgrBFVnYaDL8pi11Om8CoJv4bX+LSZXXW7RPnx11JG/OjYfRpCO53tyaMBeVw8Ldl27q3OBRsVRgMSvf/3r04UXXtiAfcc73tEL6BEQGAkfYSmPggJ85dHgh045hrrlLW/ZQH3Ws541AS6vC7SrQZkxrF6PeQd6TnYHMJpcfepTn5r+9V//tVdFPv/5z0/fKY+rPcJ4pxjbnfPwGuU0sbSkdVqtwT73ec+b7n//+y+XvaI39GOZ8Xxs10bp0W/o8Axgw1+esrGX8z7KNtdb1ioM8KAN0rLftsMKgAXYxG75wIxGiBxA3HAuWv8OLIzlxvM9uc2ALZBdU4Ctdi4VGcBqoIcHn/vc59rjvOUtb+khQgAZILrtaQTAijcyHJqxQxjLmjV78nOf+9xnOu644/aQMIpJxup10m9qTN4f/vCH0+WXX95A/au/+qteJbCsRwdje7VZO6UHEJEr7R7j29fk6p73PLnaefr0zGc+c7JCEE8YuZUPD2njeWj2lR6ayMOWxbL5kJO8DrJH/rShCYuBsoDJqbCVY9v2GtoVeKW1zAFmcBUAQ/LiPLJsPg4zJcbzPTk0YK+thlxzzdUt8JG1xES4NFBsksXLukWafJmEjQDFVhlhqYS+Wv+hDEY/6qijOtGt17LOwx/+8OmRj3xkPQF61LS2tqMBHXAgpGwKzSQihuz0ys/tDq28GMz1RqHEqLC7UvBiRA8GLrnkkh67vvnNb+4HB/hpK5nUFePztM5TX+RynaNrqmt3D+NXHdM6rBWC0I8yJi3xmLdaz5iXehKzAf26W3jwY/3YuQ4pnezaS35H67eAqn3batVi+zbtdRzR7Takcfe79bG3ronisW3DtlHRK0ted+kGbKk2nla64aZrqyHtpUvI0IvlzfrKpG132+zRTo9mr73u2unquh0yJkABXzNd9Ei3So0F2Ne85jX9xEt+DkwDHAqQLkTJfVE/aBhf7OBtKcIy19Oe9rSeiN35znfuMS6FCOouhtP2BWDwVAeFC+GXeufGrzc6sqCVFzldJzAgg5pcvvOd75yM03XKb3zjG12GPlKP8urKWDb8pOGPTgCa1G1S+ZM/+ZP9SPpBD3rQdPzxxy/z0ConRJ8pJy3tCY20MaSM+gXyZA+Isbg74xe/+MXpK1/5ynTFFVc0YMmOvsssbFU1NVjp/fDth7dnPfKII3v8ffs73H66213vNq2trU3WkjN8QwuQ2nrdtdXe+pfVAvIC8bWlWyswbL29OoGA9upykNdfN893yLy96px1uW67Jl752WMMS+EMpLAG5fbh3KPZ173udb0+qdfGaHhGoRspW34rZ0EXAEjHwzN1jyx52/vd73493rM2SyHy8Twc0EsuttXQXQvAZuIy8sdXUG5MJ6N2iaXnuKKGATvLqMbp//mf/zl98pOfbG/L8GgdZM6hXIw+K3luH7oAW/3o6M9a8+Mf//i+kxi/Gs/yWmgZuwRdtG13Y+EniKPXxNKSz2vypO6E7OJOYZXDZNEYHHBdAyzHo4Pis+S1qENbeNduZw0FAPaoo4+abne7208n3uWE6e5rBdjqfMB7xzvdcbp9rXTcqsbnRx91dJfJ+JfXxPu6av915QyNp3lrwwvn15X9rikZPA7WBt738O3zJiIdZ1+hAcsflmlbwRSICbAEtBqooSYj//zP/9zrkpRhbBvQBghRgkpbmFJCC198GVBaDjTSGO+Od7xjT0Ysc7l9rpVyrCbEU/UkospW4ZqpFhAWco4AwU9QH745pEU+sXxA0i7yX3zxxe1ZdUgeiWdNu0ZZlWXMlE97Umdo6U6b0BkDu2vZN+BOYh8FL7tjx46eeGaMrOOlLeqJvHirp73Yig7TgYy7tcHeB52NR5XmrqEdbKceHdB17k54l5Ct03hGSNCOHrcuQKs9hghHHnlUAfRW053ueKdprezzYz/2Y92mk9ZOavAeVcCtog1Ik3ist5e+BPYSDDm6bQH1wo7bqqNIL2Gabm8/DVi1mARSjAYJFBjjMKxevLO219m1xLCWfWy/kxeQM5BDiPEIEQOP+U20oHMu76STTmpP69EtT8vIQEuWuTGzjAGiOpKnfOp0TqaAEn9Kpzxj4XgknsiDELd/2wcZnKEZWNvxi8wBp3QB/6ShG+UDPICVjhc65dxJtM0DBBMvQ4Ojy4MxtFUTMiqzrWTcVjyEtGXUs7rZiTflNOwiC2C1hV2AU71uxepWJuWkLwN7kb8AACrWolnQNc8HSJXYq0jubORjE20xkTz11Pv3MOHud79bzUnuPN32trdpm/Cu+HX5ineVp8W421by8LZCDyUqnf7w3iRgZ4BlPIJRensMprEeGHhwYCzL0/JGKkFDCWjErqUTwpH88BILaEYAGM8CqXESo7p9MqxxLWMKDJV6lGUQdai3FVSGxj/G4WUEvEPr1sgLffzjH++2uHMAbsZ45EpHwAfwxQK9CNJieGnjZFI62daNMAMcTw8MPOWyQqJTAvCOHTuWHZPsYzvU44gjUY9OkI5mJx07GBI4LMEBK3lH/ZJZGtkcsYX0hkm1eT6veD6taP28UVyXPC9bHH3M3MmOPfY2NVy4y3TKvU+ZTq32POABD2wbHnmkNebDyrPWcmYxPnzpQWe70w32jYUiWEBiIU2LsuHPYkiwmEA16xntzbCKNENsqkFuKxTlGfub3vSm6aMf/WgrM8ajCEpppRe9MiOfKCk85Y0AcM0gVg/MpC11Ae6OHTt6yQvoKCs8gSLAihHSSnWQi8zO0bnmlUxAeFNjVp3P8IbcMejIVxmHPO0Z5VVn0nQG57w3enWSMx2Nhwy9dvCup5xySq9Ba6dry18eKNCBeubxXslV9SjvAFwrNuS3x8MDnZ1151Nf6qQDsiRIF8TRU9LIiNJarLivq6z80CuL33Jd1vmCPyd329vcdlpbW2vn4qGI9rhbHnubY3u+gdaEq4cHde5fB9EsWtU1J1VNOdkwXky6TA7qwUHRUjCDqUTjGEqQ5lzvNhz427/92+l9Bdxv1BsJQKGhGhj6bmDxSIiCpOdcmREA8gCL8Rnttre9bc9IzbJ5W56XIngpZaPc8AQURsU/bVA/I5uQAOqnP/3pvktYEeBldUBeGC8hYFNewCtGRpN07ZQ3ytAF6ge9Qwhf1+SkX4c2GgYAqTbxtgDM8+qwPUQo0CpTPx27wwHqRz7ykV7J0AZp9E8edeEtJpsj7YmO0hZ52kLfrBS6GVSli8o3y3fLztKU9uAzAlcaPjzu7U3O6g5pjP6Un3xKt+eoGvce5vZf/AwzjjjCsGe+I0bG5llp3dbNAXb9SZcGEEBhjRsBEOUbL3kSZCe+22qWfwgQw4RH0sSrQR0ULCQ/yqZAYDZecgvVawF2x44dPUTgpY4qo6Ox5KU+dTMegOLHiPgApPGq2TKDe5PAuM/4j0dEq7ygDD6rYVbq+h0DnTCWcx0djTzGsumgaBM8ttU2kxh3FgA2RvQgRfvJ51ZP75bcbHu0V5enFUb+kUeZ6EAsiCOXMmjJMwK2n2xVXsqj7/KIik14aSce4QvclsNueatbTvc+5d5TJs/3uMeOXmVAb9xqFaLfblnIR7TIAsh11Tz39tMeVg/qWVyVngfa8/iLcADLOJiqVAMZ2ljW5pC3ve1tDQI0oxEBH700jQacKCvC4OnAM8BVH7qkx9vGIwGqFYXRoB598kjKGL8Zy5k8kZMHMjbNkg/wonEAtiP1kSuGioziyClOvth1AKKdSUtZ+XTQxlp0CDThKV2gK0MBEzUxL+shQ4ZDOhWQurMZBuhwGW8rTwZ3JPWhHWWRp87YwXnkWban9G1IAJHS/Cu4Lyde6Ju2KK7bNdsx7VA/2qqk+Nb4ttpiF5plrwc/6MHTmWc+fTq17o63vtWtO6/fGSz+5MJz9t4zrmZ9bAKw3aDqISrGJA2SDmirCgAqCnNr+od/+IdWopcVM14EQAokVMAKGPisBvWhZzQhgI0M8oUAXjqA8ro8kHMHIMtTD8DyqMDq4J0YkizqQtfKGjqS6xzqi0GUEVJGujQxeunJQyc9NClHD2OHlJ8yeLjWvqRrW9ak19bWehhmvG0FwDBA2xKUH/UXwKozdaAd9S898ljYz4weUOcnUnS+rg9DAPUIPUTQ/gbpup7k91G0suhIx3vq057aeyjuc5/7tr2sQuCtnqZ3XvLMAN6kh1X5vLexaqr6MMKgBVx4SALEUBSLZmcN9u1mMnHhAYwR0SgLgBQZHhTJKMoJeAiuo9gILj0GdJ50ca7xpvTEzuXrFECvvhyuUx+a8JGWTiRtNLI8bRk7SspJHzuxut0BlFdOfSNAyChfW6XjmSBNGQc6HZ2XdcdwuJZnsqgjxrOSQVllRh7Oyak+cfQx1kvOAJasaFhlabfKd3t2m7fdsnUEF/41PtZ1SA4BADuzZLX8ZXVAO044/oR+YPLc5z53euADH7i8E5AHryPq4cT2GkqsB5LsPeyxSqDBORSLMsUxhHyK5Ln0eLcpjzRNaCgVHUUGABoVAyo78h2vKZgipVGScup1nfSUle9IvroEZVLONZ7Kpx5pyiSkPLrIizZ8VgGLThjrJxvjKC89esJDnjIO1/LUGXlX+WT9Fp08ZciDfpRrTMcPrTh65zDQkz9HaKSHrhtT6jDpBsjM5gPYtltNvKpIA1LZrNGC8OwxZdGzlPk2D+iR8b73u+/07Gc/uzeu79hRS3i1H8GDBSz7CViNa/GdQ+LF5Uq0BCwPi7R7SsUaL6wzmm8rero8ihUMA4xnvQ7tgYKJgVsWmoAAXbzKaKg0SD5lCikTOjSOyINGXvLDFzDQMHTS8GIYsSBfXupq5Q95rsM3xlW3kLzwi1zqU0YHRpOOqS4yGa4I9CZPOenjmDtlUgd5Ha4dQuToi+FHe9Q10qaMdIcgzXnahT8vbFIHZMb45CiionZUvQvsyJ8/AzDLMfIE3r5DV7vwNPES0lZpdziuJpX3vNf0yEc9cjrjaWf0mq3JF5nmJ5YF3AN5NKuisbG5TmMZx2SF8hiO4vVkS0PAagZreGDHU5Za0CmvDOFdC3iNRnBOEWgBIHTSkpe4FVN1ow04Q4/vaBQyohOUT73SHHgJAXGuR6Ogcx35Q4Mfwxg/m9mL8Texc+t2rn5xAKGsNB4ZX/pMJ0r7pKNB6xh1IM8hHX0AS2fSpYWPdoU2eaNuloCtcld+twA7TNi6bI1He9Wg4gZm6cAwIZu413nPzsBTREAU1EMONLy29j7g/g+YfrbeaXv4Ix4+3eWEu/RS2DXliYXecFNtWPaSTt3zpz1sdyaNBQ63lvpHIXpWek8/QpNePapXFapnEwZgGYRXvfDDF05nv+3sns1acgFaNDko9YjaBIEnQwdsxApN4oiaa7GgTBTBkAEWeROkhT758lbpR5oYWZoFexttPEZsvnW9LFu8i3nzV0bbrROfccYZvSxVhNNltWRmmGTjiZUKeri2ZtcmL/SFZ4AWmcX4JZ0cOeSl/pavygeggCFNh0VDHnzUIQ2ddHyju+R12zCvQD7lZu8KNkv32vllsrYbXs4TWp4av1paVKI7fuXP76oVwGs4wd6AbBOQD4n0cdqje81WneryCBevTQJ2Vo7xyLIHmsXVvwbsYhDtmsIJbTtinbQn0LMAnYHsdvIkzFMwoO3JXIkxgwAAqhdRYNF3XSWwOvDuBenuZXPD1UOpOSiJ0iOj/LmRWM7nI620VqD6i48wG2W+VhZNVd8yzOfFh7EBtpTYs9kqZyZt001m1AxyTA2LblcL/95P86qPx8hAYmfUB97/gdqI8olpZ01Mv+qxby2z2aGEL53M3mx4hFtgjrxtxDbeurwtW7dglj2Ala4drgWOQBoPLc2BHyCnM7ChoUomgugzUTL23LXrmjoWQ6fK63+LekY9VlLbtTd5584JFxUsbwlWIdSvnAc+a2trPQl7+tPPrIcl9y08HVneFVjjcBYdpUvv+TN72AKL/222Xo+r01KCpJKpfqpBBJbchp8bKG9uwAwME66vfuWr0/s/8P7pLW956/Sp2jlkcN0GqNLiVlpxzViZooCq1+OqTooWKJgioyBprseDoUbAomEgZaSrD2/njCQwaNI6oX6WfAC3l120i7EXHrZo8MrhLrO9ntjsWFvr3VcPe2ht1jn1fv1UDgjc5i4vz3rply+bPlvje4v8VlE8AtZ+h3YDAsWXeHNcoCUL+R3a2rRVd9rdlEUTmaUnTUxGZekRTWROnmvjVlscrWcbxtDZD3/wwx5nX37F5d25vr3YBLQAgOLtNUc9qrvHojob/dR111/1th0rvq7aKtjMQzc6ufXlZz/7ObV097B+qnfMMbfs9s11tTK6zEY/BdjvMNNGeZtOI7iF5+tqKYOCP1NG+td/+ZfpQ7XQzdtYTQDAq+uxrke7vNQRgLlUKMDyFDPgVDwCluJjmAhFMYI8IfkBLKOhIY9zyhLG5bUYfeYwAwcYu2cibs3oqEXR/+fYhOn4Ox9fC+Kn9hOdU+93aivejnxLND1BKX1o96WXXTp9+lOf7l1un/1cPUr9729OQKFzX/3DWhuudqvI73Iosuh02jQClkjCUu5BL2m/WHt5erFgQugxd7yqJ2tuz2JpdKYjmxh+u4Z2wOrBC/mNxckqT0dHK5BLXYZNDDcClj4BVMzW5EgHwsNTvTO9GlVfALr3ve89HXeH44pXEfePUnsPC8DunWCzOXAzA+S6buiXv/Ll6ePlWc4555x6EnZRvTp9eQ3sv7eYZOzqRgRsDYZqFFGZDh8NE0YAdkL9yM8xGgo/ynEoJw/wpY+eW9nQUDg9WdYxwWBcee4Mxl8MQzDlTQxMIE66+0k9DvPM3ONUO/Bt9DA+7+fv7hpVTge2WdmES8f1hOrTn/5U7Sv+dC8BGjL1JKYEYK82VckaQGqvNqSNq+2Tn6BN6BKnzbeqznXiXe/aezGMtT0h5FltkOctc7fRPm013tappZPZwyHLlVn9ka6e6DfldRAB8Mmg/gT6jP7V4cFIPornK4702YESZi3M1xv8biFgZwEJ6/GbheNLPn9JA/ajH/1YP7v3YGGejF01N4hxiFi3lOUgvRQyKl1jY6goYa5j99vk2DZlHEIDruIodFT4kq4MAFiGAHbZS0cHtAzgtsd72qhiq+N97n2f6VGPftR0yo+d0ks2HkX2KzwmpNV+XqVfDal2jbfQb3z9GxMva5P1Rz/y0XrLYWfPzq8s73XVVbXstRgGBaCJuyH1Ez2kE0uXhm485LujeBK4tjZvtLZ5KIA1lhzlwsc1XsAq4OHppSds9ot4ymaOAsRWNqJP+hFyB3MHjc6lR+bQcyC8PS/r8fPP/MzPtD67TT2OXQe68qthiwBLYYRz8FhuxTztFQ3Uz9cy10W16UTDL7zwIw1aAmqMsSu/amxM6bySWJ7DeYLrMYQmcYNl4QFCG17L+gpMQgCtjPMe+Ff34fGqFX1NNrdta87ZgOOFSbex44+/cwF4cUutTR28sTp5kgB+9p7FrtrgH2PxYN/85remL9ZkjMe9+PMX1zLgF6adO79QKwqXLzz0+kMRsq6GtDex/OhJmts8ee0Ae8ITntC7poDEeNXyEhmjj3hI13iQUQAwYDQksFHIAyLg9a3gyy67rPPpDsCVA3gxwIZHM6of+sBfUB9a8viC4y/90i9N5gDubPMa7u427kLDzxYCFrDckoGMAs1M543HeqreaaP0Rz5y4fS5iy/utVu3yng8WGRU18KoUIpwJMRQYsrINRq9myKFpI8xmlw7V59x67ztrTrQUP/RRx/Txj/+hOOnk+9hd/2p/Yz/bne7axn9iFZ8PJV6yc8bkwlvgJ83lZCl2tQTuW29wmLVgLf6/CWf70nZ+bV+bbsjkDjGduCVMJ6nHfKkqxfQ3Pa9ZvToAsRj6nNQ1ojlrYaUT0wX8ZjmGD0OLcHZCUit/HhAxI6W6/IwRN06gRiAyY6nIM157CTNNftaXTnrrLNqr8FpNZ4+ridkMLSvsIWAVQ1gzcbJMoXhwdVXzwP6yy//9vS1Grd96IMfmt569lunz3z6M9W4WkXQqAK68sCmQRQgpkSHhqfxY4PQ5JCvfOgoKYZaTVcGHd5V7cLY1onXVylOqMXt004/rfd3uv3ftYDqdnpUeVxlikWpt/4Z0iyGA9fUkpAVAPUyijGv8yy2q7PlrPiaq83Mr5o+fOGHp7//+7+fLqzxIg/lCGhbq0WbOOVda8MY1KcDGVv//M///PTI+kDJHWtvLc8KyGlzL89pd5WXTj55PGMeDLnFxxPnzmB7JtB6TYqndR3ngA/ZuuNWvJHeyYengM6d6mefNX8c7+ST79nvhdHovsKWAHZev53HrsA3e6xaIN82V85YGk1ISz56qAcMxkV66ZU1CzVzdrvMJGRs8CrYNAjQxvQYj9IE1w6KFEZFjrR4uDYksAXOtjixtUWe6TGnP2Z6wAMfMK2dNL8UaWwOkN056xdg+3/xkK6deJKfhzq8AMuzziAtHXXZ8rbFX1m0H/rwh/pt5PcVEOgAaAA2HZX8ZGweRZ8gLW0RZ7nKhOY5z3lODwnQkoUeAEbAlz4EAJKvPNl1FjIFrMlDa7WAp/VE0wdVDPHIqxw6QVlhrCs2IUPGutrnTvDEJz6x9xg88hGPrFdtTqySBwGwxp0EMATgUS3tHFM70HkX4ZrysN+tR3+8qQVlSrG8YwL2lVpNuOizF00f7HXKL/UtZeY1G74ZLH7iQSiAkhwxagwXxaGRNvZoaaMiW7mFb+8fASkFuu2b+Z900t179m+carxlFUDZHxaYTNAaiHX7Bzx8lmO5GiqgMzzo/+QoD2yowBYAiz6HNgDsn/35n/fjbQBI+7VNG3JQQ4zvXFvVlXyTqp/6qZ/qsSHvZdmq21i0wOKhhcmttHRg6QEl3tLlO++6Wv55li9dZwLUt771rf2AyDDG8leCMvjhK4Sfc2nGqoI2msTamH96OYUz60HCKaX3gwrYWbh5x9DRR8/vJZX8bcyMV/WwI4+q12CO8DLdD3pLIsBaWN9p1lzjpaz/eSavYfgynsA4FMfQUUYrtvIoCkBDI925eFSk26aD8qyp3qZepDvuuDv0+/ZeUzGDZXy3/+ZdQOMleVcL7NK0o41dKwtkMzkDyGNq3CvdncJ4eAZdyVUPGjJskNa8quN+78rv1YOWD/QXdQwNdObVjqgNI6hcJy1tJo/tez0UqIlhVgLwEsiUzkp+usNDujjBOfnoXYy/cvQlT7mdi22lNvB7qjn+7YfoOXXhIc2xysdk1utAp592+nRWjWUf9MAHlRjrskSmMd6yIUF6pQpNvEaBLfMYFpiEiA0VLB/xVFd9/6oFSK+oBetv91KK5S8zaLHBPQDzPA4gZgT1CZQYhQOrWTAjUCyl83yUFmUBqJ5tFu1pjwV0nvX4Wq7yMh1g8bYMnq1+6sIPHzEjAohYWrerDAKQyrdhF3cbA5Sko9d+YLaq8J3vzp/1vKBusf+7xrAfK8+Fv4OBE/Ajf9oqxivp5LSu+pCaxDy7hgImM1YK6COAzZ1mVXcjEEHFXdGdkp7JQJ9o1KesIRybsI2hgQ381mnJIkTuyJrrxJE7spMLYF/6kpf2neEgATaTJWOX6rGGM6XveELCEpQw0rQtBuiG1LX8H9YkxCYas2e3GnHeGOB5DSEAGQ2j4hUFUBagUjDe8ikYYKUBZd5QEAesxqkW/r1A1wYukJPJebySIQ/PZ/9Dz/RrGMCI2miSBYTqdMztLA9WtNIFxpEeWQ0XDA28C+cds/Pfe/70L/Vk8KJaOtKmGFfZnKdsgJBrsc7lXTBvKRgSuEsEZKlfOby7gy30pqxDkC64Rnd12YK9cidRnk45jdwFbPD58xrKuDumM0d+9OEnTrpzeXQlcFr+5sUrfufl/ZhbnfsKW+JhCbvrWgvIs+fctn2hhGt9kqaWOXbNEyQL8zY78MDWabUJKFppde42ySvGk4oBTuyw79bmGkY2AUC7qgi8KGQ0tFv8U8uQ96nNKTyPg0cSA/P8sGAxVhwUZr+DsSdDxePwZgGDdvtGFOACOCMAo1DclroHTjwkeRpGRnT2Frz3/PdO5553bv8dhS/VdQydNmifo3kuQCAvh3R3CV8zN9myTuyVcfpC446iPp03oCQneekot/51AK2vJ+NNbvXLx8chKOsdM4A1LLBea3yrjuhe/SPfjdLpxiPa/weA3X1fI2FNwHggW9cAdHt5Jga3sYSiBOufgMGAPJIyVhoCRI2kBPQeE/5VfQbT3lvDBD09BkWXA1+KpSwHz/Orv/qrHRu3OngOecpkrOm8gbAAG9CZMLl96zjVpCq7+CZWj1E91Zo9k0Xv2ZgAO3tUcuBJ/t0AW/VWRo8Fz3nXOb1E1GPBus2SCZ9Zf+seMW2TLiR2boJlt5jPIJkwWi1w6xYAFs8MBfCObuhOOt4ch+AafSZHdEx+aY50TPWbfP3lX/5ly+9u6C4YOcWCMgIeQuoXC9Ktw/4OD1vAXfbyzt3zZ0s8LBdDQIvkACdEUEC9/oZKK/k9zZo9zDywJ1wv78w2aONHsWkwXpTj0KP9gTubxBkECKRTvIYH5OrmBeXh44nKS1/60v5oBRrKipdsIBWNMjqMT+oQp5+61EkbVHtqnDMrm+y7f9KpO1zxAHB3kfU16PKsxU/bVw1FDuuY59XE5byFh730svkJElkiO/m0TTuiE3ljsPvpF3/xF/tRZ75pEHr1ok8sHT+HkGFPeMp3HvsF0LlWTj7gesT8N3/zN/Pdodrirhc6cuOlXiF6V26Uhc495n7Zb/12jWVPK8rd29aFh58tASz9aQSh5gZmjErQUjSLVTD5WDeG29zswZRHkeUxfPBzCMpoqDGTP7/kewgBrMZTjDKCMtJGRblVvuxlL2vgNkAXPCOzuJedio87gloBWli/E7iVL/aW1vKcfaPEO7K8tXFtAJD2KSvNfgSNM5lBp67WSAP20n5V/txqz7nnvqd2dl22lD3tIq+2aWPAhIdDkGeS9Wu/9msNWEMd3pEc6AOwdGD8cnS7y7OiHXUW3l0nvS7qcz3qw2Tr7/7u7xqw5hbuejoAulHP5Iwc8dBpn3QO5bdf9tsl/+m7wbXY7BG2BLC40p8KRuDMtY21rit6Kcms97o0UZnHsPLGnq9xlGhw7/u0nrIYM7lNC/IpPQeF6TiU5hxg84fsusDw0wpc8EdLfiLhKaQ9fd2NnNM6vQiXINT4CkjawMUFDQMDKDqeWKdtQBTdl2piec7wtyO8qUAGR0Lql6YcOXJI00aA/fVf//UeElgzBli08gFCCJAacJVOV4Ze81BnfXKVepdx0XR7FvwCRHoDWE/o2OOSSy5pm5At9TofO762SCOL8gJ5Hv2oR89DghrSUF+CquewPJm2DLBhvf/xLMwNJSkPG4VolIPio3yANSTgYa0UGOTLC1ATUwxDxFh2BQWwaITdenyBqd3gul6aZr9+aLrKA2dJ3GNfcvTbo7WcB6gz0OTNwP3Spf7Yybt7SHDBBe+rp0iX7jF+H2WYy8+d0zlg6JjWX3lYs+0sx6WdZEAnaHPaDUjy6FC+6+h7rDO6H/kEdJ5Y8rAAy8NyIqHHE12ASU48BLJJl08eHvZ3fvt3enlrrNv5QvRFcul23sC9SnYwr0uZZew0lJfVWNcaFMVLA1h/4I6CANaEQH7Kkjrn6BNMRgwJxPIF+aFpgOkYKbC/MfnrH7DOGgbKuq7hUAylLepWvTEuuXnUCy6oVYJzz6vvO7xr+mKNAyNXABJ5ieQcnxxo8TeG/eVf/uW+kxgS2DvAywKgwAmgA46UDTjVEyDh3/qsMq2bRX3K07VgsgpsaD1a94019sgTr8i71G3RJcjLETl0FOuw/+t/vWR6VK1wrIbBjJV1cwNsCRQFijUuyqGAD9UY9k8KsPGwvGgAnXLolItCKICHBVgeSEi+8zbWogzQHVBYALb5lTfFJ4BlbHst1AnWQN1j+Vox+frXvt4bXxjcX+exDROdNowHvtJXDzRA2JtI6m1UnsoSlwcj4/opGrdebY1e6M25gE/01/qotPXvuM7LelmROZInXgDWKsEb3vCGtoenXVYJRhnDVx2pN3WqhwzktF/jRwqwsy9kytlQFMzQGpdblcabdP3RH/1R92i3n3jYUQnKUlo8iHLWJq0SGMtGectlrVKc+huq60656Tb7M2OxOFT5NnidAqUE8ph4Ct2+OgdmqxDf+va3+vUZk66za/eaBwdkF8QxuDhpfbLId64+D0Wsw+qQOqdrZeilPWbxIkdeY1EuOgtvdByAmb40XjqgRx+biAX0lhlf97rX9cQxdzxy4+1wTr7UkTzXIx9y/0gNCQZztjJyC9MwgI3SDQkC2Dw4iGIUXFVEjB7A8kBRpm2E81sOCi4A27Xv/0/ZBcKaTwO2LtUjuPbotsFcsYVycnmE61sAX6iN2+4Yb3rT302f/NQnuw2rho3Bm+HiB40gz7jV3geG93fPeFzpZKC7UZYGbuUpj4OJlxDAZi01gJUujIDlKKzScCDWxdnFgwrDjsiuzlHG6CVpATI5edhXvOIV02Mf89iua/xZiLdIupkNCWY3N4+59HbAjQIojmL+5E/+ZLd12BgDbZSgdcpFObzOb/7mb7b3aQNW3mymIgTWslwrOAIs1LPZSPlmUrximMiVfQYN2AKvMTq5rEf/oDb/+AiJTSRvqD8nxWNpByMGKLlOW+QlJE2n9oBAh/SAxB/qi3dEEzqyBbCthwIVfg7p8h1kd4dqnVR5MoxDgm/W/MFwwHq4Dd2+AA6s+KRMzjOOlo935EGXeu3WesXLAfYxadoyHppbaTcXwBKvjT4DTcMyy08jKdgrGvmr4tkEoygaShUoQpBGIRTE8xjDUog9qtIbCBRY9PMMnschxAGEKpay6sWmhwQVm3ipj7L7Xa+Sk0wAa83X0MYmkte//i/LY32gNgPNHycOYAOkgG7mNeuJpEl37r2tX/iFX+jJ5YknntiPnqUrM+qDjqKn8BcL6nXg64iu2MO5zmEJy94HHc3SljdKItcIROXRCxlD45365452q35g8KIXvWh6+MMe3rTjT6tumXAzAazbkkec1b7l2JOCKTFANPn6SAHWpCtPuizJyEdHYZQRBWVWLN3qwMtf/vIe51EievlVqCcQ/aoypaw7r6WKNn1SsitvnNrQr3Gq0Iaseur/3LF42PpnSGB48P0ffL/uHB8uD/uGfiafsWAAFaA1s+EngJKUcxt63E2M1R3GsmkvwDj3aJwuyUV30gPW8KLHzAFSP3mcK2Py+7o/+7Pd9u9GNHWgi0fFS1AHHplES7MJyfCFzGeeceb85RwZQ6C39XAzA2xm0+mBBNVQStDwCz2arSGBnm2sBbABZmj2BtgeI9XEhKGiUOe9qXnxBGqG2Lp69u8MVNu59q+JldAetnPm87QHINRP/o9/4uO9AK9dHtf6a+IJaFaDtuZInmsPDew+84c+/CE7YABQugM0de4LsHgI4tEGUl1/pyZklq/I6YGBTUjSI0vK0288atLwRQuwYjQ7duyYfuInfqKXtbzW49Ocq2H35t9MANtCllY8xhxvPRQchaAZVwlMutBquMCwlJMeLV2awwwaYHla1/IAJzTKmbUvPW1z3J+f4qn+KmKNtY3E+Iu62uv2dXnZmnjxsNqlAEB/tsaAb397fYK/gGBt07g2skWKGH5sp7SRTme1A80u/qc85Sn9bpehgUmZPLqJ51Q2+sHDIY1cdEO3ro2FxQAIoP/29rdPHygP66VSdwMdDh+80Qmu42Fdhy8ah3wdyBDG+vFjarJ1/J3u3ONw9GMo0iHcXADbiiql1Jgu2/gsfOfNTQ2kRIB97Wtf20MCysqTrihEy9AJSWMAY9g86YpSGQgtxQEQg/K2BxLIh5/QhmvvOgNWHQDbHa/qmf0wrFZ+/79FPUC4rNt0fm01PO/883oXVwyON5kjd64DPPInLXQ2p9uhBhC87Nra2vLvQqDpzlKyjjxH+clsktW6KXp3M+usJoX+toVXvuU7MqTQ7m5j0ZMHDzwjW8CaOunK5PA3fuM32sP2JHHb/KBDXkKxGsLNDLAUZOYsaEDGO9L1eArzKNAY1o73LMEwHnohXlda0i1rGdSLx+UsfCncHdt7Xb0Bprns3w+vaQsiAPLUJnKCIY50IG2D9tqs6urfYm2Wka3HXnTRZ6cL3ndBedq390QGGOK9RpABgjJ0I6ARcq1NOp+HBzt27Ggva6+BWy4gx9MqMwLLtXrIKQAb52FCxbPS+fhXFtWrLkfArnwOPMJfWmwpTR32IRu7vvhFL27gZk+GcmO42QK22tQTLwCihO7lNUY1bnL7B04921Mhz7Dt1rcWSAEBJsU0AKvF0iiJcuzAP6P++PJ968MSxnDZwJ3Hl57e7K2Hj8rb2zmDGc7wmiZTdnUJFup7t1ad6ww2vzSqS2btE6R9//s/qLcpvtbvdhkbepVa27RF+7QrXpFuRsCmvQFsPDPePknEw/qqose3noKNj26BFy/8Ay78dBb1e9uDZwVYr3Ybv44dSbtzqE/AKweeATN7SHdtvy5Z3Pm8g3b/U+8/F97Nmy6SdktbetjdUmfKg/lbYBV4KgqnLIDcWS+7We8Tez1Gb6dEAE4Pj0Lagy2UHwBTGI8LpF6DycfPzJ59FcViu5m112Paw5ZSy/ntd7DCQR6AbRAsvVRWI2YPGMC25wXYqovc9uBaeLfO7FEncGSMPgLWOcAyvHpcA1i8LsGlCYCoEwIogIh9ZglQtNlbCQCd8S0+Aak3IYDUK90+CmfpzcHjqj8yqUfdrtOhpLmOHK4TAmQTw/HJnD+23GED3S+as2DRgL1iA7JUsbl4ZuBX71JmgUC3vmWNY956ukZQFmV898r5j04AK6VdfPHFfRuyEwhQGbW5V5l4hk6onygNWIGAxwHmPIFBx8gW2AGW1wHYtbW1/tOTDGiWnVl0+HusWtXtVp8mAZ0we40AiWfn1dfXghm4gVlyzTxnWZcetoBlwgbwXgH653/6p+m99cqJxXgv+8XIYm1sflWvdgoBrPORlg5cjwFwtd1EzPDAslL2HeDrLkb3VioA1uSPRyUrfsIoN/50TK7UFXuLx3Rl8WADr9J7Itd7H+5WXr/0bt265Ue4CMUiZzmxW2sdsLb4HVBYCAen41iEIbx+QvAAgFDkyCeBeB2916zTLd84iUelOBMrngaYGSbGIiM+AWbzXG/dsgnqBYQolQwMDZSMZ2hwyxpL7bjHPXrd8r41u2ZIwKVYY9GWs+rqCeACBPjt2uVBhfHYfKtbArjKkEdooy3Gqpa5/JvD7h3WC4u2IX7zW9+cvnDJJQ1Y7/3TR8Z+eKqXDsRpc9qGrzSHdkbf0smBTtsNg4wfxTywdqoDPd50zdPajE3nygoB7Gp98sJfnhA5nKc8/uqkWxPCX3zhC3tcbSONcf/8xzmqkym0CBuYdB2wM1iXkE6ZTcURmKAaprdIc6v0PpdAWZ7d+waqhlkR+EGN3a74zhXdo41LLekArFuR3q534ymk4X2xuE6PRSN/PKLYKDHlo8zE5LlLeRxKtBzkdskDOdxGye1oAC9kx9OBR7dLe7sbRrr9i3ktYNFedwSvAhkaeLInTZ661BnAanvStC3tVLN0AElIfvQTGnQCXtohkCW66oT6QRda9Yz5yUv+6IGVT53yDUHo2GTr6fV9WG/6Bh+e/JGjalNsr2HpYW8SYKsRLWgJFY/g+6i7HMZ2lZ4JjvMYxyDeC4WA6hYIqG6DjIZGYyleHEWN11oVw0UxYmE1lqZu5R3K5ZxsvC2va0xnkua7pYYNlJw3TyM3WbTTsVq/eg4kkJfOfHLT7dhfS/fI1nDIOJLsaHg9dbpLABmZ6FgcsKTtkSPXiaOHxOjkuR71op14OqL/0Ia3MvRAR851MLTOHfi6Jh+wPu95z1s+heMQ5sfibDI7s4MD2IVQGgEEBI2QBBUowiG43RgnAaq3RT2PNl4yNKAcjUQ7NjjGwF8IHZr9CQHpGJOV0aUBr57vIYMPU5xSs2zjW586L4EaMOqcVxVqEXxRubT9lSVyp6x2k8OSHe+aj64BLT2SM7ohJ3ml55AfGnR7C6lPeedo6dM18IkdeOEtL3w34unuY5ihjEku+tSBdyZ/7mL2OnhDoirtx+KtR0uBS3H3bc8t8bBpBOE0TCA8oV0zgoZovGAy9W//9m9tFLN/HmScHCnLe6RslKZsQB8lRjGpD40gfQxky5H0kUZdeDAYb2tFgacFXCsKJ554lx4iZKxFPvx4PIHRIlv4bzZOG8iAHy9lHGnV4E1velMPEdKZMzShE/QOIW1JGxOPeSNNF6ofdII4coRO+ir/MU++IC36Dz9pzpU3vDIMyDF+N4GufReiy7Uou9ttrmH9d8sAGwEBqWpvb5SGACuvaqb/9fKkH6l1RtvSTCoC5LGhDO/Q2NzuRsU4Z7CxjLocoRvjTqyfKDDlEoeW0gM67bAU5mmMRXegXVtb6yGC27GAJp1wKwCLXzoAWUxEPVnKXcgkdNQL+lWgaNPYrrRtjOXT7Ugb3aXseB3djjF+gvqVIYtAPnT469R0ZVXgp3/6p1uXVil4Y5M7dPbd+rhKMakDh4MA2CggAptZ5/PnhAY6XtRfUzE2szBuTdXEavSeygtRzHy1ew+mIMqgIPWiTf3ihBgyvMTCSJPrVRr8yeV2ZdmHp7Vu6CPBxmHS0mGUVVfq60oO4Acf9QKstjncdejN8MA3rOiPodWdet0RtGm14xNhtV0RC/14JD1xyrkOnbSEnGsz+wpkF9Lh2dycYMeOHf2E8cwzz+yHGOiVx1d58nuo0nU2WNfraYYrP1viYVWeHkaIKF7s2u3MMMDjvbPPPrs9awu4EFx5tOIxoFGeEsQONKlPjEZI+fBIujI5TzzWER7yko8XUIgFS112QHm067a2trbWQwDKd0Suke/+nJNBXWkDXTI4vsaql9RS19ve9rb2tPTI05JP4NmVB9jYIHWnPa7ROFbPO2GRHx2I06bIhG7Mz/VG+gVCXtSKy0Me8pBegaE7Dy50SHKgSdlMvMoCasF6r2HLABuFixMokIBmvcasVgRMIKwEyCMwg2sAA0mLkqXJD1jxlIZmVKL00CmLJrI432yIkeIBAlg8eFqrB25tvtH10AIvY/Qst2QU0O1PfaNcVgf6D/VVYsao9IGf9tvkY6xvL4W9BrlDSY+8+EV34R15oo/EyR/LoFU+HTC8oodV/aDHjz0E5QTX7kAeCQOrOYBvm7n1A6l8bZonW/M8BVDxP6iAXW0Aody+PIsGVAvh1lh5ghhDA9Epm1sh8AlRoPwoj4IoUF6CczTpsa5jGOehTRzeY4w/HuEjTz2pK3yA1NCAERyukxcZld3foB7tF3osXDrojrloZzqkByrG/lYPOIGv1vesDBu0F82qDJFN3PyKzvkYUkZ66hl54Z2QdGXQy2NLgf4tbZmsGgbYcGP/gsMTNbTKOKJn8XKZZQHXg+JhCZxGUL6gxwGrF+zOr32eDuus6Aiq8YSPZ6VQ19KFKCpKkiZ/TJemHJ4BrLQxKCOIx2NUIFkBJd5F3mrHwoNBrMsC66/8yq+0MUaDRXa0+xPIlfY79zCDjkguXXANnDytjv+e97ynPa21bEOu6KWJFz94rYboQLpzuhM2kl1adIJGHeSJ7qSN4eSTT+4N2YZPlgYBldy8qSECGwmRYYmFxYOmgzbpUnEarjG8haUZT69MsrLTh2IjJOHRBhgaIi+KkyfkOo2MkilSCGBcR4bETbD4Gcs7H5VOqe3ZKlZWno4XEIWPPAfvcdZZZ/WzcBMLQFY/PjcljH8sAy9yxgG4jmy5a9kYZKXFvguTWEthZM4RXZFJ2cTRhevQRM/RC3ptohd50vGlb2XYL0B0u6cHQyZvOvCqhgXKZzUAYPES8HKkDmNYezaKceUehDGsinNoDGB6MOBJjcmC2xcBA2Q0GiOmAHmUkgOvNMi5gI7CBMZLb8Uz5dHiuVEY08dztMqpO3WNcsgf6Z1bmvHOlM0bDkMDMim3FUEd2qpd0UOMTQ/GrpYJgRR4PXgxoTU/4CjkOwJ2MmnbeKhjPNJ2ac61h43oWZp68SMPWQDU7d/SnzGqpT+xNVd56WBjneRQXsB7SVMgPaiAJUAa7FyPt2/V4dZlrKWHCVEkgQVKoJCAJMBJGr5RmMbKt7ZnEmQGLeClt6OlWF57PIBaPVF4F6qfKNM13uqRRpEM5VyQnuCcRwFaM19/yc/OfkZMm0K7P3HqUKfzeMm0GX950RcZtcsE1soB5yDmLKQBs41DAKxMOvuoX/WM7U57xbGHepwLZNB23tOM3+qJA1A9vQLe8MdXoBP80gHV6Zp+w3c5jm01HwQPu9pws9jXv/71DVhjLiBNbyI4+giba41wCInRaDB6QExDjSNtDaQsvdkOoIyXrO1au7Tbi9EcDMh4eZpGmXjhHznwV0/kdJ4QWtfkRaPTWJd9Ye06AlwdSKc5kKCuAEf51CeNXAKwqDdyoQHEPBUDVG3lHHhaezN21iTNI+/svCJ72ps6A6zoIvnpGK45Bjqmb3o3Vt1REysAlc4GueVH9hGo6pKePHGHSo+a1VMUlfx/AbCpb66Vd5oVTrnGLCZYvjJodWAEJPoIqxHjEV5pmOsoMT0bKHyw121nbW1tqTA9/o4G+AXu7xVg/TVqgHV4upZzncctFKhH5TFa5AQKwXWMiXZMl+/a5phnPvOZvXOeIcnXZaptdqalregTorsYyrXz1E8n2h1w8qICjyRt5IkWsAR5mZRlL7FhGQDrsPLcddSjDL7sFWAqD2TpGNGPej0+5RBs/s4eYsMg7UVPXnyiL9fStc02TGPz/v7Dol3kJTt6MaAqsyWAHRWkImE1TaWCXq5XGwp498psNkomkBBBA4iUDc8WfGHV5PGoHo0azBsrURZvloNyeDx1URzD8DwOhuFxAdWTone+850tY2QZgUKGyJH0Frp+kk4mhuV1eBwTDePYJz/5yW1QdaMhG7rUEz7Rw2hc9OMxyhG6pEWO8FWuCjd7+2q1FzhNwFYPHTVH9hmjxYPutIkeAdTBc1prFjuSzptG38qSabTbeN3yk2+h28jfcncjFpqZm1AXN9HDpoIF26Xhci1WOcHsMrJhw1KW9cKdBV6KCGhH2hGwaWAajZ+DAnlPvdptN2t7xk9jectAfQuqTkGOpTIWQjKSW6MOdM455/RrN2TVweJhyJAj7REnTRz51QWQjMjzAKx3kzy2BRi0ZL8xwOIfAK/KvBB9U5GyKR95FaQLXjQgdvcDVAeduNap6ZKs6firYDVuHduDt/rwpz91Kp+2yN+v0H3Oj1IHAbAaTCkG/f7KixmrpzJuwQHhagOiZDGa+RayviBNESY2XlTzxMTt1y3JmEnvViYG0UTltZccQiZNDMYojJQJiQ3S/vSk2XUAGzlHufBhDB0u4Bs7hDoZU2eyLqtDxXgArVz44SWoR1r4oBcS98V+/ox17/9lQgAAFr1JREFU4JMDG3nsk4M+MhRIGhplyOYgN/3lcO2QN4axXnkH3IaDDdi5B19VC9kfayBYdzV+0ovTCI1LiHJcU5rGMr6YIYHD2iaQ2pluIToTLGXQbd8ODPNyF97KiANAClYPftLI6Fy6fbg+xGsXlE7ltojWESOgFaQpkw4QfpFbOvl8EAJweSfeSHra04ya13xGbnxGnaBV14GG8AqPxKv8kp44+SnvOuercWiVHcuP56HZr/hgA5YH470srfgzOD54AQR6chqj8VEA4wCBwPBCAIHGbdaf77G1z6ds7JY6ukBgUhUg9Vda9gIwNPG0PN0IHPIYDpgQmhy++93v7s5FhsiofACFXvnIlzxyo5dnHGtIYGOMu4Jx39hhQuee53ta3nVLffipAz1eBxrwcITv2BbnQrcFXdWjrtB35vATenH0MGR3udS3Nx4j/Y2eH2zAAqclFZMtH7i1HS4NSRwDE56ycosdPaI0h8d6T6y/8mxsaH3PmDUGUL7NsjAQXmahtjMKgEXJOpFg+CBNkK4+np9nNTSwe8wToyz9xEijodQRAG6Ur3OdccYZ/cjW5JC8LReDLzpkvkWb9tJLeJFNu5U5kIBXDuXDVxtyhC86Y36gjQxLfSJqXn3SRfByjCH0TVX0YzzSbfr8YAMWAHgtgLX+6pYbA0R5DEV5QgDgHJClU55bqTGq9U3v/ojdYgFOeTSGDryrT1e6Vg/AZrdTgIUvw4wftpiHLut/Lt22vX//939fbpC2BIanEEOJpSU9eU20+LFqYaxtj4HNMcbaTVdytZx14e4gBLABZ9p1Uzxs5BMHXHQa3ec8eeLxnFzkCZ+2j+shDU1Cly/+7hTOaWxvy3gps++4OBSfgzbpsmxksRpgfbnEZAaQEjSKYeJlKYaBhKQ5B1bGZvjnP//5PYY1rKBw5SmyAVtlpQnS8EcnHg3fii/aGBKNmbFgacb6rGEMuS132UgSo4kFPMdDWmicC9aGjbfJbcztyU/KkBN99BHAju3Hw3XqdH1TwkL0kmF9rDzKg3euxYK66UuI3sRJ64zhpzvBArSSb5L8swgHD7AMb8nIcpb9mp6yrAaKAU6HEONEca49EOBVGd7YdW1trekpZ1RclKusvPCVHs+eMlFkaFvRVQ6tYYDJIcB6d8qdIbzDh6zKAJpYQJMDX8tbvKwxrLGsYYGQOsmeYUnavwrY8OuC+/mjHnzFDbKSL1+ZGVnJF8Y456EjhxB55ss5bZXG9Wr50OxXfLABa1GepzLrtndgZ62/UiADjwrQuBg+6RoW5WR7mturJSIvq0UhAZ7NztoXAIcfOnziyTLhG1cf1JVy5PPI2N3B5MtXEY1p8UGDD36uHakHj8gr1kZDGU99ADbLW+iE8ANYfFcBqzwavA404LEbYBeecTM8076N6paXEF7i8ZC/Lx4pv8841XS8bz3c6BsHETQVrl5LB1C3VOuv9hHY92q8GOMoA3AaJo2CBemM6HBu4d0nbOyE8v0lIEh+PFIMrDx+4RU6fIDLpMt5FrxHOunKeirlaZCO5m8nWDlQVh5+CcomXZryozzOTe7I7SuJVjfQJOAVwOItJN910kK/v7Hyad/Ie+SztzqSHnmUSVri8NQOdIlTBl2Osc7NnlcXqEpDva63pIzxlgDWAwNDAYC1B9ZTJYBlZEHDYuB4gjFdHhrLQ8auVgd4V4vy0lcPygmf5l2KzKRGOu+qbnkZ80oX1BWFoyEnwNr74C4B6JFbPXgAw1ifNDwEea55ZHL73qk4nh4NWoBVN55jyHXiMW9/zpUfeeR8NSbrapCW9FX60IYmupM+lkm50O9fXPUv1bKnfCOvLQGsTcQ2aru1AqwlLkZnTA1JY1XsOo3TeIYVS8sflXBrtRPIxAj4wofBAVAANAEQcvtWJ8DhJS0dIYBDn3R1CoDIswIs+a144J06yR6ZI7e0GA6dIM2Dg5e85CU9NCCXNAFtPKzr8FmN5R1oWOXlOmkjTzJFrtXzkW5f5+GbGG147qvc3vP+HwHWpMvkC2AFDWJQRxo0NjKGlCc9gDWG9WQrgAUqPAJY9CNgXctHB+BCxq6jDJ2x+FEGP4f9D69+9at70ugRbgCLNKAPn8ivvMN1Dp4VYMmf+vFAl465Wmbkh/ZAQ2S4sfKRG914Hjmkj+eu9wjavJKI14GHgwxYQwJvxZpt20MAsPGE2dK2kRIANoaUnyEBg3tiZA0WEOU5RgVTTtJ51tzG49mAV1CHQ1lp5AFq52gNO0y2XvnKV7b8PLR8vIE1T8rQkyUefzQQWiEelvzKaZsyaPGKHGjDL3y8JnIj+z4U2zC0HmqLp3/49T9fS1wBkfSN6lCePPkDIt2ealLDcoHM5ou3o3iTt/kHp6HfUMIbSyyei3o2FHAoviVDAgvwdmcBLG9lmQtgNQhAgMl5K7aU0wopIRgwAGNYy0HGsHnEabmolVK0iVPWdQCEPyABRTbGjMCSDjyMApABpTSdAmB/93d/tz0s74pOkJ9NLNJSj3rHgL/28rAvfvGLO9Yu6QJZnYsd2uAJWB7RSpsBG+uP3Ddxjt9CptSRuCrcCKPNtDGysIf2hcfSTutUcycgp87PCSzOmzmw4rMJUTciWQer3H3rYEsAu7MeGvxnrRIYAxoPmnRpmBDju9aoAEkeIwaw0i2+v+AFL2jAGsMGsMrmUC4BgABMjDeAWRXAl/IdqV8eI0pTF9AK6Mn8e7/3ey0/XjHcKJ80efipCy/BuU7ioUeWtawlC2jwcARA6Nt3xch9XZ2Xx7oRYzXTDX5moIxw0TEQ7tv4S1YlQ/9rFgs+Fe3OMexm3i3rbnWsFFgy39+Tfcu8JYC1wx1YjWF5WddCjBpjxegBBBAGsMDgmbxvMPFUnhYdVy+5ddkBsOGJP/AEsHgGsGIh9QFJNstIV059gGtd94JaHXjVq17Vb/cqg95BPmBLGbH6kx9aXtqY21DA1/kMbeShJUsAq7x0YW4HTzt7pn6+v1mANYf/H3/2DdbWW77Avbfvw44A6QJz191NWzyq3fzA6uNlxrQCgwc8QBIDy8PXEc/p3LjVJxmtZ/o+693r6VGDQ4EKKZNYGr6A5yEAXiZqGT8HWPYauP2idQjk4mUNX3Q2u8ysIaeMOnKeWJnwTkeRZ73YQw+Afc5zntO7y9SDxzg0QNtArvqzGcbuLZAtTSzgeuNG6wb8D/3ZEg/rnSFf2gNYewmsFDAWzxLAAlW8zgg4eo8nY3h7CXhYDxA8SNjIw/FGq+uuACQYcwIJngFdQK1+B56A5xtVOpo7g46mDcoJoQ3ApQewgJfJpDrszjL+Btin1V+rAV4eXF5kCeijg7RrTq/OuLz/HgJsG2AvP1sCWBtKeFmA/bP6G6Q8VUDIMIwSwLpmSEE6AwrSgIiHfER52V+uHfxm3a6VUT5Gxxuta0ANCPGIZ1vO7t3661gCusr5rj6e9jz8U/0RDI+TdTIAVg6fTBbVkfqkR2aAFMhhH4GnW8awdmvdtfZEkLcYLQGbDqA8PurH17XBYuIq1HwP/WysgS0BrFur9UuAfc1rXtMrBbxRDMJYMXAAK42RckQ818aAz33uc9v4O3bs6MmX8sokhDeABlDFbPphrUoARAALOMqKpQfoHhDoWO4IJl2GBkBqAiVkJYE82mJypnz4oVGv9njn7ElPelID1kuSXppswBZNPCw502Z8oh98AHazH5Jo+v/BP1sCWMZhYLfW3//93+83DhiKsWNg5zEUfTNg0lzLc82oHssyvF1b/maqW+xIA4DAJQBgQJHv0koHWAHdWI96eVLjbEB9xzve0Z/7Ib+gHHrlRtDx9IKxMhnVKeDnS33GruS1+dwbB2PZ0AWwgH4IsK2+/f7ZEsAymlsuANj15J0uAGB06fGuMRQppQFGPO4oufe57DH1tsFTn/rUBi8QSw8oAQfIASmdAyDIIuDrOnUDCBAZbwMrGb0ZYUthnszhl46DVnlBWR1DnjaJR2C7I9ilBbDGs7z0WC8e5CJ7d54CbDqZvEMetrWwqZ8tASzDMrCN295GtQnGwwTgYChGEhgakATproEh1wANCDkY38TLysETnvCEXjXwKkx4pgOIUwf+zgM4skkDOO+d+c6Xd87Oqde9jWEBP+DCV7nI1oItfsgqpE5DBPV4PcjdwC4tgM0bEngIY3sPAbZVcpN+tgywDGT91c4nQ4Px5b5IyOg5pG0EWMBiZEDjUY0HPVB43OMeW+u0p/QCPVDIQwtAAvCEn7I8e0DD219ZY+wv1mZtj455VqA1buXp1OcAXLTKjbds/OSpC7162+s6rw6mQ5111ln99mzkT934ks01PqOc+JH5kIdtE27qZ0sAywiMwYPZwQ+wXqP2ct9qYCCGCkjGfHxySGd8T5AA1DN/DxYe//jH96TM2wnShYXzc9YACGDxEi5bPNj4cAHVXcCGc/tggRNtgI4e0KUBJBkF6QFsJl/ofL3v1FrOenStDvjMpIcdyuCXunO+Clg6yFFSV529VFC1HVolaKXv5WfLAMtAxneAYHzoZUSxJS/GHQOjjmO4GFfMsLkGmowV3bo9WHhivU1rV1c+RAZA6AAjnUB9Xn8hj5AncZaubC4nI1r1GAKIySO4FsILXwGIAQwderx31AqGMbahgHGsIQz6lFHOubI50jZ56bi3qMey/efoi+8hwNLM3sOWABZ7hmAUnsie2De/+c39BMlivNdQxhDAxrDK5hYKfAwpxLj4ApLJDKCahfO+9hq45mnxlIYGINVrNUBZntSym87jADbp6ky9oyzqJoM0R8ArLR2KbMauJluezPmkkm8nCON7/+gc6st5rvHujguwsNo/hzxsK3EvP1sGWPwZQohHsy6bsewICOcjMBkT0KVnDAgcAZW8AIuB0bm2QmA1AWDxU5bHBdid9dpOJn14NTAqFlJfwNeJi5+ASh0OYexgyqgHQD2R87lN759tNxRY8FefMuLwG2M8yCDkb6y27lp9hwDbitnLz5YBNgZhDN7MZx7Pr2f0/sivWzFACbkFAwODxqjKCdLRBpjAugpYZVI+3k+Z3uBSPHzFj1dNuQZDc5/5B4hjumzXI5hCl7rEaHh1nycCWMOBtbW1BmjoyUSe0Bfnrl1/Hjuh/AB2JvB7CLCti7387DdgW6Wl6I0CYwMkoIjNyN/4xjf2+iyvl88XMVpAhw8QSBM7GJwXY9AYOIAOQAOOdADpgrrlAUw6Ax7S8ZYnPfW7Di/56CILfmMensbUltrsGbA6kJclU58yeI+ATb1iR+RBq2NuO6xknzFdKRvrFu2hUNq5sd1aGympbLwSZqMDVcaHDGZo8K53vauXuoDX7BzABIYX0AOJwJjCKqikBUQxfugCKNcBhPOAMunKh4cyqSPACh0e2pEOAlACuQ03LLPZN/BzP/dzPfmTr3OJ8RLCvy9WftJGsgjdcQLSbv4eyl3h8D/78oAAu6qyGIiRsyLAeGbqJj/eQvAZTktKxpUACrDKOQ9AYkz8nQdUYtcBXOik86zxliMNHinvfARseCtLztXy5EGvfABLTmC1QmFXltUBj2HTAdHFy6tvv0K86yHA3qjathSwAUzAAbxm5d6q9d0Cj249aQJaIGFkXkvIgr1zfHKM1zkXJwAV0MW7AVC8o7wc4ZdYeTIoB2jo5AFmwJrOkLoMBfwRjnw3wRpx+Af0od2v+BBgN62uLQWsWgNWoAEABjUB82TJuqzDd7iMZwUzfTQBbIATYOGXc/TyE+cc6NyWBZ0EaJURQtMX9RNe0h1AGcCiWS3n2kMLbxQYsz7jGc/oJ286mzodyt+kcAiwm1bflgIWuHgoRg4IpJlw+byl1QJ7T41nfXjNagLPJIxeMdLjE8BKC8iUwV+cuvKAIWPi0VOGnxh9+ASwSQd8Hh9v8gC+DuDW73Oa9rvysjyrDqd+S2pAi+8BhxTt+NAYdl963BLAqoDxG7C8W10zvjSGBB6GNwnzHN9bqsa1HuN6grXRbTxCBwh4AcgYh0Yaj4c2vALY0CRGu3ooR3Y8svsLPfBab7VrzFcJ/VEQYLV8dmV1QiF7GvriQH8OAXbTmtsSwDJ4A0tcVQcAS3BVGkB8v8Bp/MrTmoR5PcVwwR4EgObVlBHGePSovB/+aHOM9KNHXsrVHGeeAb2kjfLx560NA+xztR/X31jw6g7w8qZE3HVNbT8sOdJG5SLzorrNR4cAu2ldbRlggUcACME1QDBkvxFa6e2By9vyrL5j9YlPfHz6wiVfmC6t5/s+iGzoMIIIAEZA4O1Ag3+86AhSdadcADTyDGClCYmd86g8qE/W21zjCZbVAJtaeN/UjbbPMwSqa3cUaQcUDgF202rbEsACjFuxEMM6D7AAZ/t248L5uT5gWvLiXe2b5Wk9FQNkfDYCYICGrzACzflYRn3dUVYAPtLggS585Z3gTYcCqVu/w9h1uXG88sfyPO1h9QWUa3fVmL14pT589zscAuymVfZ/BbC5PTJwDhLFKzrnkSx5Aa0hAsDaUA3IDu9cZXM1HvGW4tUDv4AWrRAAieXFGztXXv1Ax6u6/dtQ41Wch9VHMO5fYDW5sn0QP2VG/invziG9GC6B35Xv788hwG5aY1sG2AwJcmtsQy7EABbgu+EGfwl6/uYUICljOctuLkMCHtbrK4D7uVq7/UqBmTc2vhV4w/EAHPUEwM7HsTBa9Qjqku9wFwBSu72Akic1TrXf1j4BadkBRnYBuAN+IMbPaLvvKIs6mvBAfg4BdtNa2xLABgg+WEH3AVAA5TYPmK5t/2PkBGUZHzD8UQxPxgDWAwYANkmLt7VkhZdjBCC+wIkXwAIUcKkH0MSudSYHMAKlJ1f2sN6r3np9SHlWr2tHvsilLvyPwKPKSl8CVvoAZHkHFFKs40PLWvvS4ZYANhX47E/+motbrRCPF8/IwAAAcAFdygMtcBoS2Mvq5UCHYQMP7NsHDh4ZHd4BCf4Cns7VEy/Kk+Zw67cl0YMA3hRgfRLp2EoHVuUCfrwD0H4fayEo+XUAB1rXoV2Q7F90CLCb1teWADbGArh4pHhR14Jr3o2R0aMdARvjow0foORhvXtl4wzgegABzECdMS4+CQFrxqYjUIHV12WsAgAqL+saLa8pAJ8jId40sspTR4Y+obtJ8SHAblp9WwLY666tTS+7Zm93+Pa63Ze9gQ4wD6utc9u2Dc/sFzuTrq/xrHxjiHn1dh0s0gHFDBxfwwkHgBoWiB2eNiXNuqjvlgKfddTEGRbwnNI9GJDn6E60rZajSr4Gacly3fUz+AGSDNdcXevDlWYLIKBuq9UOtKPsAXHz2LTqB8JDgB2Use/TJWCRzR+E23eBjXINBdyeBUAQDA2MaRm+vZHb5+C5mmjxw/gNgLpm9BszPG+nPgfQ9nl5cvyPPOrI6cia2AGoMSdfCcj+8eKjZ0zH0GF87tJ1vHUAm3akrLgEnL/vOnjlDA3Gdm3+vKTUeTuse/fNl/+fQ7kbYA+02Z74XN+eCSjmseT8VT4z+xmAMwj3ZYzNG6wBXmDh+Rw31CcreWyg5C2BZx1AUivUz9wZeNP1lqajdEqJ0E+vkJfcDeh8XbAAPT8AmQt3uaInNX5dy8B3vYZNnKXpTXqgTDZRz/8HJAXY7yzU/qPcGp3ipsk/O7jdkHPTGB5Q6ZvYiAOq80er0AKwP1pCbyTtDNgDNbghyUZcD6Xd3DRwCLBtkUOAvbkBc2/yHALsIcDuDRs3y/RDgD0E2JslMPcm1CHAHgLs3rBxs0w/BNhDgL1ZAnNvQv0fC3GaPGAeXTYAAAAASUVORK5CYII=;" vertex="1" parent="7">
                    <mxGeometry width="58" height="89.03" as="geometry"/>
                </mxCell>
                <mxCell id="15" value="" style="edgeStyle=orthogonalEdgeStyle;rounded=0;orthogonalLoop=1;jettySize=auto;html=1;" edge="1" parent="1" source="12" target="14">
                    <mxGeometry relative="1" as="geometry"/>
                </mxCell>
                <mxCell id="21" value="" style="edgeStyle=orthogonalEdgeStyle;rounded=0;orthogonalLoop=1;jettySize=auto;html=1;entryX=0;entryY=0.618;entryDx=0;entryDy=0;entryPerimeter=0;" edge="1" parent="1" source="12" target="6">
                    <mxGeometry relative="1" as="geometry"/>
                </mxCell>
                <mxCell id="49" value="" style="rounded=0;orthogonalLoop=1;jettySize=auto;html=1;entryX=0;entryY=0.5;entryDx=0;entryDy=0;exitX=1;exitY=0.5;exitDx=0;exitDy=0;" edge="1" parent="1" source="12" target="45">
                    <mxGeometry relative="1" as="geometry">
                        <mxPoint x="225" y="430" as="targetPoint"/>
                    </mxGeometry>
                </mxCell>
                <mxCell id="12" value="" style="strokeColor=#dddddd;shadow=1;strokeWidth=1;rounded=1;absoluteArcSize=1;arcSize=2;" vertex="1" parent="1">
                    <mxGeometry x="140" y="240" width="170" height="110" as="geometry"/>
                </mxCell>
                <mxCell id="13" value="&lt;font color=&quot;#000000&quot;&gt;Ethereum block &lt;br&gt;scan service&lt;/font&gt;&lt;br&gt;&lt;hr&gt;&lt;font style=&quot;font-size: 11px&quot;&gt;利用 goroutine 的數量&lt;br&gt;來限制 放入 kafka 的 &lt;br&gt;task 流量&lt;/font&gt;" style="dashed=0;connectable=0;html=1;fillColor=#5184F3;strokeColor=none;shape=mxgraph.gcp2.container_engine;part=1;labelPosition=right;verticalLabelPosition=middle;align=left;verticalAlign=top;spacingLeft=5;fontColor=#999999;fontSize=12;spacingTop=-8;" vertex="1" parent="12">
                    <mxGeometry width="44" height="39" relative="1" as="geometry">
                        <mxPoint x="5" y="7" as="offset"/>
                    </mxGeometry>
                </mxCell>
                <mxCell id="14" value="" style="shape=image;imageAspect=0;aspect=fixed;verticalLabelPosition=bottom;verticalAlign=top;image=data:image/png,iVBORw0KGgoAAAANSUhEUgAAAQQAAADCCAMAAACYEEwlAAAAhFBMVEX///+Cg4QvMDA0NTUTExMAAADb29sqKytPUFDQ0NAfHx/Nzc3Jycnf399BQUH4+PjW1tbt7e2wsLBlZWV9fX3l5eWNjY08PDyGh4goKSnw8PDAwMCbm5sZGRkjIyO1tbWjo6NaWlp2dnZiYmKTk5NsbGxJSUmkpaVVVVV2d3kTFRW6u7tjLDZbAAAKNElEQVR4nO2d6ZaqvBKGIRDBqCAY5kkRUNv7v7+DE5IB6f5W9+askPdPtwpYPIZKhaQKRZGSkpKSkpKSkpKSkvr/l72Z2oL/A21BPLUJ08u3/KlNmFxXbKLV1EZMLC9UTWRObcXE2uPQNKA7tRmTalGqLQSj8aY2ZELZvnqDADI8tSUTKsEPCAAupjZlMjkX9QkhOthTGzOV9vgFAaC5+sbVjcETgpE5U5sziW5esYMAUDi1PZOouPQhgGg9tUETyFNVAkJ+mNqiCXTCJASgn6Y26Z9re6FaAjCCucWNdqjSEEA+N994xSwEAOc1pn55RRJCdJ7arn+qFPMgALSf2rB/qCXmtgRgaPOJG2Nf5UMAqJzatn+mAg9BAPlc4kavVAchRIeZ3IA/4WEI4GseceP6on6AALJZxI2q+hHCLOJGF3+GAPRkahP/XJ460hJAZE1t45+rwmMQQJZObeQfa3kZbQnCj6kdn2bAgQDQbmo7/1QFfTFwIYg9piZjxWEIhshxY8oy4EIQ2Teu2YthAALQRR1T2zwEYRnwIOSijqnpWPGOwNSQjngUxIwbNwwCtW4M0ELQdcS0hiiY2t4/UYopBDsLAE27Q9D1LKIofInoG9f97jEM8UEztLseEFoMOUlBE2/hRhz2EZTnAGgaCYHGIOD9xrdXbF2BCToEfQiUc4Ci+UYPd62gbvoIKAh9DMZZsDU8/ssVHNuwQNM+QOj5yKya2uxf1X1lThiqB4siwIPwxpCLFDc6d1dwMQGLgAuh1d1HCrVww8X32JCHYAhCi8HQQCSOb1yoam1xW8EnCDcfaViijKnt9DiM4BOEFgMUxTcuAjRIYASCDk1RmsIG68MN4RMECCtRGLRaHfJBDIMQINyJddvZPmn5DyFAS5yu4SUHA+MHECDaCxY0P7TaZd8NliAMRU2XtAst+g4ECM1uwYoozcFOOv/mpIi5JhgIELxvKrnFJCb/geLw2v2g2x3dTyC6GZTdsMk71qK0hFvSm7/sXrhn9AECPG5fGzoVFGpJn3vB++58Yj83BiBA3e1++qJBUKy1bBXGl6KL/ryyd02gHgK/Q7A6QgOJMnB4yruoKva7yWY70RCgIEB47q6EuIpyEAkzbnjpPg95qd630fdBTkCAzfX1kV3A26QUEi9UuM+9YLXoGvymfAyr0KMZpJ3P2B6QqLMvzzQPXK46DMtD/oDQdotdKOGV8H6HMRcydfi1tB1X3QnH7leuIQi17kpQ9tZjetb4Eql3fKt4Ldq6nN7dZQj6AWJiZc9pB4HuLhKy/dcMDA7fp7iuOv/n4RcCkKmTmPgP1Jucx/6W/jSuUDcXKfKCzqS3irF3TdxVmNl7GtIQeflaf40Cxu9hVTuuQr0FCmLniTq9Cfpb7PQcVjkpMSsv1MQTR1tyWS9O2+7SvmrEqiUjEC9UJEWmvaj4kqyOOrliSfy1/nGlUmqoxWsCrlBhRC/tpRdzijd25OmKP0KYRxEyO/2YDSfg2JEn5zIMId+Jc2f1s1aDGbIGEGv28ZNOAwnjYE6l6OyQDyEXduzIUy9w7EGYU+WAmxJeORHEDK/F1vsGyxtCNrtirQ7TEnKxEwG5WlPFpowv8Zb2j+vZT3Zlx4SZhP+JnhkQryp89dT2TKNtvx6jNoexI09FV55U2GmGcdnVq1Dt1+x6x7e8Z0vIZ13De315tITl+KYCS5YxV+5VJUx0nNqKqbW9mNZ8bqQMyTVm2zu+FQs97yglJSUlJSUlJSUlJSUlJSUlJSUl9T3NdUK5L6cRPT/hG1oIXXD7m9pICBLCXRKCIiHcJSEoEsJdEoIyRwh2yuQkzA/Chq19JCEoEsLzLQlBQni8JSHMEILHnrGAEOxleohyC1+ZeGDtum5R5Wpx+9u7pfaA4BTYCo7pUFbfcn8AeYALzurVxWM1p5e49M4bt9ZyrT5xsqM21Lbxqp9kbV9v3+NcyyY4p+9Sp0llaiZORm8HOnUEgxIfEGyoZdfxGbbKgvz2B/bWpd8hFA00jnUADczL+HawcTvqsT3qnvkQw5uBYaNDqnyE3x6uxnW7K5s5Wzfk633Ux7tFrfHX1qTDroFIfZz1ptahWZuZfh5JOSvyoHqcRbKDNYXMbrWCxe1P/0w3LRH/K7y3HNs3GjbNNclB9Xh3udOP9OcYtVuAvHbJVrIwEX5Y6+HcopMBdlQlptQgIABXCfVHfTN7H2m3fxLYPHLNChNdlQ9KkNbdNLUr+pe5G8TzCQv3/e41Y/ZaGtq7EuMe0rVzcKaskbamWlDcwLepa6hR19EYhKv7Ls2SRLXdvmW+GoATRB/ykbfauf/juxn7UFte76CXUe8KPUGKsxc0fQNd+pFnWFsaO/o6tXegT7u1jLR7BEJwBD07E/1km71HcXrBh0TUkspWrjPm6uFBQFE/hck+nMnPMdV4VOox4lgz2eeauHBPvC4gWWJjDEJEkDYPKZFZUg3n2mzppyk4BlP2iQchC4hzcMmiYQs6B9o2yJQnDDir/RGdFnWAxPUyBiEn5kLWiHyUkJPtmW98qozoDqwy6HkV7uVApq5sDaJfqQDd86WQOCo2jkynlUA6YXYNiZyAEQga+dhNDxh7YnNrKBfVbpieaB3R2QjciJHsTO2g33LjI3P9LcgyvBixxWTUhv49nDNh95hjJNt0fNDIS7IEA7VbthqTfxE3dMLid8Jmq7/TBjCFh+MDcT4YMp7H3rEdk0q4xjEIe+p4VMftowEIiVFtl6TWTUltzIVAnQQBYZuFzFEPx/5RMWQM8szdklZp9b+GhlAxcUJf9o5y1oMQrgBBRnQx9Z9DiHLmoDrhpbDOmOKZBruT9glCCD5DoDLuPrSEdLOgRfddXAhUf0O1hGrkqLeIkVLrAJh9FoSXoCGU2u9A4PgEVr/hEyhxINj1WCUBGsLulyDYDXfwQ+rHEGL6+xlxICihNbLmoTSIl44Z/A4EBefjaZo/hqCkY5nQPAhsnEAp1YmzWGu/BWEB6Q6R3fLnEDaIDj+oo/IgKAY1VFZscq9EJ+zYR78FoTWH/NG27MM7fw5BUaldPCq44kKgxwqKRUYOXtN/HWu/1hKUjUUEap4ZMVfmf4DgNUQP7xyp64MLwS6J4hq2T6fW+3nvW6uj/0tdZKtV1Av0103OPmnjP0BoTQLvE9pY9FCbC0Gxz/D91A+nphuGogSoO+1TvjiNBEs/gKAkGlAfnfgmBBknlZsDgVm4RUNQVlqkPtqUEwY5XS2BD0HxDln9OHC8Nxlv1f5GwHo4T9vXC86dpb5+BkGJMYDRrj4jqIW82y/faQkaY7HtazA61of2qCVzVJUPofV2Dfw610cAUc3rYDYHaJSpf4ZN+/1pRkCgSNtHGoL+ORpYnGoNNPjK76htlxn22gl1wBVn14VbB4ZVupyPvMG6c94VW0ZQn7Z8i+PkmEF4dm9YvaK/jb2mUG+pyN4T65E6UlJSUlJSUlJSUlJSUlJSUlJSE+p/8B+1JhELwhIAAAAASUVORK5CYII=;" vertex="1" parent="1">
                    <mxGeometry x="182.06" y="20" width="85.88" height="64.08" as="geometry"/>
                </mxCell>
                <mxCell id="16" value="&lt;p style=&quot;margin: 0px ; margin-top: 10px ; margin-left: 10px ; text-align: left&quot;&gt;&lt;b&gt;利用 rpc batch&lt;/b&gt;&lt;/p&gt;&lt;p style=&quot;margin: 0px ; margin-top: 10px ; margin-left: 10px ; text-align: left&quot;&gt;&lt;b&gt;來減少 API 呼叫&lt;/b&gt;&lt;/p&gt;" style="shape=note;size=15;spacingLeft=5;html=1;overflow=fill;whiteSpace=wrap;" vertex="1" parent="1">
                    <mxGeometry x="280" y="65" width="110" height="60" as="geometry"/>
                </mxCell>
                <mxCell id="20" value="" style="rounded=0;endArrow=none;dashed=1;html=1;" edge="1" source="16" parent="1">
                    <mxGeometry relative="1" as="geometry">
                        <mxPoint x="230" y="190" as="targetPoint"/>
                    </mxGeometry>
                </mxCell>
                <mxCell id="28" value="" style="group" vertex="1" connectable="0" parent="1">
                    <mxGeometry x="730" y="240" width="178" height="110" as="geometry"/>
                </mxCell>
                <mxCell id="25" value="" style="shape=mxgraph.gcp2.doubleRect;strokeColor=#dddddd;shadow=1;strokeWidth=1;container=0;" vertex="1" parent="28">
                    <mxGeometry width="178" height="110" as="geometry"/>
                </mxCell>
                <mxCell id="26" value="&lt;font color=&quot;#000000&quot;&gt;Consumer Group&lt;/font&gt;&lt;br&gt;&lt;hr&gt;&lt;span style=&quot;font-size: 11px&quot;&gt;Consumer 數量受限 &lt;br&gt;DB 的效能，限制 pod&amp;nbsp;&lt;br&gt;數量來控制落地到 DB&lt;br&gt;的流量&lt;br&gt;&lt;/span&gt;" style="dashed=0;connectable=0;html=1;fillColor=#5184F3;strokeColor=none;shape=mxgraph.gcp2.container_engine;part=1;labelPosition=right;verticalLabelPosition=middle;align=left;verticalAlign=top;spacingLeft=5;fontColor=#999999;fontSize=12;spacingTop=-8;" vertex="1" parent="28">
                    <mxGeometry x="5" y="7" width="44" height="39" as="geometry">
                        <mxPoint x="5" y="7" as="offset"/>
                    </mxGeometry>
                </mxCell>
                <mxCell id="29" value="" style="edgeStyle=orthogonalEdgeStyle;rounded=0;orthogonalLoop=1;jettySize=auto;html=1;" edge="1" parent="1" source="4" target="25">
                    <mxGeometry relative="1" as="geometry"/>
                </mxCell>
                <mxCell id="36" value="" style="edgeStyle=orthogonalEdgeStyle;rounded=0;orthogonalLoop=1;jettySize=auto;html=1;" edge="1" parent="1" source="32" target="34">
                    <mxGeometry relative="1" as="geometry"/>
                </mxCell>
                <mxCell id="32" value="PostgreSQL&lt;br&gt;Write" style="aspect=fixed;html=1;points=[];align=center;image;fontSize=12;image=img/lib/azure2/databases/Azure_Database_PostgreSQL_Server.svg;" vertex="1" parent="1">
                    <mxGeometry x="1050" y="263" width="48" height="64" as="geometry"/>
                </mxCell>
                <mxCell id="33" value="" style="edgeStyle=orthogonalEdgeStyle;rounded=0;orthogonalLoop=1;jettySize=auto;html=1;" edge="1" parent="1" source="25" target="32">
                    <mxGeometry relative="1" as="geometry"/>
                </mxCell>
                <mxCell id="34" value="" style="aspect=fixed;html=1;points=[];align=center;image;fontSize=12;image=img/lib/azure2/databases/Azure_Database_PostgreSQL_Server.svg;" vertex="1" parent="1">
                    <mxGeometry x="1146" y="327" width="48" height="64" as="geometry"/>
                </mxCell>
                <mxCell id="35" value="DB Read" style="aspect=fixed;html=1;points=[];align=center;image;fontSize=12;image=img/lib/azure2/databases/Azure_Database_PostgreSQL_Server.svg;" vertex="1" parent="1">
                    <mxGeometry x="1146" y="410" width="48" height="64" as="geometry"/>
                </mxCell>
                <mxCell id="37" value="" style="edgeStyle=orthogonalEdgeStyle;rounded=0;orthogonalLoop=1;jettySize=auto;html=1;entryX=-0.021;entryY=0.589;entryDx=0;entryDy=0;entryPerimeter=0;exitX=0.979;exitY=0.495;exitDx=0;exitDy=0;exitPerimeter=0;" edge="1" parent="1" source="32" target="35">
                    <mxGeometry relative="1" as="geometry">
                        <mxPoint x="1108" y="305" as="sourcePoint"/>
                        <mxPoint x="1156" y="369" as="targetPoint"/>
                        <Array as="points">
                            <mxPoint x="1120" y="295"/>
                            <mxPoint x="1120" y="448"/>
                        </Array>
                    </mxGeometry>
                </mxCell>
                <mxCell id="38" value="&lt;p style=&quot;margin: 0px ; margin-top: 10px ; margin-left: 10px ; text-align: left&quot;&gt;&lt;b&gt;1. 利用讀寫分離來增加存取效能&lt;/b&gt;&lt;/p&gt;&lt;p style=&quot;margin: 0px ; margin-top: 10px ; margin-left: 10px ; text-align: left&quot;&gt;&lt;b&gt;2. 選用 NoSQL: FireStore&lt;/b&gt;&lt;/p&gt;&lt;p style=&quot;margin: 0px ; margin-top: 10px ; margin-left: 10px ; text-align: left&quot;&gt;&lt;b&gt;3. 因為資料不變性，也可採用 Cloud storage，透過 CDN 加速&lt;/b&gt;&lt;/p&gt;&lt;p style=&quot;margin: 0px ; margin-top: 10px ; margin-left: 10px ; text-align: left&quot;&gt;&lt;b&gt;&lt;br&gt;&lt;/b&gt;&lt;/p&gt;" style="shape=note;size=15;spacingLeft=5;html=1;overflow=fill;whiteSpace=wrap;" vertex="1" parent="1">
                    <mxGeometry x="1180" y="220" width="230" height="100" as="geometry"/>
                </mxCell>
                <mxCell id="39" value="" style="rounded=0;endArrow=none;dashed=1;html=1;" edge="1" parent="1" source="38">
                    <mxGeometry relative="1" as="geometry">
                        <mxPoint x="1120" y="310" as="targetPoint"/>
                    </mxGeometry>
                </mxCell>
                <mxCell id="54" value="" style="edgeStyle=none;rounded=0;orthogonalLoop=1;jettySize=auto;html=1;startArrow=none;startFill=0;" edge="1" parent="1" source="40" target="53">
                    <mxGeometry relative="1" as="geometry"/>
                </mxCell>
                <mxCell id="57" value="" style="edgeStyle=none;rounded=0;orthogonalLoop=1;jettySize=auto;html=1;startArrow=none;startFill=0;entryX=0.41;entryY=-0.052;entryDx=0;entryDy=0;entryPerimeter=0;" edge="1" parent="1" source="40" target="55">
                    <mxGeometry relative="1" as="geometry">
                        <mxPoint x="415" y="575" as="targetPoint"/>
                    </mxGeometry>
                </mxCell>
                <mxCell id="42" value="&lt;p style=&quot;margin: 0px ; margin-top: 10px ; margin-left: 10px ; text-align: left&quot;&gt;&lt;b&gt;stable block &lt;br&gt;才送進kafka作落地&lt;/b&gt;&lt;/p&gt;" style="shape=note;size=15;spacingLeft=5;html=1;overflow=fill;whiteSpace=wrap;" vertex="1" parent="1">
                    <mxGeometry x="330" y="331" width="96" height="60" as="geometry"/>
                </mxCell>
                <mxCell id="43" value="" style="rounded=0;endArrow=none;dashed=1;html=1;" edge="1" parent="1" source="42">
                    <mxGeometry relative="1" as="geometry">
                        <mxPoint x="362" y="300" as="targetPoint"/>
                    </mxGeometry>
                </mxCell>
                <mxCell id="45" value="" style="strokeColor=#dddddd;shadow=1;strokeWidth=1;rounded=1;absoluteArcSize=1;arcSize=2;" vertex="1" parent="1">
                    <mxGeometry x="496" y="20" width="170" height="130" as="geometry"/>
                </mxCell>
                <mxCell id="46" value="&lt;font color=&quot;#000000&quot;&gt;Redis Cache&lt;/font&gt;&lt;br&gt;&lt;hr&gt;&lt;font style=&quot;font-size: 11px&quot;&gt;作為 unstable block 的&lt;br&gt;暫存區。&lt;br&gt;為了避免 stable block &lt;br&gt;讀取延遲問題，可以將&lt;br&gt;table block 設定 ttl 確&lt;br&gt;保可以讀到 stable block&lt;br&gt;&lt;/font&gt;" style="dashed=0;connectable=0;html=1;fillColor=#5184F3;strokeColor=none;shape=mxgraph.gcp2.container_engine;part=1;labelPosition=right;verticalLabelPosition=middle;align=left;verticalAlign=top;spacingLeft=5;fontColor=#999999;fontSize=12;spacingTop=-8;" vertex="1" parent="45">
                    <mxGeometry width="44" height="39" relative="1" as="geometry">
                        <mxPoint x="5" y="7" as="offset"/>
                    </mxGeometry>
                </mxCell>
                <mxCell id="44" value="" style="aspect=fixed;html=1;points=[];align=center;image;fontSize=12;image=img/lib/mscae/Cache_Redis_Product.svg;" vertex="1" parent="45">
                    <mxGeometry x="3" y="4.7272727272727275" width="52.38" height="44" as="geometry"/>
                </mxCell>
                <mxCell id="50" value="&lt;p style=&quot;margin: 0px ; margin-top: 10px ; margin-left: 10px ; text-align: left&quot;&gt;&lt;b&gt;unstable block &lt;br&gt;暫存&lt;/b&gt;&lt;/p&gt;" style="shape=note;size=15;spacingLeft=5;html=1;overflow=fill;whiteSpace=wrap;" vertex="1" parent="1">
                    <mxGeometry x="377" y="-10" width="96" height="60" as="geometry"/>
                </mxCell>
                <mxCell id="51" value="" style="rounded=0;endArrow=none;dashed=1;html=1;" edge="1" parent="1" source="50">
                    <mxGeometry relative="1" as="geometry">
                        <mxPoint x="460" y="120" as="targetPoint"/>
                    </mxGeometry>
                </mxCell>
                <mxCell id="53" value="" style="shape=image;imageAspect=0;aspect=fixed;verticalLabelPosition=bottom;verticalAlign=top;image=data:image/png,iVBORw0KGgoAAAANSUhEUgAAAQQAAADCCAMAAACYEEwlAAAAhFBMVEX///+Cg4QvMDA0NTUTExMAAADb29sqKytPUFDQ0NAfHx/Nzc3Jycnf399BQUH4+PjW1tbt7e2wsLBlZWV9fX3l5eWNjY08PDyGh4goKSnw8PDAwMCbm5sZGRkjIyO1tbWjo6NaWlp2dnZiYmKTk5NsbGxJSUmkpaVVVVV2d3kTFRW6u7tjLDZbAAAKNElEQVR4nO2d6ZaqvBKGIRDBqCAY5kkRUNv7v7+DE5IB6f5W9+askPdPtwpYPIZKhaQKRZGSkpKSkpKSkpKSkvr/l72Z2oL/A21BPLUJ08u3/KlNmFxXbKLV1EZMLC9UTWRObcXE2uPQNKA7tRmTalGqLQSj8aY2ZELZvnqDADI8tSUTKsEPCAAupjZlMjkX9QkhOthTGzOV9vgFAaC5+sbVjcETgpE5U5sziW5esYMAUDi1PZOouPQhgGg9tUETyFNVAkJ+mNqiCXTCJASgn6Y26Z9re6FaAjCCucWNdqjSEEA+N994xSwEAOc1pn55RRJCdJ7arn+qFPMgALSf2rB/qCXmtgRgaPOJG2Nf5UMAqJzatn+mAg9BAPlc4kavVAchRIeZ3IA/4WEI4GseceP6on6AALJZxI2q+hHCLOJGF3+GAPRkahP/XJ460hJAZE1t45+rwmMQQJZObeQfa3kZbQnCj6kdn2bAgQDQbmo7/1QFfTFwIYg9piZjxWEIhshxY8oy4EIQ2Teu2YthAALQRR1T2zwEYRnwIOSijqnpWPGOwNSQjngUxIwbNwwCtW4M0ELQdcS0hiiY2t4/UYopBDsLAE27Q9D1LKIofInoG9f97jEM8UEztLseEFoMOUlBE2/hRhz2EZTnAGgaCYHGIOD9xrdXbF2BCToEfQiUc4Ci+UYPd62gbvoIKAh9DMZZsDU8/ssVHNuwQNM+QOj5yKya2uxf1X1lThiqB4siwIPwxpCLFDc6d1dwMQGLgAuh1d1HCrVww8X32JCHYAhCi8HQQCSOb1yoam1xW8EnCDcfaViijKnt9DiM4BOEFgMUxTcuAjRIYASCDk1RmsIG68MN4RMECCtRGLRaHfJBDIMQINyJddvZPmn5DyFAS5yu4SUHA+MHECDaCxY0P7TaZd8NliAMRU2XtAst+g4ECM1uwYoozcFOOv/mpIi5JhgIELxvKrnFJCb/geLw2v2g2x3dTyC6GZTdsMk71qK0hFvSm7/sXrhn9AECPG5fGzoVFGpJn3vB++58Yj83BiBA3e1++qJBUKy1bBXGl6KL/ryyd02gHgK/Q7A6QgOJMnB4yruoKva7yWY70RCgIEB47q6EuIpyEAkzbnjpPg95qd630fdBTkCAzfX1kV3A26QUEi9UuM+9YLXoGvymfAyr0KMZpJ3P2B6QqLMvzzQPXK46DMtD/oDQdotdKOGV8H6HMRcydfi1tB1X3QnH7leuIQi17kpQ9tZjetb4Eql3fKt4Ldq6nN7dZQj6AWJiZc9pB4HuLhKy/dcMDA7fp7iuOv/n4RcCkKmTmPgP1Jucx/6W/jSuUDcXKfKCzqS3irF3TdxVmNl7GtIQeflaf40Cxu9hVTuuQr0FCmLniTq9Cfpb7PQcVjkpMSsv1MQTR1tyWS9O2+7SvmrEqiUjEC9UJEWmvaj4kqyOOrliSfy1/nGlUmqoxWsCrlBhRC/tpRdzijd25OmKP0KYRxEyO/2YDSfg2JEn5zIMId+Jc2f1s1aDGbIGEGv28ZNOAwnjYE6l6OyQDyEXduzIUy9w7EGYU+WAmxJeORHEDK/F1vsGyxtCNrtirQ7TEnKxEwG5WlPFpowv8Zb2j+vZT3Zlx4SZhP+JnhkQryp89dT2TKNtvx6jNoexI09FV55U2GmGcdnVq1Dt1+x6x7e8Z0vIZ13De315tITl+KYCS5YxV+5VJUx0nNqKqbW9mNZ8bqQMyTVm2zu+FQs97yglJSUlJSUlJSUlJSUlJSUlJSUl9T3NdUK5L6cRPT/hG1oIXXD7m9pICBLCXRKCIiHcJSEoEsJdEoIyRwh2yuQkzA/Chq19JCEoEsLzLQlBQni8JSHMEILHnrGAEOxleohyC1+ZeGDtum5R5Wpx+9u7pfaA4BTYCo7pUFbfcn8AeYALzurVxWM1p5e49M4bt9ZyrT5xsqM21Lbxqp9kbV9v3+NcyyY4p+9Sp0llaiZORm8HOnUEgxIfEGyoZdfxGbbKgvz2B/bWpd8hFA00jnUADczL+HawcTvqsT3qnvkQw5uBYaNDqnyE3x6uxnW7K5s5Wzfk633Ux7tFrfHX1qTDroFIfZz1ptahWZuZfh5JOSvyoHqcRbKDNYXMbrWCxe1P/0w3LRH/K7y3HNs3GjbNNclB9Xh3udOP9OcYtVuAvHbJVrIwEX5Y6+HcopMBdlQlptQgIABXCfVHfTN7H2m3fxLYPHLNChNdlQ9KkNbdNLUr+pe5G8TzCQv3/e41Y/ZaGtq7EuMe0rVzcKaskbamWlDcwLepa6hR19EYhKv7Ls2SRLXdvmW+GoATRB/ykbfauf/juxn7UFte76CXUe8KPUGKsxc0fQNd+pFnWFsaO/o6tXegT7u1jLR7BEJwBD07E/1km71HcXrBh0TUkspWrjPm6uFBQFE/hck+nMnPMdV4VOox4lgz2eeauHBPvC4gWWJjDEJEkDYPKZFZUg3n2mzppyk4BlP2iQchC4hzcMmiYQs6B9o2yJQnDDir/RGdFnWAxPUyBiEn5kLWiHyUkJPtmW98qozoDqwy6HkV7uVApq5sDaJfqQDd86WQOCo2jkynlUA6YXYNiZyAEQga+dhNDxh7YnNrKBfVbpieaB3R2QjciJHsTO2g33LjI3P9LcgyvBixxWTUhv49nDNh95hjJNt0fNDIS7IEA7VbthqTfxE3dMLid8Jmq7/TBjCFh+MDcT4YMp7H3rEdk0q4xjEIe+p4VMftowEIiVFtl6TWTUltzIVAnQQBYZuFzFEPx/5RMWQM8szdklZp9b+GhlAxcUJf9o5y1oMQrgBBRnQx9Z9DiHLmoDrhpbDOmOKZBruT9glCCD5DoDLuPrSEdLOgRfddXAhUf0O1hGrkqLeIkVLrAJh9FoSXoCGU2u9A4PgEVr/hEyhxINj1WCUBGsLulyDYDXfwQ+rHEGL6+xlxICihNbLmoTSIl44Z/A4EBefjaZo/hqCkY5nQPAhsnEAp1YmzWGu/BWEB6Q6R3fLnEDaIDj+oo/IgKAY1VFZscq9EJ+zYR78FoTWH/NG27MM7fw5BUaldPCq44kKgxwqKRUYOXtN/HWu/1hKUjUUEap4ZMVfmf4DgNUQP7xyp64MLwS6J4hq2T6fW+3nvW6uj/0tdZKtV1Av0103OPmnjP0BoTQLvE9pY9FCbC0Gxz/D91A+nphuGogSoO+1TvjiNBEs/gKAkGlAfnfgmBBknlZsDgVm4RUNQVlqkPtqUEwY5XS2BD0HxDln9OHC8Nxlv1f5GwHo4T9vXC86dpb5+BkGJMYDRrj4jqIW82y/faQkaY7HtazA61of2qCVzVJUPofV2Dfw610cAUc3rYDYHaJSpf4ZN+/1pRkCgSNtHGoL+ORpYnGoNNPjK76htlxn22gl1wBVn14VbB4ZVupyPvMG6c94VW0ZQn7Z8i+PkmEF4dm9YvaK/jb2mUG+pyN4T65E6UlJSUlJSUlJSUlJSUlJSUlJSE+p/8B+1JhELwhIAAAAASUVORK5CYII=;" vertex="1" parent="1">
                    <mxGeometry x="182.06" y="690" width="85.88" height="64.08" as="geometry"/>
                </mxCell>
                <mxCell id="55" value="Redis" style="aspect=fixed;html=1;points=[];align=center;image;fontSize=12;image=img/lib/mscae/Cache_Redis_Product.svg;" vertex="1" parent="1">
                    <mxGeometry x="327" y="690" width="50" height="42" as="geometry"/>
                </mxCell>
                <mxCell id="62" value="DB Read" style="aspect=fixed;html=1;points=[];align=center;image;fontSize=12;image=img/lib/azure2/databases/Azure_Database_PostgreSQL_Server.svg;" vertex="1" parent="1">
                    <mxGeometry x="460" y="688" width="48" height="64" as="geometry"/>
                </mxCell>
                <mxCell id="64" value="" style="edgeStyle=none;rounded=0;orthogonalLoop=1;jettySize=auto;html=1;startArrow=none;startFill=0;entryX=0.431;entryY=-0.052;entryDx=0;entryDy=0;entryPerimeter=0;" edge="1" parent="1" source="40" target="62">
                    <mxGeometry relative="1" as="geometry">
                        <mxPoint x="415" y="535" as="targetPoint"/>
                    </mxGeometry>
                </mxCell>
                <mxCell id="67" value="AWS S3" style="outlineConnect=0;dashed=0;verticalLabelPosition=bottom;verticalAlign=top;align=center;html=1;shape=mxgraph.aws3.s3;fillColor=#E05243;gradientColor=none;" vertex="1" parent="1">
                    <mxGeometry x="1050" y="580" width="56.5" height="63" as="geometry"/>
                </mxCell>
                <mxCell id="69" value="CDN" style="aspect=fixed;html=1;points=[];align=center;image;fontSize=12;image=img/lib/azure2/app_services/CDN_Profiles.svg;dashed=1;" vertex="1" parent="1">
                    <mxGeometry x="570" y="688" width="68" height="40" as="geometry"/>
                </mxCell>
                <mxCell id="72" value="" style="edgeStyle=none;rounded=0;orthogonalLoop=1;jettySize=auto;html=1;startArrow=none;startFill=0;entryX=0.402;entryY=-0.039;entryDx=0;entryDy=0;entryPerimeter=0;" edge="1" parent="1" source="40" target="69">
                    <mxGeometry relative="1" as="geometry">
                        <mxPoint x="390" y="535" as="targetPoint"/>
                    </mxGeometry>
                </mxCell>
                <mxCell id="73" value="&lt;p style=&quot;margin: 0px ; margin-top: 10px ; margin-left: 10px ; text-align: left&quot;&gt;&lt;b&gt;可以用 http redirect&lt;br&gt;&lt;/b&gt;&lt;/p&gt;&lt;p style=&quot;margin: 0px ; margin-top: 10px ; margin-left: 10px ; text-align: left&quot;&gt;&lt;b&gt;&lt;br&gt;&lt;/b&gt;&lt;/p&gt;" style="shape=note;size=15;spacingLeft=5;html=1;overflow=fill;whiteSpace=wrap;" vertex="1" parent="1">
                    <mxGeometry x="690" y="720" width="80" height="50" as="geometry"/>
                </mxCell>
                <mxCell id="74" value="" style="rounded=0;endArrow=none;dashed=1;html=1;" edge="1" parent="1" source="73" target="69">
                    <mxGeometry relative="1" as="geometry">
                        <mxPoint x="630" y="810" as="targetPoint"/>
                    </mxGeometry>
                </mxCell>
                <mxCell id="77" value="" style="edgeStyle=none;rounded=0;orthogonalLoop=1;jettySize=auto;html=1;startArrow=none;startFill=0;entryX=0;entryY=0.5;entryDx=0;entryDy=0;" edge="1" parent="1" source="75" target="40">
                    <mxGeometry relative="1" as="geometry">
                        <mxPoint x="-67.5" y="521.25" as="targetPoint"/>
                    </mxGeometry>
                </mxCell>
                <mxCell id="75" value="API request" style="outlineConnect=0;dashed=0;verticalLabelPosition=bottom;verticalAlign=top;align=center;html=1;shape=mxgraph.aws3.workspaces;fillColor=#D16A28;gradientColor=#F58435;gradientDirection=north;" vertex="1" parent="1">
                    <mxGeometry x="-230" y="474" width="82.5" height="94.5" as="geometry"/>
                </mxCell>
                <mxCell id="86" value="" style="edgeStyle=orthogonalEdgeStyle;rounded=0;orthogonalLoop=1;jettySize=auto;html=1;startArrow=none;startFill=0;entryX=0.5;entryY=1;entryDx=0;entryDy=0;curved=1;" edge="1" parent="1" source="82" target="12">
                    <mxGeometry relative="1" as="geometry">
                        <mxPoint x="520" y="437.7350000000001" as="targetPoint"/>
                    </mxGeometry>
                </mxCell>
                <mxCell id="87" value="API 設定 goroutine 數量" style="edgeLabel;html=1;align=center;verticalAlign=middle;resizable=0;points=[];" vertex="1" connectable="0" parent="86">
                    <mxGeometry x="-0.4323" y="-5" relative="1" as="geometry">
                        <mxPoint x="-1" as="offset"/>
                    </mxGeometry>
                </mxCell>
                <mxCell id="88" value="" style="rounded=0;orthogonalLoop=1;jettySize=auto;html=1;startArrow=none;startFill=0;" edge="1" parent="1" source="4" target="82">
                    <mxGeometry relative="1" as="geometry"/>
                </mxCell>
                <mxCell id="89" value="Metrics" style="edgeLabel;html=1;align=center;verticalAlign=middle;resizable=0;points=[];" vertex="1" connectable="0" parent="88">
                    <mxGeometry x="-0.1031" y="2" relative="1" as="geometry">
                        <mxPoint as="offset"/>
                    </mxGeometry>
                </mxCell>
            </root>
        </mxGraphModel>
    </diagram>
</mxfile>